<svg width="102" height="61" viewBox="0 0 102 61" fill="none" xmlns="http://www.w3.org/2000/svg">
<path d="M12.2328 51.6307V51.8724L9.64674 51.897V51.6514C9.64674 51.1225 9.19527 50.671 8.66635 50.671H3.56796C3.03905 50.671 2.59136 51.1225 2.59136 51.6514V51.7232C2.59136 52.2521 3.03716 52.6998 3.56796 52.6998H8.09399C9.25572 52.6998 10.3664 53.1891 11.1504 54.0486C11.1749 54.0769 11.2014 54.1071 11.2259 54.1355C11.2448 54.16 11.2656 54.1827 11.2883 54.2072C11.9003 54.9591 12.2328 55.8903 12.2328 56.8443C12.2328 59.1243 10.3797 60.983 8.09399 60.983H4.16111C1.87543 60.983 0.0185547 59.1262 0.0185547 56.8443V56.6705H2.60836V56.8443C2.60836 57.6981 3.30351 58.3932 4.16111 58.3932H8.09399C8.95915 58.3932 9.66374 57.6981 9.66374 56.8443C9.66374 55.9867 8.96104 55.2915 8.09399 55.2915H3.56796C2.63858 55.2915 1.76209 54.9364 1.09717 54.2922C0.92338 54.1222 0.772262 53.9296 0.638143 53.7237C0.235788 53.1456 0.0185547 52.4467 0.0185547 51.7081V51.6363C0.0185547 49.6718 1.61097 48.0718 3.56796 48.0718H8.66635C10.6347 48.0661 12.2328 49.6661 12.2328 51.6307Z" fill="#22084B"/>
<path d="M25.0743 48.0454L19.7587 54.9232V60.9642H17.1727V54.9591L16.9044 54.6304L11.8212 48.0454H15.0948L18.4572 52.409L21.8215 48.0454H25.0743Z" fill="#22084B"/>
<path d="M36.8938 51.6307V51.8724L34.304 51.897V51.6514C34.304 51.1225 33.8582 50.671 33.3274 50.671H28.2234C27.6945 50.671 27.2468 51.1225 27.2468 51.6514V51.7232C27.2468 52.2521 27.6926 52.6998 28.2234 52.6998H32.7494C33.9111 52.6998 35.0256 53.1891 35.8058 54.0486C35.8303 54.0769 35.8568 54.1071 35.8813 54.1355C35.9002 54.16 35.921 54.1827 35.9437 54.2072C36.5595 54.9591 36.8919 55.8903 36.8919 56.8443C36.8919 59.1243 35.0332 60.983 32.7494 60.983H28.8165C26.5365 60.983 24.6777 59.1262 24.6777 56.8443V56.6705H27.2675V56.8443C27.2675 57.6981 27.9627 58.3932 28.8165 58.3932H32.7494C33.6145 58.3932 34.3229 57.6981 34.3229 56.8443C34.3229 55.9867 33.6145 55.2915 32.7494 55.2915H28.2234C27.294 55.2915 26.4175 54.9364 25.7526 54.2922C25.5826 54.1222 25.4277 53.9296 25.2935 53.7237C24.8912 53.1456 24.6777 52.4467 24.6777 51.7081V51.6363C24.6777 49.6718 26.2664 48.0718 28.2234 48.0718H33.3274C35.292 48.0661 36.8938 49.6661 36.8938 51.6307Z" fill="#22084B"/>
<path d="M54.4484 47.8604L61.1411 60.9794H58.2396L54.4484 53.5519L50.6572 60.9794H47.7557L54.4484 47.8604Z" fill="#22084B"/>
<path d="M84.9157 55.1446C85.1877 55.0936 85.4503 55.0105 85.6978 54.8953C86.9596 54.3097 87.7738 53.0384 87.7738 51.65C87.7738 50.7093 87.4054 49.812 86.7348 49.1206C86.0661 48.4519 85.1726 48.0854 84.2244 48.0854H76.113V60.9986H78.7028V55.2164H80.7788C81.4985 55.2164 82.154 55.5885 82.5261 56.1968L84.9856 60.9986H87.8833L84.9157 55.1446ZM78.7028 50.6715H84.2244C84.5833 50.6715 84.8099 50.8453 84.9119 50.9435C84.9799 51.0153 85.201 51.2646 85.201 51.6519C85.201 52.0353 84.9762 52.3829 84.6154 52.5378C84.4964 52.5964 84.3623 52.6285 84.2244 52.6285L78.7028 52.6436V50.6715Z" fill="#22084B"/>
<path d="M65.3307 48.0664H74.6793V50.6562H65.3307C64.8018 50.6562 64.3541 51.102 64.3541 51.6328V52.6283H72.4333V55.2181H64.3541V57.415C64.3541 57.9439 64.7999 58.3916 65.3307 58.3916H74.6793V60.9814H65.3307C63.3737 60.9814 61.785 59.3815 61.785 57.4169V51.6347C61.785 49.6664 63.3737 48.0664 65.3307 48.0664Z" fill="#22084B"/>
<path d="M50.6497 50.6715H45.4947V61.0005H42.9068V50.6715H37.7555V48.0854H50.6497V50.6715Z" fill="#22084B"/>
<path d="M95.2524 48.0664C91.6916 48.0664 88.7939 50.9641 88.7939 54.5249C88.7939 58.0818 91.6916 60.9795 95.2524 60.9795C98.8131 60.9795 101.711 58.0818 101.711 54.5249C101.713 50.9641 98.815 48.0664 95.2524 48.0664ZM95.2524 58.3897C93.1178 58.3897 91.3819 56.6538 91.3819 54.523C91.3819 52.3884 93.1178 50.6524 95.2524 50.6524C97.387 50.6524 99.1229 52.3884 99.1229 54.523C99.1229 56.6556 97.387 58.3897 95.2524 58.3897Z" fill="#22084B"/>
<path d="M0 42.4576L20.862 34.7241L22.6679 36.785C22.6679 36.785 53.568 13.5164 67.3255 5.37109C67.3274 5.37109 38.7394 9.29264 0 42.4576Z" fill="#2E3192"/>
<path d="M59.2558 26.084L54.8035 41.4868L34.3098 39.8453L59.2558 26.084Z" fill="#2E3192"/>
<path d="M94.0152 1.57991C93.7527 2.57919 91.5633 4.88375 88.4295 6.56306C85.7056 8.02703 82.9798 9.48533 80.2879 11.0041L19.1187 45.4952C19.4133 45.2269 57.2782 11.0079 82.1694 0.590077C82.1694 0.590077 83.8903 -0.182521 85.8454 0.0403798L82.5623 3.41979C82.5283 3.45568 82.5283 3.51046 82.5642 3.54446C82.5812 3.56146 82.6038 3.56902 82.6246 3.56902C82.6378 3.56902 82.6511 3.56713 82.6643 3.55957L87.6361 1.00943C87.9327 0.856425 88.2652 0.780866 88.5976 0.797867C88.7431 0.805423 88.8696 0.803534 88.9074 0.797867C89.5213 0.720418 92.062 -0.120181 93.0254 0.0498282C93.7432 0.176391 94.2004 0.877207 94.0152 1.57991Z" fill="#29ABE2"/>
</svg>
