<svg width="32" height="32" viewBox="0 0 32 32" fill="none" xmlns="http://www.w3.org/2000/svg">
<rect width="32" height="32" rx="16" fill="#F3EDFD"/>
<g clip-path="url(#clip0_1384_26869)">
<path d="M22.25 24H9.75C8.784 24 8 23.216 8 22.25L8 9.75C8 9.28587 8.18437 8.84075 8.51256 8.51256C8.84075 8.18437 9.28587 8 9.75 8H22.25C22.7141 8 23.1592 8.18437 23.4874 8.51256C23.8156 8.84075 24 9.28587 24 9.75V22.25C24 23.216 23.216 24 22.25 24ZM22.5 22.25V9.75C22.5 9.612 22.388 9.5 22.25 9.5L9.75 9.5C9.6837 9.5 9.62011 9.52634 9.57322 9.57322C9.52634 9.62011 9.5 9.6837 9.5 9.75L9.5 22.25C9.5 22.3163 9.52634 22.3799 9.57322 22.4268C9.62011 22.4737 9.6837 22.5 9.75 22.5H22.25C22.3163 22.5 22.3799 22.4737 22.4268 22.4268C22.4737 22.3799 22.5 22.3163 22.5 22.25ZM12.25 21C12.0511 21 11.8603 20.921 11.7197 20.7803C11.579 20.6397 11.5 20.4489 11.5 20.25L11.5 12.75C11.5 12.5511 11.579 12.3603 11.7197 12.2197C11.8603 12.079 12.0511 12 12.25 12C12.4489 12 12.6397 12.079 12.7803 12.2197C12.921 12.3603 13 12.5511 13 12.75L13 20.25C13 20.4489 12.921 20.6397 12.7803 20.7803C12.6397 20.921 12.4489 21 12.25 21ZM20.5 20.25C20.5 20.4489 20.421 20.6397 20.2803 20.7803C20.1397 20.921 19.9489 21 19.75 21C19.5511 21 19.3603 20.921 19.2197 20.7803C19.079 20.6397 19 20.4489 19 20.25V14.75C19 14.5511 19.079 14.3603 19.2197 14.2197C19.3603 14.079 19.5511 14 19.75 14C19.9489 14 20.1397 14.079 20.2803 14.2197C20.421 14.3603 20.5 14.5511 20.5 14.75V20.25ZM16 21C15.8011 21 15.6103 20.921 15.4697 20.7803C15.329 20.6397 15.25 20.4489 15.25 20.25V16.75C15.25 16.5511 15.329 16.3603 15.4697 16.2197C15.6103 16.079 15.8011 16 16 16C16.1989 16 16.3897 16.079 16.5303 16.2197C16.671 16.3603 16.75 16.5511 16.75 16.75V20.25C16.75 20.4489 16.671 20.6397 16.5303 20.7803C16.3897 20.921 16.1989 21 16 21Z" fill="#22084B"/>
</g>
<defs>
<clipPath id="clip0_1384_26869">
<rect width="16" height="16" fill="white" transform="matrix(-1 0 0 -1 24 24)"/>
</clipPath>
</defs>
</svg>
