<svg width="25" height="24" viewBox="0 0 25 24" fill="none" xmlns="http://www.w3.org/2000/svg">
<rect x="0.441162" width="24" height="24" rx="12" fill="#F3EDFD"/>
<path d="M10.825 10.5638C11.1552 10.5638 11.4821 10.4988 11.7872 10.3724C12.0922 10.2461 12.3694 10.0609 12.6029 9.82738C12.8364 9.5939 13.0216 9.31672 13.1479 9.01167C13.2743 8.70662 13.3393 8.37967 13.3393 8.04948C13.3393 7.71929 13.2743 7.39234 13.1479 7.08729C13.0216 6.78224 12.8364 6.50506 12.6029 6.27158C12.3694 6.03811 12.0922 5.8529 11.7872 5.72655C11.4821 5.60019 11.1552 5.53516 10.825 5.53516C10.1582 5.53516 9.51862 5.80006 9.0471 6.27158C8.57557 6.74311 8.31067 7.38264 8.31067 8.04948C8.31067 8.71632 8.57557 9.35585 9.0471 9.82738C9.51862 10.2989 10.1582 10.5638 10.825 10.5638Z" stroke="#22084B" stroke-width="1.4" stroke-linejoin="round"/>
<path d="M17.2903 14.1559V17.7478M17.2903 14.1559L18.727 15.5926M17.2903 14.1559L15.8535 15.5926M13.6984 13.4375H10.753C9.14385 13.4375 8.33927 13.4375 7.72433 13.7507C7.18367 14.0262 6.7441 14.4658 6.46861 15.0064C6.1554 15.6214 6.1554 16.426 6.1554 18.0351V18.4661H13.6984" stroke="#22084B" stroke-width="1.4" stroke-linecap="round" stroke-linejoin="round"/>
</svg>
