<svg width="54" height="33" viewBox="0 0 54 33" fill="none" xmlns="http://www.w3.org/2000/svg">
<path d="M7.09531 27.8873V28.0133L5.74804 28.0261V27.8981C5.74804 27.6226 5.51283 27.3874 5.23727 27.3874H2.58111C2.30555 27.3874 2.07232 27.6226 2.07232 27.8981V27.9355C2.07232 28.2111 2.30457 28.4443 2.58111 28.4443H4.93908C5.54432 28.4443 6.12299 28.6992 6.5314 29.147C6.5442 29.1618 6.55797 29.1775 6.57077 29.1923C6.58061 29.2051 6.59144 29.2169 6.60325 29.2297C6.9221 29.6213 7.09531 30.1065 7.09531 30.6035C7.09531 31.7913 6.12988 32.7597 4.93908 32.7597H2.89013C1.69933 32.7597 0.731934 31.7923 0.731934 30.6035V30.513H2.08117V30.6035C2.08117 31.0483 2.44333 31.4105 2.89013 31.4105H4.93908C5.38981 31.4105 5.75689 31.0483 5.75689 30.6035C5.75689 30.1567 5.3908 29.7946 4.93908 29.7946H2.58111C2.09692 29.7946 1.64028 29.6095 1.29387 29.274C1.20333 29.1854 1.1246 29.085 1.05473 28.9777C0.845108 28.6766 0.731934 28.3125 0.731934 27.9277V27.8903C0.731934 26.8668 1.56155 26.0332 2.58111 26.0332H5.23727C6.26274 26.0303 7.09531 26.8638 7.09531 27.8873Z" fill="#22084B"/>
<path d="M13.7857 26.0194L11.0164 29.6026V32.7499H9.66914V29.6213L9.52939 29.4501L6.8811 26.0194H8.5866L10.3383 28.2927L12.0911 26.0194H13.7857Z" fill="#22084B"/>
<path d="M19.9435 27.8873V28.0133L18.5942 28.0261V27.8981C18.5942 27.6226 18.362 27.3874 18.0854 27.3874H15.4263C15.1508 27.3874 14.9175 27.6226 14.9175 27.8981V27.9355C14.9175 28.2111 15.1498 28.4443 15.4263 28.4443H17.7843C18.3895 28.4443 18.9702 28.6992 19.3766 29.147C19.3894 29.1618 19.4032 29.1775 19.416 29.1923C19.4258 29.2051 19.4366 29.2169 19.4484 29.2297C19.7693 29.6213 19.9425 30.1065 19.9425 30.6035C19.9425 31.7913 18.9741 32.7597 17.7843 32.7597H15.7353C14.5475 32.7597 13.5791 31.7923 13.5791 30.6035V30.513H14.9283V30.6035C14.9283 31.0483 15.2905 31.4105 15.7353 31.4105H17.7843C18.235 31.4105 18.6041 31.0483 18.6041 30.6035C18.6041 30.1567 18.235 29.7946 17.7843 29.7946H15.4263C14.9421 29.7946 14.4855 29.6095 14.1391 29.274C14.0505 29.1854 13.9698 29.085 13.8999 28.9777C13.6903 28.6766 13.5791 28.3125 13.5791 27.9277V27.8903C13.5791 26.8668 14.4068 26.0332 15.4263 26.0332H18.0854C19.1089 26.0303 19.9435 26.8638 19.9435 27.8873Z" fill="#22084B"/>
<path d="M29.0888 25.9231L32.5756 32.7579H31.064L29.0888 28.8883L27.1137 32.7579H25.6021L29.0888 25.9231Z" fill="#22084B"/>
<path d="M44.9618 29.7178C45.1035 29.6913 45.2403 29.648 45.3692 29.5879C46.0266 29.2829 46.4508 28.6205 46.4508 27.8972C46.4508 27.4071 46.2588 26.9397 45.9095 26.5795C45.5611 26.2311 45.0956 26.0402 44.6016 26.0402H40.3757V32.7677H41.725V29.7552H42.8065C43.1815 29.7552 43.523 29.9491 43.7168 30.266L44.9982 32.7677H46.5078L44.9618 29.7178ZM41.725 27.3874H44.6016C44.7886 27.3874 44.9067 27.478 44.9598 27.5291C44.9952 27.5665 45.1104 27.6964 45.1104 27.8982C45.1104 28.098 44.9933 28.2791 44.8053 28.3598C44.7433 28.3903 44.6734 28.407 44.6016 28.407L41.725 28.4149V27.3874Z" fill="#22084B"/>
<path d="M34.7583 26.0303H39.6288V27.3795H34.7583C34.4828 27.3795 34.2496 27.6118 34.2496 27.8883V28.4069H38.4587V29.7562H34.2496V30.9007C34.2496 31.1763 34.4818 31.4095 34.7583 31.4095H39.6288V32.7588H34.7583C33.7388 32.7588 32.9111 31.9252 32.9111 30.9017V27.8893C32.9111 26.8638 33.7388 26.0303 34.7583 26.0303Z" fill="#22084B"/>
<path d="M27.1093 27.3874H24.4236V32.7686H23.0753V27.3874H20.3916V26.0402H27.1093V27.3874Z" fill="#22084B"/>
<path d="M50.3472 26.0303C48.4921 26.0303 46.9824 27.5399 46.9824 29.395C46.9824 31.2481 48.4921 32.7578 50.3472 32.7578C52.2022 32.7578 53.7119 31.2481 53.7119 29.395C53.7129 27.5399 52.2032 26.0303 50.3472 26.0303ZM50.3472 31.4085C49.2351 31.4085 48.3307 30.5041 48.3307 29.394C48.3307 28.282 49.2351 27.3775 50.3472 27.3775C51.4592 27.3775 52.3636 28.282 52.3636 29.394C52.3636 30.5051 51.4592 31.4085 50.3472 31.4085Z" fill="#22084B"/>
<path d="M0.72168 23.1084L11.5904 19.0794L12.5312 20.153C12.5312 20.153 28.6296 8.03055 35.797 3.78699C35.798 3.78699 20.9042 5.83004 0.72168 23.1084Z" fill="#2E3192"/>
<path d="M31.5931 14.578L29.2735 22.6026L18.5967 21.7474L31.5931 14.578Z" fill="#2E3192"/>
<path d="M49.7023 1.81187C49.5655 2.33248 48.4249 3.53311 46.7923 4.408C45.3732 5.1707 43.9531 5.93045 42.5507 6.72169L10.6826 24.6909C10.8361 24.5511 30.563 6.72366 43.5309 1.29619C43.5309 1.29619 44.4274 0.893679 45.446 1.00981L43.7356 2.77041C43.7178 2.78911 43.7179 2.81765 43.7365 2.83537C43.7454 2.84422 43.7572 2.84816 43.768 2.84816C43.7749 2.84816 43.7818 2.84718 43.7887 2.84324L46.3789 1.51467C46.5334 1.43495 46.7066 1.39559 46.8799 1.40444C46.9556 1.40838 47.0216 1.4074 47.0413 1.40444C47.3611 1.36409 48.6847 0.926158 49.1867 1.01473C49.5606 1.08067 49.7988 1.44578 49.7023 1.81187Z" fill="#29ABE2"/>
</svg>
