<svg width="40" height="40" viewBox="0 0 40 40" fill="none" xmlns="http://www.w3.org/2000/svg">
<rect width="40" height="40" rx="8" fill="#B82132"/>
<path d="M14.2002 27.7998H25.7998V13.2002H14.2002V27.7998ZM17.998 16.7998C18.0797 16.8 18.1119 16.8191 18.1475 16.8545C18.1814 16.8883 18.2002 16.9186 18.2002 17V24.002C18.2004 24.0815 18.1822 24.1117 18.1475 24.1465C18.1214 24.1726 18.0973 24.1893 18.0527 24.1963L18 24.2002H17.998C17.9185 24.2004 17.8883 24.1822 17.8535 24.1475C17.8187 24.1126 17.7998 24.0814 17.7998 24V17C17.7998 16.921 17.8179 16.8892 17.8545 16.8525C17.8894 16.8175 17.9194 16.7996 17.998 16.7998ZM21.998 16.7998C22.0797 16.8 22.1119 16.8191 22.1475 16.8545C22.1814 16.8883 22.2002 16.9186 22.2002 17V24.002C22.2004 24.0815 22.1822 24.1117 22.1475 24.1465C22.1214 24.1726 22.0973 24.1893 22.0527 24.1963L22 24.2002H21.998C21.9185 24.2004 21.8883 24.1822 21.8535 24.1475C21.8187 24.1126 21.7998 24.0814 21.7998 24V17C21.7998 16.921 21.8179 16.8892 21.8545 16.8525C21.8894 16.8175 21.9194 16.7996 21.998 16.7998ZM13.7998 13.2002H13C12.9592 13.2002 12.9311 13.1955 12.9092 13.1865L12.8545 13.1475C12.8279 13.1208 12.8108 13.096 12.8037 13.0508L12.7998 12.998C12.7997 12.9587 12.8047 12.9318 12.8135 12.9102L12.8525 12.8545C12.8892 12.8179 12.921 12.7998 13 12.7998H17.7998V12C17.7998 11.9592 17.8045 11.9311 17.8135 11.9092L17.8525 11.8545C17.8792 11.8279 17.904 11.8108 17.9492 11.8037L18.002 11.7998H22C22.0814 11.7998 22.1126 11.8187 22.1475 11.8535C22.1822 11.8883 22.2004 11.9185 22.2002 11.998L22.1982 12.7998H27C27.0814 12.7998 27.1126 12.8187 27.1475 12.8535C27.1736 12.8796 27.1897 12.9034 27.1963 12.9473L27.2002 12.998C27.2 13.0798 27.1808 13.1128 27.1445 13.1494C27.1115 13.1827 27.0831 13.2005 27.0039 13.2002L26.2002 13.1963V27C26.2002 27.3364 26.0895 27.6044 25.8467 27.8477C25.6349 28.0598 25.4039 28.1712 25.124 28.1953L25.001 28.2002H15C14.6637 28.2002 14.3957 28.09 14.1533 27.8477C13.9411 27.6355 13.8304 27.4031 13.8057 27.1221L13.7998 26.999V13.2002Z" fill="white" stroke="white" stroke-width="1.6"/>
</svg>
