<svg width="17" height="16" viewBox="0 0 17 16" fill="none" xmlns="http://www.w3.org/2000/svg">
<path d="M12.4974 6.66699H9.16406" stroke="#1A1A1A" stroke-width="1.2" stroke-linecap="round"/>
<path d="M1.83008 4.6335C1.83008 4.04483 1.83008 3.75083 1.87674 3.5055C1.97623 2.97872 2.23217 2.49416 2.61118 2.11503C2.99019 1.7359 3.47467 1.47981 4.00141 1.38016C4.24741 1.3335 4.54208 1.3335 5.13008 1.3335C5.38741 1.3335 5.51674 1.3335 5.64074 1.34483C6.17478 1.39498 6.68127 1.60502 7.09408 1.9475C7.19008 2.02683 7.28074 2.1175 7.46341 2.30016L7.83008 2.66683C8.37408 3.21083 8.64608 3.48283 8.97141 3.6635C9.15022 3.76316 9.33992 3.8419 9.53674 3.89816C9.89541 4.00016 10.2801 4.00016 11.0487 4.00016H11.2981C13.0527 4.00016 13.9307 4.00016 14.5007 4.5135C14.5536 4.56016 14.6034 4.60994 14.6501 4.66283C15.1634 5.23283 15.1634 6.11083 15.1634 7.8655V9.3335C15.1634 11.8475 15.1634 13.1048 14.3821 13.8855C13.6007 14.6662 12.3441 14.6668 9.83008 14.6668H7.16341C4.64941 14.6668 3.39208 14.6668 2.61141 13.8855C1.83074 13.1042 1.83008 11.8475 1.83008 9.3335V4.6335Z" stroke="#1A1A1A" stroke-width="1.2"/>
</svg>
