<svg width="21" height="20" viewBox="0 0 21 20" fill="none" xmlns="http://www.w3.org/2000/svg">
<path d="M6.80469 5C6.80469 4.83424 6.87054 4.67527 6.98775 4.55806C7.10496 4.44085 7.26393 4.375 7.42969 4.375H17.4297C17.5954 4.375 17.7544 4.44085 17.8716 4.55806C17.9888 4.67527 18.0547 4.83424 18.0547 5C18.0547 5.16576 17.9888 5.32473 17.8716 5.44194C17.7544 5.55915 17.5954 5.625 17.4297 5.625H7.42969C7.26393 5.625 7.10496 5.55915 6.98775 5.44194C6.87054 5.32473 6.80469 5.16576 6.80469 5ZM17.4297 9.375H7.42969C7.26393 9.375 7.10496 9.44085 6.98775 9.55806C6.87054 9.67527 6.80469 9.83424 6.80469 10C6.80469 10.1658 6.87054 10.3247 6.98775 10.4419C7.10496 10.5592 7.26393 10.625 7.42969 10.625H17.4297C17.5954 10.625 17.7544 10.5592 17.8716 10.4419C17.9888 10.3247 18.0547 10.1658 18.0547 10C18.0547 9.83424 17.9888 9.67527 17.8716 9.55806C17.7544 9.44085 17.5954 9.375 17.4297 9.375ZM17.4297 14.375H7.42969C7.26393 14.375 7.10496 14.4408 6.98775 14.5581C6.87054 14.6753 6.80469 14.8342 6.80469 15C6.80469 15.1658 6.87054 15.3247 6.98775 15.4419C7.10496 15.5592 7.26393 15.625 7.42969 15.625H17.4297C17.5954 15.625 17.7544 15.5592 17.8716 15.4419C17.9888 15.3247 18.0547 15.1658 18.0547 15C18.0547 14.8342 17.9888 14.6753 17.8716 14.5581C17.7544 14.4408 17.5954 14.375 17.4297 14.375ZM3.99219 4.0625C3.80677 4.0625 3.62551 4.11748 3.47134 4.2205C3.31717 4.32351 3.19701 4.46993 3.12605 4.64123C3.05509 4.81254 3.03653 5.00104 3.0727 5.1829C3.10888 5.36475 3.19816 5.5318 3.32928 5.66291C3.46039 5.79402 3.62743 5.88331 3.80929 5.91949C3.99115 5.95566 4.17965 5.93709 4.35095 5.86614C4.52226 5.79518 4.66868 5.67502 4.77169 5.52085C4.8747 5.36668 4.92969 5.18542 4.92969 5C4.92969 4.75136 4.83092 4.5129 4.6551 4.33709C4.47929 4.16127 4.24083 4.0625 3.99219 4.0625ZM3.99219 9.0625C3.80677 9.0625 3.62551 9.11748 3.47134 9.2205C3.31717 9.32351 3.19701 9.46993 3.12605 9.64123C3.05509 9.81254 3.03653 10.001 3.0727 10.1829C3.10888 10.3648 3.19816 10.5318 3.32928 10.6629C3.46039 10.794 3.62743 10.8833 3.80929 10.9195C3.99115 10.9557 4.17965 10.9371 4.35095 10.8661C4.52226 10.7952 4.66868 10.675 4.77169 10.5208C4.8747 10.3667 4.92969 10.1854 4.92969 10C4.92969 9.75136 4.83092 9.5129 4.6551 9.33709C4.47929 9.16127 4.24083 9.0625 3.99219 9.0625ZM3.99219 14.0625C3.80677 14.0625 3.62551 14.1175 3.47134 14.2205C3.31717 14.3235 3.19701 14.4699 3.12605 14.6412C3.05509 14.8125 3.03653 15.001 3.0727 15.1829C3.10888 15.3648 3.19816 15.5318 3.32928 15.6629C3.46039 15.794 3.62743 15.8833 3.80929 15.9195C3.99115 15.9557 4.17965 15.9371 4.35095 15.8661C4.52226 15.7952 4.66868 15.675 4.77169 15.5208C4.8747 15.3667 4.92969 15.1854 4.92969 15C4.92969 14.7514 4.83092 14.5129 4.6551 14.3371C4.47929 14.1613 4.24083 14.0625 3.99219 14.0625Z" fill="#1A1A1A"/>
</svg>
