<svg width="97" height="60" viewBox="0 0 97 60" fill="none" xmlns="http://www.w3.org/2000/svg">
<path d="M28.1505 26.8971V27.023L26.8032 27.0358V26.9079C26.8032 26.6323 26.568 26.3971 26.2925 26.3971H23.6363C23.3607 26.3971 23.1275 26.6323 23.1275 26.9079V26.9453C23.1275 27.2209 23.3597 27.4541 23.6363 27.4541H25.9943C26.5995 27.4541 27.1782 27.709 27.5866 28.1568C27.5994 28.1715 27.6132 28.1873 27.6259 28.202C27.6358 28.2148 27.6466 28.2266 27.6584 28.2394C27.9773 28.6311 28.1505 29.1163 28.1505 29.6133C28.1505 30.8011 27.1851 31.7695 25.9943 31.7695H23.9453C22.7545 31.7695 21.7871 30.8021 21.7871 29.6133V29.5227H23.1363V29.6133C23.1363 30.0581 23.4985 30.4203 23.9453 30.4203H25.9943C26.445 30.4203 26.8121 30.0581 26.8121 29.6133C26.8121 29.1665 26.446 28.8043 25.9943 28.8043H23.6363C23.1521 28.8043 22.6955 28.6193 22.349 28.2837C22.2585 28.1951 22.1798 28.0948 22.1099 27.9875C21.9003 27.6864 21.7871 27.3222 21.7871 26.9374V26.9C21.7871 25.8765 22.6167 25.043 23.6363 25.043H26.2925C27.3179 25.04 28.1505 25.8736 28.1505 26.8971Z" fill="#22084B"/>
<path d="M34.8412 25.0293L32.0718 28.6125V31.7597H30.7246V28.6312L30.5848 28.46L27.9365 25.0293H29.642L31.3938 27.3026L33.1465 25.0293H34.8412Z" fill="#22084B"/>
<path d="M40.9981 26.8971V27.023L39.6489 27.0358V26.9079C39.6489 26.6323 39.4167 26.3971 39.1401 26.3971H36.481C36.2054 26.3971 35.9722 26.6323 35.9722 26.9079V26.9453C35.9722 27.2209 36.2045 27.4541 36.481 27.4541H38.839C39.4442 27.4541 40.0248 27.709 40.4313 28.1568C40.4441 28.1715 40.4579 28.1873 40.4707 28.202C40.4805 28.2148 40.4913 28.2266 40.5031 28.2394C40.824 28.6311 40.9972 29.1163 40.9972 29.6133C40.9972 30.8011 40.0288 31.7695 38.839 31.7695H36.79C35.6022 31.7695 34.6338 30.8021 34.6338 29.6133V29.5227H35.983V29.6133C35.983 30.0581 36.3452 30.4203 36.79 30.4203H38.839C39.2897 30.4203 39.6588 30.0581 39.6588 29.6133C39.6588 29.1665 39.2897 28.8043 38.839 28.8043H36.481C35.9968 28.8043 35.5402 28.6193 35.1938 28.2837C35.1052 28.1951 35.0245 28.0948 34.9546 27.9875C34.745 27.6864 34.6338 27.3222 34.6338 26.9374V26.9C34.6338 25.8765 35.4614 25.043 36.481 25.043H39.1401C40.1636 25.04 40.9981 25.8736 40.9981 26.8971Z" fill="#22084B"/>
<path d="M50.143 24.9336L53.6298 31.7684H52.1182L50.143 27.8988L48.1679 31.7684H46.6562L50.143 24.9336Z" fill="#22084B"/>
<path d="M66.0167 28.7285C66.1584 28.7019 66.2952 28.6586 66.4241 28.5986C67.0815 28.2935 67.5057 27.6312 67.5057 26.9078C67.5057 26.4177 67.3138 25.9503 66.9644 25.5901C66.616 25.2417 66.1505 25.0508 65.6565 25.0508H61.4307V31.7783H62.7799V28.7659H63.8615C64.2364 28.7659 64.5779 28.9597 64.7718 29.2766L66.0531 31.7783H67.5628L66.0167 28.7285ZM62.7799 26.3981H65.6565C65.8435 26.3981 65.9616 26.4886 66.0147 26.5398C66.0502 26.5772 66.1653 26.7071 66.1653 26.9088C66.1653 27.1086 66.0482 27.2897 65.8602 27.3704C65.7982 27.4009 65.7284 27.4176 65.6565 27.4176L62.7799 27.4255V26.3981Z" fill="#22084B"/>
<path d="M55.813 25.041H60.6835V26.3903H55.813C55.5375 26.3903 55.3042 26.6225 55.3042 26.8991V27.4177H59.5134V28.7669H55.3042V29.9115C55.3042 30.187 55.5365 30.4203 55.813 30.4203H60.6835V31.7695H55.813C54.7935 31.7695 53.9658 30.9359 53.9658 29.9125V26.9C53.9658 25.8746 54.7935 25.041 55.813 25.041Z" fill="#22084B"/>
<path d="M48.1639 26.3981H45.4783V31.7793H44.13V26.3981H41.4463V25.0508H48.1639V26.3981Z" fill="#22084B"/>
<path d="M71.4018 25.041C69.5468 25.041 68.0371 26.5507 68.0371 28.4058C68.0371 30.2589 69.5468 31.7685 71.4018 31.7685C73.2569 31.7685 74.7666 30.2589 74.7666 28.4058C74.7676 26.5507 73.2579 25.041 71.4018 25.041ZM71.4018 30.4193C70.2898 30.4193 69.3854 29.5149 69.3854 28.4048C69.3854 27.2927 70.2898 26.3883 71.4018 26.3883C72.5139 26.3883 73.4183 27.2927 73.4183 28.4048C73.4183 29.5158 72.5139 30.4193 71.4018 30.4193Z" fill="#22084B"/>
<path d="M21.7773 22.1202L32.6461 18.0912L33.5869 19.1649C33.5869 19.1649 49.6853 7.04239 56.8527 2.79883C56.8537 2.79883 41.9599 4.84188 21.7773 22.1202Z" fill="#2E3192"/>
<path d="M52.6487 13.5898L50.3292 21.6144L39.6523 20.7592L52.6487 13.5898Z" fill="#2E3192"/>
<path d="M70.758 0.823104C70.6212 1.34371 69.4806 2.54434 67.8479 3.41923C66.4288 4.18193 65.0087 4.94168 63.6063 5.73292L31.7383 23.7021C31.8918 23.5624 51.6187 5.73489 64.5865 0.307419C64.5865 0.307419 65.4831 -0.09509 66.5016 0.0210371L64.7912 1.78164C64.7735 1.80034 64.7735 1.82888 64.7922 1.8466C64.8011 1.85545 64.8129 1.85939 64.8237 1.85939C64.8306 1.85939 64.8375 1.85841 64.8444 1.85447L67.4346 0.525895C67.5891 0.446181 67.7623 0.406816 67.9355 0.415674C68.0113 0.41961 68.0772 0.418626 68.0969 0.415674C68.4168 0.375324 69.7404 -0.062612 70.2423 0.0259596C70.6163 0.0918962 70.8544 0.457008 70.758 0.823104Z" fill="#29ABE2"/>
<path d="M14.9236 43.2838C15.0354 43.5418 15.2633 44.2769 15.6072 45.4894C15.762 46.0397 15.8437 46.6244 15.8523 47.2435H14.6786C13.8531 46.0741 13.0018 45.2357 12.1248 44.7284C11.2477 44.2125 10.2675 43.9545 9.18402 43.9545C7.85122 43.9545 6.77639 44.4747 5.95951 45.5152C4.85028 46.9253 4.29567 48.8901 4.29567 51.4096C4.29567 52.8713 4.39025 53.9118 4.57942 54.5309C4.88898 55.5369 5.28022 56.3581 5.75315 56.9944C6.11429 57.4759 6.58722 57.8586 7.17193 58.1423C7.92861 58.5293 8.73689 58.7227 9.59676 58.7227C10.5426 58.7227 11.4541 58.4304 12.3311 57.8457C13.2168 57.2524 14.0638 56.371 14.872 55.2016C15.1902 55.1414 15.6072 55.107 16.1232 55.0984C16.0888 55.4251 16.0329 55.7648 15.9555 56.1173C15.9297 56.2549 15.8308 56.8009 15.6588 57.7554L15.5427 58.1423L15.3622 58.7485C14.8377 59.1527 14.0982 59.4579 13.1437 59.6643C12.1979 59.8621 11.0327 59.9609 9.64835 59.9609C8.59071 59.9609 7.58896 59.8621 6.64311 59.6643C5.70585 59.4665 4.90188 59.1527 4.23118 58.7227C3.25093 58.1036 2.48135 57.4329 1.92243 56.7106C1.36352 55.9883 0.946481 55.2016 0.671323 54.3503C0.404764 53.499 0.271484 52.5446 0.271484 51.4869C0.271484 48.9245 1.11416 46.8093 2.7995 45.1411C4.49344 43.473 6.65171 42.6389 9.27431 42.6389C10.3405 42.6389 11.3423 42.6948 12.2795 42.8066C13.2254 42.9098 14.1068 43.0688 14.9236 43.2838Z" fill="#22084B"/>
<path d="M18.0579 58.9162C18.2814 58.7958 18.6125 58.7098 19.051 58.6582C19.4895 58.5981 19.8851 58.5035 20.2376 58.3745C20.2806 58.2025 20.3064 58.0778 20.315 58.0004C20.3322 57.8801 20.3408 57.4673 20.3408 56.7622L20.3279 53.886L20.3795 52.3382L20.3537 51.1387L20.3795 50.4422C20.4053 49.5049 20.4182 48.6279 20.4182 47.811C20.4182 46.0225 20.3967 44.8789 20.3537 44.3801L19.5927 44.2254C18.8962 44.1824 18.4319 44.1394 18.1997 44.0964L18.1739 43.3225L18.2255 43.1806C18.6555 43.1118 19.051 43.0774 19.4122 43.0774C19.6099 43.0774 20.0098 43.0731 20.6117 43.0645C21.2308 43.1161 21.5661 43.1419 21.6177 43.1419L22.3013 43.1032L23.9136 43.0258C24.9196 42.9227 25.9815 42.8711 27.0994 42.8711C28.8621 42.8711 30.2637 43.3225 31.3041 44.2254C32.3446 45.1196 32.8648 46.1472 32.8648 47.308C32.8648 48.1764 32.581 48.9675 32.0135 49.6812C31.4546 50.3863 30.5904 50.9194 29.421 51.2806C29.5242 51.4611 29.6618 51.6718 29.8338 51.9126C30.1949 52.4285 30.4873 52.867 30.7108 53.2282L32.7745 56.5688C33.2904 57.4544 33.6258 57.9746 33.7806 58.1294C33.9439 58.2756 34.275 58.439 34.7737 58.6195C35.1606 58.7657 35.4573 58.9119 35.6637 59.0581C35.7153 59.2043 35.7411 59.3332 35.7411 59.445C35.7411 59.5224 35.7368 59.6213 35.7282 59.7417H35.3799L35.1219 59.7546L34.4513 59.6643H33.9224C33.6473 59.6213 33.3076 59.5998 32.9035 59.5998L31.6137 59.5869C31.5191 59.5869 31.2181 59.617 30.7108 59.6772C30.4787 59.703 30.2938 59.7245 30.1562 59.7417L29.7177 58.8904C29.3565 58.2455 29.1029 57.764 28.9567 57.4458C28.5784 56.6118 27.9291 55.2833 27.0091 53.4603C26.5792 52.6177 26.2782 52.1404 26.1062 52.0287C25.8483 51.8481 25.4054 51.7578 24.7777 51.7578C24.6058 51.7578 24.3134 51.7664 23.9007 51.7836C23.8749 52.033 23.862 52.3296 23.862 52.6736L23.9136 55.5369L23.8491 57.9617C24.0898 58.1079 24.4037 58.2197 24.7906 58.2971C25.4613 58.4347 26.0374 58.5981 26.519 58.7872C26.519 59.2086 26.5018 59.5267 26.4674 59.7417C26.304 59.7331 26.2008 59.7288 26.1578 59.7288L25.629 59.7546C23.7803 59.5912 22.684 59.5095 22.34 59.5095C22.1164 59.5095 21.9574 59.5138 21.8628 59.5224L20.0829 59.6385C19.5411 59.6987 19.0467 59.7288 18.5996 59.7288H18.045C18.0278 59.5138 18.0192 59.3762 18.0192 59.316C18.0192 59.2215 18.0321 59.0882 18.0579 58.9162ZM23.862 50.5712C24.2747 50.5884 24.5757 50.597 24.7648 50.597C26.2266 50.597 27.2628 50.3347 27.8733 49.8102C28.4838 49.2857 28.789 48.5849 28.789 47.7078C28.789 47.1661 28.7116 46.6588 28.5569 46.1859C28.4107 45.7043 28.2258 45.3475 28.0022 45.1153C27.6841 44.78 27.2671 44.5263 26.7511 44.3543C26.3728 44.2254 25.7666 44.1609 24.9325 44.1609C24.537 44.1609 24.1973 44.1824 23.9136 44.2254L23.9007 44.4704L23.9136 46.2116L23.8878 47.2693L23.9007 48.6752C23.8835 49.0707 23.8706 49.5823 23.862 50.21V50.5712Z" fill="#22084B"/>
<path d="M35.9474 43.0129C36.4375 43.0387 36.8632 43.0774 37.2243 43.129C37.9036 43.2236 38.6904 43.2709 39.5847 43.2709C39.8942 43.2709 40.6896 43.2451 41.9708 43.1935C43.8883 43.1161 45.6209 43.0774 47.1687 43.0774L49.5032 43.0516C50.0278 43.0516 50.8016 43.1161 51.8249 43.2451C51.9797 43.4171 52.0571 43.6492 52.0571 43.9416V46.5986L52.0829 47.1274C52.0829 47.179 52.0786 47.2564 52.07 47.3596L51.5411 47.3854C51.4723 47.3854 51.3262 47.3768 51.1026 47.3596C51.0252 47.1876 50.922 46.9339 50.793 46.5986L50.2771 45.6828C50.0794 45.2959 49.8042 44.9003 49.4517 44.4962C49.2367 44.436 48.9615 44.4016 48.6262 44.393C48.5402 44.3844 48.2779 44.3629 47.8394 44.3285C47.0397 44.2597 46.1799 44.2254 45.2598 44.2254C44.2108 44.2254 43.2735 44.2425 42.448 44.2769C42.4222 44.4919 42.4093 45.3389 42.4093 46.8179L42.4351 48.9847V50.6099C42.6501 50.6357 42.835 50.6486 42.9897 50.6486C44.5289 50.6486 45.6252 50.6185 46.2787 50.5583C46.9322 50.4981 47.3364 50.4164 47.4912 50.3132C47.6459 50.2014 47.7835 50.0123 47.9039 49.7457C47.9813 49.5565 48.1318 48.9245 48.3553 47.8497L48.523 47.8368L49.2711 47.8497C49.3055 48.615 49.3227 49.1954 49.3227 49.5909C49.3227 50.4938 49.3141 51.0742 49.2969 51.3322C49.2883 51.5901 49.284 51.7922 49.284 51.9384C49.284 52.1705 49.2969 52.5446 49.3227 53.0605C49.3485 53.5678 49.3614 53.9462 49.3614 54.1955V54.4793H48.4456C48.4112 54.3417 48.3467 54.0579 48.2521 53.628C48.0802 52.8283 47.9254 52.3296 47.7878 52.1318C47.6846 51.9771 47.5126 51.861 47.2719 51.7836C47.0999 51.7234 46.4636 51.6933 45.363 51.6933C44.0646 51.6933 43.0886 51.7277 42.4351 51.7965C42.4265 52.0201 42.4222 52.1662 42.4222 52.235C42.4222 53.2583 42.4394 54.1095 42.4738 54.7888L42.448 57.5748C42.448 57.9016 42.5641 58.1251 42.7963 58.2455C43.1488 58.4261 44.228 58.5164 46.0337 58.5164C47.2289 58.5164 48.2435 58.4261 49.0776 58.2455C49.6537 58.1165 50.161 57.8285 50.5996 57.3813C51.1843 56.8052 51.6701 55.9969 52.0571 54.9565C52.3236 54.9307 52.5429 54.9178 52.7149 54.9178C52.8094 54.9178 52.9513 54.9221 53.1405 54.9307C53.1147 55.1457 53.0932 55.3263 53.076 55.4724L52.9986 55.8594L52.5214 58.2971L52.2892 59.7675C51.7303 59.7933 51.2875 59.8062 50.9607 59.8062C50.4792 59.8062 49.1937 59.7632 47.1042 59.6772C45.6338 59.617 43.8625 59.5869 41.7902 59.5869C40.7584 59.5869 39.4901 59.6299 37.9853 59.7159H37.4436L35.8829 59.7675V58.8775C36.0463 58.8345 36.3731 58.7872 36.8632 58.7356C37.7574 58.6324 38.3765 58.4949 38.7205 58.3229C38.8151 58.0735 38.8624 57.7597 38.8624 57.3813C38.8624 57.2352 38.8581 56.9858 38.8495 56.6333L38.8624 56.2334L38.8237 51.3709L38.8366 49.9134L38.7721 47.8497L38.785 46.3922L38.6689 44.7929C38.6689 44.7499 38.6603 44.6639 38.6431 44.5349C38.5571 44.4403 38.4281 44.3801 38.2562 44.3543C38.1616 44.3371 38.0326 44.3113 37.8692 44.2769C37.3791 44.1738 36.9062 44.1136 36.4504 44.0964C36.2871 44.0878 36.0979 44.0706 35.8829 44.0448L35.9474 43.0129Z" fill="#22084B"/>
<path d="M53.8112 59.703L53.837 58.8259C54.0004 58.7743 54.2884 58.7098 54.7011 58.6324C55.3633 58.5035 55.7631 58.3874 55.9007 58.2842C56.0468 58.181 56.2231 57.9317 56.4295 57.5361L62.0917 42.6905C62.3755 42.6991 62.6463 42.7034 62.9043 42.7034H63.4847L63.6008 42.9355L65.845 48.2495C66.3524 49.376 66.8081 50.4723 67.2122 51.5385C67.6164 52.5962 67.9646 53.4603 68.257 54.131C68.4289 54.5352 68.6654 55.1414 68.9664 55.9497C69.1211 56.3882 69.3576 56.9385 69.6758 57.6006C69.8477 57.9617 69.9767 58.1724 70.0627 58.2326C70.2175 58.3616 70.4668 58.4476 70.8108 58.4906C71.1633 58.5336 71.5417 58.6324 71.9458 58.7872C71.9888 59.071 72.0103 59.2816 72.0103 59.4192C72.0103 59.4794 72.006 59.574 71.9974 59.703C71.3611 59.703 70.6603 59.6729 69.895 59.6127C69.1297 59.5525 68.4418 59.5224 67.8313 59.5224C67.152 59.5224 66.6619 59.531 66.361 59.5482L64.1683 59.6643L63.5363 59.6901C63.5363 59.3891 63.5492 59.1011 63.575 58.8259L65.0067 58.5164C65.4366 58.4046 65.686 58.3186 65.7548 58.2584C65.8407 58.1724 65.8837 58.0735 65.8837 57.9617C65.8837 57.85 65.8622 57.7339 65.8192 57.6135L65.3033 56.3495L64.2844 53.8215L59.3573 53.8086C59.1768 54.2213 58.8027 55.2317 58.2352 56.8396C58.0718 57.2954 57.9901 57.6049 57.9901 57.7683C57.9901 57.9918 58.0503 58.1509 58.1707 58.2455C58.3685 58.4089 58.7468 58.525 59.3057 58.5938C59.3831 58.6109 59.6884 58.6582 60.2215 58.7356C60.2301 59.0452 60.2344 59.2601 60.2344 59.3805C60.2344 59.4751 60.2258 59.574 60.2086 59.6772C59.6755 59.6772 58.4029 59.6041 56.3908 59.4579L55.862 59.5482C55.2257 59.6514 54.6195 59.703 54.0434 59.703H53.8112ZM59.8733 52.4543C61.8853 52.4801 63.072 52.493 63.4331 52.493L63.7556 52.4801C63.4976 51.7148 63.1623 50.8248 62.7495 49.8102C62.3368 48.787 62.0014 48.0088 61.7435 47.4757L59.8733 52.4543Z" fill="#22084B"/>
<path d="M73.6999 44.3285C73.6999 43.8642 73.8504 43.4859 74.1514 43.1935C74.4523 42.8926 74.8393 42.7421 75.3122 42.7421C75.8195 42.7421 76.2409 42.9012 76.5762 43.2193C76.9116 43.5289 77.0792 43.8814 77.0792 44.2769C77.0792 44.5693 77.0104 44.8617 76.8729 45.154C76.7439 45.4464 76.5332 45.6828 76.2409 45.8634C75.9571 46.0354 75.6647 46.1214 75.3638 46.1214C74.951 46.1214 74.5684 45.9451 74.2159 45.5925C73.8719 45.24 73.6999 44.8187 73.6999 44.3285ZM71.8942 59.7159L71.8684 58.8775L73.3259 58.684C73.5409 58.6238 73.687 58.5379 73.7644 58.4261C73.8504 58.3057 73.8934 58.0434 73.8934 57.6393V57.4974C73.8934 57.3942 73.8977 57.2094 73.9063 56.9428C73.9235 56.6676 73.9321 56.4269 73.9321 56.2205C73.9321 56.0571 73.9192 55.7433 73.8934 55.279L73.9063 54.6341L73.8934 54.0279L73.9192 51.9255C73.9192 51.6589 73.8934 51.3838 73.8418 51.1C73.7472 50.971 73.5753 50.8592 73.3259 50.7646C73.0765 50.6701 72.6423 50.6013 72.0232 50.5583V49.836C72.9089 49.7844 73.687 49.5995 74.3577 49.2814C74.8135 49.075 75.3079 48.7096 75.841 48.185H76.7052C76.7396 49.2513 76.7568 50.6357 76.7568 52.3382L76.6665 57.6006C76.6665 57.9617 76.6837 58.2885 76.7181 58.5809C76.9846 58.6754 77.4189 58.77 78.0208 58.8646C78.2529 58.899 78.4378 58.942 78.5754 58.9936L78.5625 59.703C78.3303 59.7116 78.1584 59.7159 78.0466 59.7159C77.9176 59.7159 77.7198 59.7073 77.4533 59.6901C76.5762 59.6471 75.4025 59.6256 73.9321 59.6256C73.5108 59.6256 73.1023 59.6428 72.7068 59.6772C72.3113 59.703 72.0404 59.7159 71.8942 59.7159Z" fill="#22084B"/>
<path d="M80.2908 42.2906H81.0905C81.1507 42.3852 81.1937 42.454 81.2195 42.497C81.4603 42.9098 81.6451 43.1806 81.7741 43.3096C81.8859 43.344 82.4749 43.3612 83.5411 43.3612C84.2032 43.3612 84.7922 43.3569 85.3082 43.3483L85.5661 43.3096L87.1268 43.2967L90.0417 43.3225H94.0272L94.7882 43.2064C94.9 43.129 95.0204 42.9227 95.1494 42.5873C95.1838 42.5099 95.231 42.4024 95.2912 42.2649L95.8587 42.252C95.9447 42.252 96.0737 42.2563 96.2457 42.2649C96.2543 42.8582 96.2586 43.7524 96.2586 44.9476L96.2715 46.0956L96.2586 46.7534C96.2586 46.9769 96.2414 47.1704 96.207 47.3338C95.8544 47.4456 95.5449 47.5143 95.2783 47.5401C95.0548 47.2048 94.8097 46.719 94.5432 46.0827C94.2852 45.4464 94.1218 45.0938 94.053 45.025C93.9498 44.9132 93.8295 44.8402 93.6919 44.8058C93.4855 44.7628 92.5741 44.7413 90.9575 44.7413C90.7167 44.7413 90.4158 44.7585 90.0546 44.7929C90.003 45.1282 89.9772 45.4034 89.9772 45.6183L89.9902 47.3467V51.1387L90.0417 55.2274L90.0288 56.9041C90.0288 57.4974 90.0804 57.9446 90.1836 58.2455C90.3212 58.3057 90.5749 58.3616 90.9446 58.4132C91.0134 58.4218 91.3315 58.4906 91.8991 58.6195C92.157 58.6797 92.3849 58.7485 92.5826 58.8259C92.6256 59.1355 92.6471 59.3246 92.6471 59.3934C92.6471 59.4708 92.6342 59.5826 92.6084 59.7288C92.4193 59.7374 92.2645 59.7417 92.1441 59.7417C91.2585 59.7417 90.5061 59.7116 89.887 59.6514C89.2679 59.5826 88.1457 59.5482 86.5206 59.5482C86.2626 59.5482 85.5059 59.5998 84.2505 59.703C83.7604 59.7374 83.4423 59.7546 83.2961 59.7546C83.2875 59.6256 83.2789 59.5267 83.2703 59.4579L83.2574 59.1613V59.0581C83.4465 58.8087 83.8034 58.6238 84.3279 58.5035C85.2222 58.2885 85.8413 58.095 86.1852 57.9231C86.2712 57.7597 86.3228 57.5447 86.34 57.2782C86.4002 56.2463 86.4303 54.604 86.4303 52.3511L86.3658 47.4757C86.3658 46.1343 86.34 45.3217 86.2884 45.0379C86.2712 44.9605 86.2411 44.9046 86.1981 44.8703C86.1551 44.8273 86.0949 44.8015 86.0176 44.7929C85.751 44.7585 84.8825 44.7413 83.4122 44.7413C82.6039 44.7413 82.0622 44.8187 81.787 44.9734C81.4173 45.1884 80.8626 45.7731 80.1232 46.7276C79.9082 47.0027 79.7491 47.1403 79.6459 47.1403C79.2504 46.9339 78.9967 46.7663 78.8849 46.6373C79.1515 46.0784 79.5212 44.9605 79.9942 43.2838C80.1318 42.7937 80.2306 42.4626 80.2908 42.2906Z" fill="#22084B"/>
</svg>
