<svg width="32" height="32" viewBox="0 0 32 32" fill="none" xmlns="http://www.w3.org/2000/svg">
<rect width="32" height="32" rx="16" fill="white"/>
<rect x="0.5" y="0.5" width="31" height="31" rx="15.5" stroke="#343434" stroke-opacity="0.15"/>
<path d="M22.6663 23.5C22.6663 21.1992 19.6813 19.3333 15.9997 19.3333C12.318 19.3333 9.33301 21.1992 9.33301 23.5M15.9997 16.8333C14.8946 16.8333 13.8348 16.3943 13.0534 15.6129C12.272 14.8315 11.833 13.7717 11.833 12.6667C11.833 11.5616 12.272 10.5018 13.0534 9.72039C13.8348 8.93899 14.8946 8.5 15.9997 8.5C17.1047 8.5 18.1646 8.93899 18.946 9.72039C19.7274 10.5018 20.1663 11.5616 20.1663 12.6667C20.1663 13.7717 19.7274 14.8315 18.946 15.6129C18.1646 16.3943 17.1047 16.8333 15.9997 16.8333Z" stroke="#1A1A1A" stroke-width="1.4" stroke-linecap="round" stroke-linejoin="round"/>
</svg>
