<svg width="17" height="16" viewBox="0 0 17 16" fill="none" xmlns="http://www.w3.org/2000/svg">
<path d="M3.83847 7.146C3.88822 7.09944 3.94732 7.06249 4.01239 7.03729C4.07745 7.01208 4.14721 6.99911 4.21765 6.99911C4.2881 6.99911 4.35785 7.01208 4.42292 7.03729C4.48798 7.06249 4.54708 7.09944 4.59683 7.146L6.73907 9.146C6.78895 9.19245 6.82852 9.24762 6.85552 9.30837C6.88252 9.36911 6.89642 9.43423 6.89642 9.5C6.89642 9.56577 6.88252 9.63089 6.85552 9.69163C6.82852 9.75238 6.78895 9.80755 6.73907 9.854L4.59683 11.854C4.54704 11.9005 4.48792 11.9374 4.42286 11.9625C4.3578 11.9877 4.28807 12.0006 4.21765 12.0006C4.14723 12.0006 4.0775 11.9877 4.01244 11.9625C3.94738 11.9374 3.88827 11.9005 3.83847 11.854C3.78868 11.8075 3.74918 11.7523 3.72223 11.6916C3.69528 11.6308 3.68141 11.5657 3.68141 11.5C3.68141 11.4343 3.69528 11.3692 3.72223 11.3084C3.74918 11.2477 3.78868 11.1925 3.83847 11.146L5.60261 9.5L3.83847 7.854C3.7886 7.80755 3.74903 7.75238 3.72203 7.69163C3.69503 7.63089 3.68113 7.56577 3.68113 7.5C3.68113 7.43423 3.69503 7.36911 3.72203 7.30837C3.74903 7.24762 3.7886 7.19245 3.83847 7.146ZM13.3222 11H7.96658C7.82454 11 7.68832 11.0527 7.58788 11.1464C7.48744 11.2402 7.43102 11.3674 7.43102 11.5C7.43102 11.6326 7.48744 11.7598 7.58788 11.8536C7.68832 11.9473 7.82454 12 7.96658 12H13.3222C13.4642 12 13.6005 11.9473 13.7009 11.8536C13.8013 11.7598 13.8578 11.6326 13.8578 11.5C13.8578 11.3674 13.8013 11.2402 13.7009 11.1464C13.6005 11.0527 13.4642 11 13.3222 11ZM1 3.5C1 2.83696 1.28213 2.20107 1.78431 1.73223C2.2865 1.26339 2.96761 1 3.67781 1H13.3179C14.0281 1 14.7092 1.26339 15.2114 1.73223C15.7136 2.20107 15.9957 2.83696 15.9957 3.5V4H16V5H15.9968V12.5C15.9968 13.163 15.7147 13.7989 15.2125 14.2678C14.7103 14.7366 14.0292 15 13.319 15H3.67888C2.96868 15 2.28757 14.7366 1.78538 14.2678C1.2832 13.7989 1.00107 13.163 1.00107 12.5L1 3.5ZM14.9246 4V3.5C14.9246 3.10218 14.7553 2.72064 14.454 2.43934C14.1527 2.15804 13.744 2 13.3179 2H3.67781C3.25169 2 2.84302 2.15804 2.54171 2.43934C2.2404 2.72064 2.07112 3.10218 2.07112 3.5V4H14.9246ZM2.07112 5V12.5C2.07112 12.8978 2.2404 13.2794 2.54171 13.5607C2.84302 13.842 3.25169 14 3.67781 14H13.3179C13.744 14 14.1527 13.842 14.454 13.5607C14.7553 13.2794 14.9246 12.8978 14.9246 12.5V5H2.07112Z" fill="#000000"/>
</svg>
