<svg width="17" height="16" viewBox="0 0 17 16" fill="none" xmlns="http://www.w3.org/2000/svg">
<g clip-path="url(#clip0_3115_81361)">
<path d="M8.55756 4.6946C8.46297 4.78931 8.40983 4.9177 8.40983 5.05156C8.40983 5.18542 8.46297 5.3138 8.55756 5.40851L10.2211 7.07207L8.55756 8.73562C8.50793 8.78186 8.46813 8.83763 8.44052 8.89959C8.41291 8.96156 8.39807 9.02844 8.39687 9.09627C8.39567 9.16409 8.40815 9.23146 8.43355 9.29436C8.45896 9.35725 8.49677 9.41439 8.54474 9.46236C8.5927 9.51032 8.64984 9.54814 8.71274 9.57354C8.77563 9.59895 8.843 9.61142 8.91083 9.61023C8.97865 9.60903 9.04554 9.59418 9.1075 9.56658C9.16946 9.53897 9.22523 9.49916 9.27147 9.44953L11.292 7.42902C11.3866 7.33431 11.4397 7.20593 11.4397 7.07207C11.4397 6.93821 11.3866 6.80982 11.292 6.71511L9.27147 4.6946C9.17676 4.60001 9.04838 4.54688 8.91452 4.54688C8.78066 4.54688 8.65227 4.60001 8.55756 4.6946ZM6.57746 5.40851C6.66669 5.31276 6.71526 5.18611 6.71295 5.05525C6.71064 4.92438 6.65763 4.79953 6.56508 4.70698C6.47254 4.61443 6.34768 4.56142 6.21682 4.55911C6.08595 4.5568 5.9593 4.60538 5.86355 4.6946L3.84304 6.71511C3.74844 6.80982 3.69531 6.93821 3.69531 7.07207C3.69531 7.20593 3.74844 7.33431 3.84304 7.42902L5.86355 9.44953C5.9593 9.53876 6.08595 9.58734 6.21682 9.58503C6.34768 9.58272 6.47254 9.5297 6.56508 9.43716C6.65763 9.34461 6.71064 9.21975 6.71295 9.08889C6.71526 8.95803 6.66669 8.83138 6.57746 8.73562L4.91391 7.07207L6.57746 5.40851Z" fill="#000000"/>
<path fill-rule="evenodd" clip-rule="evenodd" d="M7.56788 0C3.66223 0 0.496094 3.16614 0.496094 7.07178C0.496094 10.9774 3.66223 14.1436 7.56788 14.1436C9.33919 14.1436 10.9576 13.4923 12.1982 12.4167L15.1246 15.3424C15.1708 15.392 15.2266 15.4318 15.2886 15.4594C15.3505 15.4871 15.4174 15.5019 15.4852 15.5031C15.5531 15.5043 15.6204 15.4918 15.6833 15.4664C15.7462 15.441 15.8034 15.4032 15.8513 15.3552C15.8993 15.3073 15.9371 15.2501 15.9625 15.1872C15.9879 15.1243 16.0004 15.057 15.9992 14.9891C15.998 14.9213 15.9831 14.8544 15.9555 14.7925C15.9279 14.7305 15.8881 14.6747 15.8385 14.6285L12.9128 11.7021C14.0287 10.4179 14.6421 8.77312 14.6397 7.07178C14.6397 3.16614 11.4735 0 7.56788 0ZM1.50635 7.07178C1.50635 6.27577 1.66313 5.48756 1.96775 4.75214C2.27238 4.01672 2.71886 3.3485 3.28173 2.78564C3.84459 2.22277 4.51281 1.77628 5.24823 1.47166C5.98365 1.16704 6.77187 1.01025 7.56788 1.01025C8.36389 1.01025 9.15211 1.16704 9.88752 1.47166C10.6229 1.77628 11.2912 2.22277 11.854 2.78564C12.4169 3.3485 12.8634 4.01672 13.168 4.75214C13.4726 5.48756 13.6294 6.27577 13.6294 7.07178C13.6294 8.6794 12.9908 10.2212 11.854 11.3579C10.7173 12.4947 9.1755 13.1333 7.56788 13.1333C5.96026 13.1333 4.41849 12.4947 3.28173 11.3579C2.14497 10.2212 1.50635 8.6794 1.50635 7.07178Z" fill="#000000"/>
</g>
<defs>
<clipPath id="clip0_3115_81361">
<rect width="16" height="16" fill="white" transform="translate(0.496094)"/>
</clipPath>
</defs>
</svg>
