<svg width="20" height="20" viewBox="0 0 20 20" fill="none" xmlns="http://www.w3.org/2000/svg">
<path d="M14.5171 2.71073C14.4105 2.78184 14.2771 2.9774 14.2238 3.14629C14.0993 3.5374 14.286 4.04406 14.6149 4.19518L14.846 4.29295V5.70629V7.11073H14.2238C13.6193 7.11073 13.6016 7.11962 13.6016 7.33295C13.6016 7.55518 13.6105 7.55518 14.4016 7.55518H15.2016V5.91073C15.2016 4.55073 15.2193 4.26629 15.326 4.26629C15.5571 4.26629 15.9127 3.74184 15.9127 3.40406C15.9127 2.95962 15.5127 2.5774 15.0505 2.5774C14.8638 2.5774 14.6238 2.63962 14.5171 2.71073Z" fill="#000000"/>
<path d="M2.65873 4.95962C1.92984 5.60851 2.70317 6.77295 3.58317 6.35518C3.75206 6.27518 3.93873 6.11518 4.00095 5.99962C4.1165 5.78629 4.15206 5.7774 5.08539 5.7774H6.04539V6.66629C6.04539 7.49295 6.05428 7.55518 6.22317 7.55518C6.39206 7.55518 6.40095 7.49295 6.40095 6.48851V5.42184H5.25428C4.18761 5.42184 4.09873 5.41295 4.04539 5.24406C3.8765 4.71073 3.12095 4.55073 2.65873 4.95962Z" fill="#000000"/>
<path d="M10.1961 6.0176C10.1605 6.04427 10.1339 6.15982 10.125 6.2576C10.125 6.53316 9.65386 6.87982 9.44052 6.76427C9.30719 6.69316 9.23608 6.71093 9.12052 6.83538C8.94275 7.03093 8.94275 7.17316 9.12941 7.27093C9.23608 7.33316 9.25386 7.43093 9.2183 7.63538C9.17386 7.84871 9.20941 7.95538 9.3783 8.12427C9.54719 8.29316 9.58275 8.39982 9.54719 8.63982C9.47608 9.03093 9.67164 9.19982 10.1339 9.16427C10.4005 9.14649 10.4983 9.18204 10.6139 9.35093C10.6939 9.4576 10.7561 9.50204 10.7561 9.43982C10.7561 9.31538 11.3872 8.9776 11.6272 8.9776C11.7161 8.9776 11.8672 9.0576 11.9561 9.15538C12.1783 9.40427 12.4627 9.35093 12.5783 9.03982C12.6405 8.83538 12.6316 8.76427 12.525 8.68427C12.3116 8.52427 12.4094 7.95538 12.6672 7.83982C12.9605 7.70649 12.8716 7.28871 12.5427 7.28871C12.2583 7.28871 11.9739 6.85316 12.0539 6.53316C12.125 6.23982 11.7872 6.05316 11.565 6.2576C11.3605 6.44427 10.7827 6.35538 10.7116 6.12427C10.6583 5.95538 10.3205 5.89316 10.1961 6.0176ZM11.3783 7.19093C12.045 7.67093 11.8939 8.5776 11.0939 8.87982C10.525 9.09316 9.86719 8.60427 9.86719 7.96427C9.86719 7.1376 10.7027 6.71093 11.3783 7.19093Z" fill="#000000"/>
<path d="M6.28531 8.23963C5.96531 8.37296 5.94753 8.39074 5.99198 8.70185C6.03642 8.97741 6.00087 9.0663 5.72531 9.35963C5.43198 9.67963 5.38753 9.69741 5.13865 9.60852C4.80087 9.49296 4.82753 9.48407 4.7742 9.61741C4.74753 9.67963 4.66753 9.87518 4.58753 10.0619L4.44531 10.3819L4.75642 10.5685C5.04087 10.7374 5.06753 10.7819 5.06753 11.1819C5.06753 11.5552 5.04087 11.6263 4.80087 11.7596C4.48976 11.9463 4.48976 11.9641 4.67642 12.4441C4.83642 12.8352 4.83642 12.8352 5.21865 12.7107C5.46753 12.6219 5.51198 12.6396 5.80531 12.933C6.08087 13.2085 6.11642 13.2796 6.04531 13.4752C5.92087 13.8041 5.92976 13.8485 6.20531 13.9819C6.72087 14.2485 6.80087 14.2485 6.96976 13.9374C7.12087 13.6619 7.15642 13.6441 7.56531 13.653C7.96531 13.653 8.02753 13.6796 8.18753 13.9463C8.32087 14.1596 8.40087 14.2219 8.51642 14.1774C8.59642 14.1419 8.78309 14.0707 8.91642 14.0263C9.15642 13.9374 9.16531 13.9107 9.12087 13.5641C9.06753 13.2263 9.08531 13.173 9.36976 12.8974C9.63642 12.6307 9.70753 12.613 10.0186 12.6574C10.3564 12.7196 10.3564 12.7196 10.5164 12.3019C10.5964 12.0707 10.6586 11.8752 10.6498 11.8663C10.1698 11.5996 10.1342 11.5552 10.1342 11.0841C10.1342 10.6663 10.1609 10.6041 10.4009 10.4707L10.6675 10.3196L10.4986 9.93741C10.3386 9.57296 10.3209 9.55518 9.99198 9.57296C9.71642 9.59074 9.60087 9.5463 9.36087 9.31518C9.10309 9.0663 9.07642 8.99518 9.12087 8.70185C9.1742 8.38185 9.16531 8.36407 8.84531 8.23074C8.40087 8.04407 8.32976 8.05296 8.17865 8.31963C8.06309 8.52407 7.98309 8.55074 7.5742 8.56852C7.13865 8.57741 7.08531 8.55963 6.96976 8.33741C6.81865 8.05296 6.75642 8.04407 6.28531 8.23963ZM8.34753 9.97296C8.65865 10.1685 8.96976 10.7285 8.97865 11.1019C8.97865 11.4574 8.63198 12.0707 8.32087 12.2663C7.92976 12.5063 7.2542 12.5063 6.86309 12.2663C6.08087 11.7863 6.00087 10.7107 6.6942 10.0619C7.12976 9.65296 7.76976 9.6263 8.34753 9.97296Z" fill="#000000"/>
<path d="M12.8186 9.46661C12.7297 9.65328 12.6586 9.68883 12.3208 9.68883C12.0097 9.68883 11.8941 9.64439 11.7875 9.49328C11.6541 9.30661 11.6453 9.30661 11.3341 9.44883C11.0675 9.57328 11.023 9.6355 11.0764 9.80439C11.103 9.91105 11.1386 10.0177 11.1386 10.0444C11.1653 10.1599 10.8186 10.6755 10.6675 10.7555C10.3919 10.9066 10.4364 11.3066 10.7564 11.5377C10.9075 11.6533 11.023 11.8133 11.023 11.9022C11.023 12.1866 10.6941 12.8622 10.4897 13.0044C10.2497 13.1733 10.4008 13.2799 10.703 13.1466C10.8897 13.0577 10.9608 13.0755 11.1919 13.2533C11.4141 13.4222 11.4586 13.5288 11.4408 13.7688C11.4319 13.9999 11.4675 14.0888 11.6008 14.1422C11.9208 14.2666 12.0897 14.2222 12.1875 14.0088C12.2675 13.8488 12.3741 13.7866 12.6586 13.7599C12.9608 13.7244 13.0497 13.7511 13.2097 13.9377C13.3875 14.1511 13.3964 14.1511 13.6719 14.0088C13.9653 13.8577 14.0097 13.7422 13.8764 13.5199C13.8141 13.4311 13.8764 13.2888 14.063 13.0577C14.2941 12.7733 14.3741 12.7288 14.5875 12.7733C14.8008 12.8177 14.8541 12.7822 14.9341 12.5866C15.0675 12.2311 15.0497 12.1244 14.8097 12.0177C14.6586 11.9466 14.5875 11.8311 14.5519 11.5555C14.5075 11.2355 14.5341 11.1555 14.7208 10.9866L14.9341 10.7999L14.7564 10.5155C14.6053 10.2577 14.5608 10.2311 14.3475 10.3111C14.1519 10.3911 14.0719 10.3644 13.823 10.1599C13.5919 9.96439 13.5475 9.85772 13.5741 9.67105C13.6186 9.46661 13.583 9.41328 13.3875 9.33328C13.023 9.19994 12.9253 9.22661 12.8186 9.46661ZM13.1386 10.7555C13.7608 11.1377 13.8319 11.9644 13.2986 12.4977C12.9253 12.8711 12.6053 12.9511 12.143 12.7911C11.6719 12.6311 11.3786 12.1955 11.3786 11.6622C11.3786 11.3244 11.423 11.2177 11.7253 10.9244C12.0186 10.6311 12.1253 10.5777 12.4541 10.5777C12.6853 10.5777 12.9608 10.6488 13.1386 10.7555Z" fill="#000000"/>
<path d="M15.3789 10.311C15.3789 10.471 15.4411 10.4888 15.9567 10.4888H16.5345V11.8755V13.271L16.2056 13.5555C15.9122 13.8044 15.8678 13.8933 15.8767 14.2133C15.9122 15.3866 17.6011 15.351 17.6011 14.1777C17.6011 13.8488 17.4589 13.6266 17.1567 13.4666L16.89 13.3244V11.7333V10.1333H16.1345C15.4411 10.1333 15.3789 10.151 15.3789 10.311Z" fill="black"/>
<path d="M7.37813 15.5998V16.3553H5.84924H4.31146L4.16035 16.0887C3.72479 15.3242 2.57812 15.6531 2.57812 16.5331C2.57812 17.4131 3.72479 17.742 4.16035 16.9776L4.31146 16.7109H6.02701H7.73368V15.7776C7.73368 14.9065 7.72479 14.8442 7.5559 14.8442C7.3959 14.8442 7.37813 14.9065 7.37813 15.5998Z" fill="#000000"/>
</svg>
