<svg width="17" height="16" viewBox="0 0 17 16" fill="none" xmlns="http://www.w3.org/2000/svg">
<path d="M3.10934 1.03021C2.61143 1.14776 2.1227 1.64261 2.00837 2.14358C1.98663 2.23327 1.97439 3.79511 1.97439 6.58786V10.8961L1.88469 10.927C1.56923 11.0383 1.25378 11.3228 1.09918 11.6352L1 11.8363V12.6096V13.3829L1.09903 13.5932C1.23204 13.8747 1.49806 14.1407 1.77939 14.2735L1.98969 14.3726H8.5H15.0103L15.2206 14.2735C15.5021 14.1405 15.7681 13.8747 15.901 13.5932L16 13.3829V12.6096V11.8363L15.901 11.6354C15.7494 11.3292 15.4401 11.0415 15.1556 10.9426L15.0411 10.9024L15.0256 6.51378L15.0102 2.12506L14.939 1.95807C14.7441 1.50026 14.3235 1.1323 13.8781 1.03021C13.7052 0.989956 3.27939 0.989956 3.10934 1.03021ZM13.8815 1.96419C13.9217 1.98593 13.9897 2.05082 14.0269 2.10654L14.0981 2.21169V6.53536V10.8621H12.0969C10.1391 10.8621 10.0928 10.8621 9.96602 10.9272C9.78969 11.0106 9.70627 11.1808 9.70627 11.4436V11.6354H8.50015H7.29403V11.4436C7.29403 11.1808 7.21046 11.0106 7.03429 10.9272C6.90755 10.8621 6.86102 10.8621 4.90337 10.8621H2.90209V6.53536V2.21169L2.97327 2.10654C3.01046 2.05082 3.07842 1.98593 3.11867 1.96419C3.22995 1.90542 13.7701 1.90542 13.8815 1.96419ZM6.36602 11.9817C6.36602 12.2445 6.44959 12.4148 6.62576 12.4982C6.7525 12.56 6.80209 12.5631 8.5 12.5631C10.1979 12.5631 10.2475 12.56 10.3742 12.4982C10.5506 12.4146 10.634 12.2445 10.634 11.9817V11.79H12.7804C14.9019 11.79 14.9267 11.79 15.0071 11.8549L15.0874 11.9167V12.6125V13.3083L15.0102 13.3826L14.9359 13.4599H8.5H2.06393L1.98969 13.3826L1.9124 13.3083V12.6125V11.9167L1.99275 11.8549C2.07311 11.79 2.09791 11.79 4.21949 11.79H6.36587V11.9817H6.36602Z" fill="#000000"/>
<path d="M3.92188 6.594V9.99609H8.49917H13.0765V6.594V3.19191H8.49917H3.92188V6.594ZM12.1486 6.594V9.06824H8.49917H4.84973V6.594V4.11977H8.49917H12.1486V6.594Z" fill="#000000"/>
<path d="M5.90234 5.72797V6.19189H8.50025H11.0982V5.72797V5.26404H8.50025H5.90234V5.72797Z" fill="#000000"/>
<path d="M5.93359 7.64593V8.10986H7.26354H8.59349V7.64593V7.18201H7.26354H5.93359V7.64593Z" fill="#000000"/>
</svg>
