<svg width="17" height="16" viewBox="0 0 17 16" fill="none" xmlns="http://www.w3.org/2000/svg">
<g clip-path="url(#clip0_3115_81342)">
<path d="M15.36 1.75293H1.64005C1.28656 1.75293 1 2.0198 1 2.34901V11.302C1 11.6312 1.28656 11.898 1.64005 11.898H15.36C15.7134 11.898 16 11.6312 16 11.302V2.34901C16 2.0198 15.7134 1.75293 15.36 1.75293Z" stroke="#000000"/>
<path d="M1 9.96826H16" stroke="#000000"/>
<path d="M5.66406 14.2528C6.12566 14.0517 6.49369 13.7021 6.70039 13.2683C6.90708 12.8345 6.93852 12.3458 6.7889 11.8921" stroke="#000000"/>
<path d="M11.619 14.2528C11.157 14.0522 10.7885 13.7026 10.5818 13.2687C10.375 12.8347 10.3439 12.3457 10.4942 11.8921" stroke="#000000"/>
<path d="M3.90625 14.2529H13.0951" stroke="#000000" stroke-linecap="round"/>
<path d="M3.68359 4.21978L4.60248 4.81881L5.73999 3.32861" stroke="#000000"/>
<path d="M3.55078 7.11189L4.4665 7.70797L5.60401 6.21777" stroke="#000000"/>
<path d="M7.42188 4.30859H14.0188" stroke="#000000"/>
<path d="M7.42188 7.31201H14.0188" stroke="#000000"/>
</g>
<defs>
<clipPath id="clip0_3115_81342">
<rect width="16" height="16" fill="white" transform="translate(0.496094)"/>
</clipPath>
</defs>
</svg>
