<svg width="32" height="32" viewBox="0 0 32 32" fill="none" xmlns="http://www.w3.org/2000/svg">
<rect width="32" height="32" rx="16" fill="#F3EDFD"/>
<path d="M9.59833 22.4017C8.5 21.3033 8.5 19.535 8.5 16C8.5 12.465 8.5 10.6967 9.59833 9.59833C10.6967 8.5 12.465 8.5 16 8.5C19.535 8.5 21.3033 8.5 22.4017 9.59833C23.5 10.6967 23.5 12.465 23.5 16C23.5 19.535 23.5 21.3033 22.4017 22.4017C21.3033 23.5 19.535 23.5 16 23.5C12.465 23.5 10.6967 23.5 9.59833 22.4017Z" stroke="#22084B" stroke-width="1.6" stroke-linecap="round" stroke-linejoin="round"/>
<path d="M11.8359 17.6693L14.1634 15.3418C14.3197 15.1855 14.5316 15.0978 14.7526 15.0978C14.9736 15.0978 15.1855 15.1855 15.3418 15.3418L16.6634 16.6634C16.8197 16.8197 17.0316 16.9074 17.2526 16.9074C17.4736 16.9074 17.6855 16.8197 17.8418 16.6634L20.1693 14.3359" stroke="#22084B" stroke-width="1.6" stroke-linecap="round" stroke-linejoin="round"/>
</svg>
