<svg width="21" height="20" viewBox="0 0 21 20" fill="none" xmlns="http://www.w3.org/2000/svg">
<path d="M2.1123 10.0007C2.1123 6.85815 2.1123 5.28648 3.08897 4.31065C4.06564 3.33482 5.63647 3.33398 8.77897 3.33398H12.1123C15.2548 3.33398 16.8265 3.33398 17.8023 4.31065C18.7781 5.28732 18.779 6.85815 18.779 10.0007V11.6673C18.779 14.8098 18.779 16.3815 17.8023 17.3573C16.8256 18.3331 15.2548 18.334 12.1123 18.334H8.77897C5.63647 18.334 4.0648 18.334 3.08897 17.3573C2.11314 16.3806 2.1123 14.8098 2.1123 11.6673V10.0007Z" stroke="#1A1A1A" stroke-width="1.5"/>
<path d="M6.2793 3.33398V2.08398M14.6126 3.33398V2.08398M2.5293 7.50065H18.3626" stroke="#1A1A1A" stroke-width="1.5" stroke-linecap="round"/>
<path d="M15.4453 14.1667C15.4453 14.3877 15.3575 14.5996 15.2012 14.7559C15.045 14.9122 14.833 15 14.612 15C14.391 15 14.179 14.9122 14.0227 14.7559C13.8664 14.5996 13.7786 14.3877 13.7786 14.1667C13.7786 13.9457 13.8664 13.7337 14.0227 13.5774C14.179 13.4211 14.391 13.3333 14.612 13.3333C14.833 13.3333 15.045 13.4211 15.2012 13.5774C15.3575 13.7337 15.4453 13.9457 15.4453 14.1667ZM15.4453 10.8333C15.4453 11.0543 15.3575 11.2663 15.2012 11.4226C15.045 11.5789 14.833 11.6667 14.612 11.6667C14.391 11.6667 14.179 11.5789 14.0227 11.4226C13.8664 11.2663 13.7786 11.0543 13.7786 10.8333C13.7786 10.6123 13.8664 10.4004 14.0227 10.2441C14.179 10.0878 14.391 10 14.612 10C14.833 10 15.045 10.0878 15.2012 10.2441C15.3575 10.4004 15.4453 10.6123 15.4453 10.8333ZM11.2786 14.1667C11.2786 14.3877 11.1908 14.5996 11.0346 14.7559C10.8783 14.9122 10.6663 15 10.4453 15C10.2243 15 10.0123 14.9122 9.85606 14.7559C9.69978 14.5996 9.61198 14.3877 9.61198 14.1667C9.61198 13.9457 9.69978 13.7337 9.85606 13.5774C10.0123 13.4211 10.2243 13.3333 10.4453 13.3333C10.6663 13.3333 10.8783 13.4211 11.0346 13.5774C11.1908 13.7337 11.2786 13.9457 11.2786 14.1667ZM11.2786 10.8333C11.2786 11.0543 11.1908 11.2663 11.0346 11.4226C10.8783 11.5789 10.6663 11.6667 10.4453 11.6667C10.2243 11.6667 10.0123 11.5789 9.85606 11.4226C9.69978 11.2663 9.61198 11.0543 9.61198 10.8333C9.61198 10.6123 9.69978 10.4004 9.85606 10.2441C10.0123 10.0878 10.2243 10 10.4453 10C10.6663 10 10.8783 10.0878 11.0346 10.2441C11.1908 10.4004 11.2786 10.6123 11.2786 10.8333ZM7.11198 14.1667C7.11198 14.3877 7.02418 14.5996 6.8679 14.7559C6.71162 14.9122 6.49966 15 6.27865 15C6.05763 15 5.84567 14.9122 5.68939 14.7559C5.53311 14.5996 5.44531 14.3877 5.44531 14.1667C5.44531 13.9457 5.53311 13.7337 5.68939 13.5774C5.84567 13.4211 6.05763 13.3333 6.27865 13.3333C6.49966 13.3333 6.71162 13.4211 6.8679 13.5774C7.02418 13.7337 7.11198 13.9457 7.11198 14.1667ZM7.11198 10.8333C7.11198 11.0543 7.02418 11.2663 6.8679 11.4226C6.71162 11.5789 6.49966 11.6667 6.27865 11.6667C6.05763 11.6667 5.84567 11.5789 5.68939 11.4226C5.53311 11.2663 5.44531 11.0543 5.44531 10.8333C5.44531 10.6123 5.53311 10.4004 5.68939 10.2441C5.84567 10.0878 6.05763 10 6.27865 10C6.49966 10 6.71162 10.0878 6.8679 10.2441C7.02418 10.4004 7.11198 10.6123 7.11198 10.8333Z" fill="#1A1A1A"/>
</svg>
