<svg width="20" height="20" viewBox="0 0 20 20" fill="none" xmlns="http://www.w3.org/2000/svg">
<path d="M6.46484 13.2357L7.31257 14.1257L9.43152 11.9007M6.46484 8.04399L7.31257 8.93399L9.43152 6.70898" stroke="#1A1A1A" stroke-width="1.5" stroke-linecap="round" stroke-linejoin="round"/>
<path d="M11.6584 8.19168H15.3667M11.6584 13.3834H15.3667M18.3334 10.4167C18.3334 13.9129 18.3334 15.661 17.2468 16.7468C16.1618 17.8334 14.4129 17.8334 10.9167 17.8334C7.42046 17.8334 5.67235 17.8334 4.5858 16.7468C3.5 15.6618 3.5 13.9129 3.5 10.4167C3.5 6.92046 3.5 5.17235 4.5858 4.0858C5.67309 3 7.42046 3 10.9167 3C14.4129 3 16.161 3 17.2468 4.0858C17.9692 4.80819 18.211 5.82353 18.2926 7.45001" stroke="#1A1A1A" stroke-width="1.5" stroke-linecap="round"/>
</svg>
