<svg width="21" height="20" viewBox="0 0 21 20" fill="none" xmlns="http://www.w3.org/2000/svg">
<path d="M6.4082 7.5C6.45071 7.50033 6.49151 7.50812 6.52734 7.52148C6.56309 7.53484 6.59103 7.55305 6.61133 7.57129L6.61816 7.57617L10.3359 10.8037L10.6631 11.0889L10.9912 10.8037L14.7021 7.58105L14.7031 7.58203C14.7476 7.54495 14.8199 7.51497 14.9062 7.51562C14.9927 7.51634 15.0636 7.54777 15.1064 7.58496C15.1468 7.62004 15.154 7.65129 15.1543 7.66699C15.1544 7.68217 15.1477 7.71167 15.1104 7.74609L10.8672 11.4316C10.8238 11.4693 10.7507 11.5 10.6631 11.5C10.5757 11.4999 10.5033 11.4693 10.46 11.4316L6.21094 7.74316L6.20508 7.7373L6.16309 7.6875C6.15628 7.6737 6.15439 7.66171 6.1543 7.65234C6.15424 7.64302 6.15581 7.63155 6.16211 7.61816C6.16865 7.60429 6.18121 7.58654 6.20215 7.56836C6.22318 7.55014 6.25186 7.53241 6.28809 7.51953C6.32447 7.50661 6.36567 7.49968 6.4082 7.5Z" fill="black" stroke="white"/>
</svg>
