<svg width="32" height="32" viewBox="0 0 32 32" fill="none" xmlns="http://www.w3.org/2000/svg">
<rect width="32" height="32" rx="16" fill="#F3EDFD"/>
<path d="M15.9993 24.3307C14.8466 24.3307 13.7632 24.1118 12.7494 23.6741C11.7355 23.2363 10.8535 22.6427 10.1035 21.8932C9.35352 21.1438 8.75991 20.2618 8.32268 19.2474C7.88546 18.233 7.66657 17.1496 7.66602 15.9974C7.66546 14.8452 7.88435 13.7618 8.32268 12.7474C8.76102 11.733 9.35463 10.851 10.1035 10.1016C10.8524 9.35212 11.7344 8.75851 12.7494 8.32073C13.7644 7.88295 14.8477 7.66406 15.9993 7.66406C16.2355 7.66406 16.4335 7.74406 16.5935 7.90406C16.7535 8.06406 16.8332 8.26184 16.8327 8.4974V14.5599C17.0827 14.7127 17.2841 14.9107 17.4368 15.1541C17.5896 15.3974 17.666 15.6785 17.666 15.9974C17.666 16.4557 17.503 16.8482 17.1768 17.1749C16.8507 17.5016 16.4582 17.6646 15.9993 17.6641C15.5405 17.6635 15.1482 17.5005 14.8227 17.1749C14.4971 16.8493 14.3338 16.4568 14.3327 15.9974C14.3327 15.678 14.4091 15.3932 14.5618 15.1432C14.7146 14.8932 14.916 14.6988 15.166 14.5599V12.7682C14.4438 12.9627 13.8466 13.3552 13.3744 13.9457C12.9021 14.5363 12.666 15.2202 12.666 15.9974C12.666 16.9141 12.9924 17.6988 13.6452 18.3516C14.298 19.0043 15.0827 19.3307 15.9993 19.3307C16.916 19.3307 17.7007 19.0043 18.3535 18.3516C19.0063 17.6988 19.3327 16.9141 19.3327 15.9974C19.3327 15.6363 19.2807 15.303 19.1768 14.9974C19.073 14.6918 18.9305 14.4002 18.7493 14.1224C18.6105 13.928 18.548 13.7127 18.5618 13.4766C18.5757 13.2405 18.6591 13.046 18.8118 12.8932C18.9785 12.7266 19.1766 12.6432 19.406 12.6432C19.6355 12.6432 19.8193 12.7405 19.9577 12.9349C20.2771 13.3655 20.5307 13.8377 20.7185 14.3516C20.9063 14.8655 20.9999 15.4141 20.9994 15.9974C20.9994 17.3863 20.5132 18.5668 19.541 19.5391C18.5688 20.5113 17.3882 20.9974 15.9993 20.9974C14.6105 20.9974 13.4299 20.5113 12.4577 19.5391C11.4855 18.5668 10.9994 17.3863 10.9994 15.9974C10.9994 14.7474 11.3952 13.6607 12.1869 12.7374C12.9785 11.8141 13.9716 11.2549 15.166 11.0599V9.3724C13.5132 9.58073 12.1277 10.3099 11.0094 11.5599C9.89102 12.8099 9.33213 14.2891 9.33268 15.9974C9.33268 17.8585 9.97852 19.4349 11.2702 20.7266C12.5619 22.0182 14.1382 22.6641 15.9993 22.6641C17.8605 22.6641 19.4368 22.0182 20.7285 20.7266C22.0202 19.4349 22.666 17.8585 22.666 15.9974C22.666 15.1918 22.5341 14.4313 22.2702 13.7157C22.0063 13.0002 21.6313 12.351 21.1452 11.7682C20.9924 11.5877 20.916 11.3793 20.916 11.1432C20.916 10.9071 20.9994 10.7057 21.166 10.5391C21.3327 10.3724 21.5307 10.2927 21.7602 10.2999C21.9896 10.3071 22.1805 10.4007 22.3327 10.5807C22.9577 11.3168 23.4474 12.1432 23.8019 13.0599C24.1563 13.9766 24.3332 14.9557 24.3327 15.9974C24.3327 17.1502 24.1138 18.2335 23.676 19.2474C23.2382 20.2613 22.6446 21.1432 21.8952 21.8932C21.1457 22.6432 20.2638 23.2371 19.2493 23.6749C18.2349 24.1127 17.1516 24.3313 15.9993 24.3307Z" fill="#22084B"/>
</svg>
