<svg width="32" height="32" viewBox="0 0 32 32" fill="none" xmlns="http://www.w3.org/2000/svg">
<rect width="32" height="32" rx="16" fill="#F3EDFD"/>
<g clip-path="url(#clip0_1767_34655)">
<path d="M16.416 7.04102C16.416 6.87526 16.3502 6.71628 16.233 6.59907C16.1157 6.48186 15.9568 6.41602 15.791 6.41602C15.6253 6.41602 15.4663 6.48186 15.3491 6.59907C15.2319 6.71628 15.166 6.87526 15.166 7.04102V14.2827L11.3718 10.4868C11.3142 10.4271 11.2453 10.3795 11.169 10.3467C11.0928 10.3139 11.0108 10.2966 10.9278 10.2959C10.8448 10.2951 10.7625 10.3109 10.6857 10.3423C10.6089 10.3737 10.5391 10.42 10.4804 10.4787C10.4216 10.5373 10.3752 10.6071 10.3437 10.6839C10.3123 10.7607 10.2964 10.843 10.2971 10.926C10.2978 11.009 10.315 11.091 10.3477 11.1672C10.3804 11.2435 10.428 11.3125 10.4877 11.3702L14.2827 15.166H7.04102C6.87526 15.166 6.71628 15.2319 6.59907 15.3491C6.48186 15.4663 6.41602 15.6253 6.41602 15.791C6.41602 15.9568 6.48186 16.1157 6.59907 16.233C6.71628 16.3502 6.87526 16.416 7.04102 16.416H14.2827L10.4877 20.2102C10.3738 20.328 10.3107 20.4859 10.3121 20.6497C10.3134 20.8136 10.3791 20.9704 10.4949 21.0863C10.6107 21.2023 10.7674 21.2681 10.9313 21.2696C11.0952 21.2711 11.2531 21.2081 11.371 21.0943L15.166 17.3002V24.541C15.166 24.7068 15.2319 24.8657 15.3491 24.983C15.4663 25.1002 15.6253 25.166 15.791 25.166C15.9568 25.166 16.1157 25.1002 16.233 24.983C16.3502 24.8657 16.416 24.7068 16.416 24.541V17.2993L20.2102 21.0943C20.328 21.2083 20.4859 21.2713 20.6497 21.27C20.8136 21.2686 20.9704 21.203 21.0863 21.0872C21.2023 20.9713 21.2681 20.8146 21.2696 20.6507C21.2711 20.4869 21.2081 20.3289 21.0943 20.211L17.3002 16.416H24.541C24.7068 16.416 24.8657 16.3502 24.983 16.233C25.1002 16.1157 25.166 15.9568 25.166 15.791C25.166 15.6253 25.1002 15.4663 24.983 15.3491C24.8657 15.2319 24.7068 15.166 24.541 15.166H17.2993L21.0943 11.3718C21.1541 11.3142 21.2017 11.2453 21.2345 11.169C21.2673 11.0928 21.2846 11.0108 21.2853 10.9278C21.2861 10.8448 21.2703 10.7625 21.2389 10.6857C21.2075 10.6089 21.1612 10.5391 21.1025 10.4804C21.0439 10.4216 20.9741 10.3752 20.8973 10.3437C20.8205 10.3123 20.7382 10.2964 20.6552 10.2971C20.5722 10.2978 20.4902 10.315 20.414 10.3477C20.3377 10.3804 20.2687 10.428 20.211 10.4877L16.416 14.2818V7.04102Z" fill="#22084B"/>
</g>
<defs>
<clipPath id="clip0_1767_34655">
<rect width="20" height="20" fill="white" transform="translate(6 6)"/>
</clipPath>
</defs>
</svg>
