<svg width="32" height="32" viewBox="0 0 32 32" fill="none" xmlns="http://www.w3.org/2000/svg">
<rect width="32" height="32" rx="16" fill="#F3EDFD"/>
<path d="M18.75 24.2491H13.25M18.75 24.2491V16.5491C18.75 16.4033 18.6921 16.2634 18.5889 16.1602C18.4858 16.0571 18.3459 15.9991 18.2 15.9991H13.8C13.6541 15.9991 13.5142 16.0571 13.4111 16.1602C13.3079 16.2634 13.25 16.4033 13.25 16.5491V24.2491M18.75 24.2491H23.7C23.8459 24.2491 23.9858 24.1912 24.0889 24.088C24.1921 23.9849 24.25 23.845 24.25 23.6991V21.5908C24.25 21.4449 24.1921 21.305 24.0889 21.2019C23.9858 21.0987 23.8459 21.0408 23.7 21.0408H19.3C19.1541 21.0408 19.0142 21.0987 18.9111 21.2019C18.8079 21.305 18.75 21.4449 18.75 21.5908V24.2491ZM13.25 24.2491V19.7575C13.25 19.6116 13.1921 19.4717 13.0889 19.3685C12.9858 19.2654 12.8459 19.2075 12.7 19.2075H8.3C8.15413 19.2075 8.01424 19.2654 7.91109 19.3685C7.80795 19.4717 7.75 19.6116 7.75 19.7575V23.6991C7.75 23.845 7.80795 23.9849 7.91109 24.088C8.01424 24.1912 8.15413 24.2491 8.3 24.2491H13.25ZM14.9055 9.68604L15.7388 7.91962C15.7612 7.86912 15.7979 7.82623 15.8443 7.79612C15.8906 7.76602 15.9447 7.75 16 7.75C16.0553 7.75 16.1094 7.76602 16.1557 7.79612C16.2021 7.82623 16.2388 7.86912 16.2613 7.91962L17.0954 9.68604L18.9581 9.97112C19.1973 10.0078 19.2927 10.3158 19.1194 10.4918L17.7719 11.8668L18.09 13.8083C18.1303 14.0576 17.881 14.2483 17.6665 14.13L16 13.2134L14.3335 14.13C14.1199 14.2474 13.8697 14.0576 13.91 13.8083L14.2281 11.8668L12.8806 10.4918C12.7064 10.3158 12.8027 10.0078 13.041 9.97112L14.9055 9.68604Z" stroke="#22084B" stroke-width="1.2" stroke-linecap="round" stroke-linejoin="round"/>
</svg>
