<svg width="20" height="20" viewBox="0 0 20 20" fill="none" xmlns="http://www.w3.org/2000/svg">
<path d="M13.0821 4.00195C14.7133 4.01095 15.5968 4.0837 16.1728 4.65971C16.8321 5.31896 16.8321 6.37946 16.8321 8.50046V13.0005C16.8321 15.1222 16.8321 16.1827 16.1728 16.842C15.5143 17.5005 14.4531 17.5005 12.3321 17.5005H7.83204C5.71104 17.5005 4.64978 17.5005 3.99128 16.842C3.33203 16.182 3.33203 15.1222 3.33203 13.0005V8.50046C3.33203 6.37946 3.33203 5.31896 3.99128 4.65971C4.56728 4.0837 5.45079 4.01095 7.08204 4.00195" stroke="#22084B" stroke-width="1.4"/>
<path d="M8.95704 11.5H13.832M6.33203 11.5H6.70703M6.33203 8.875H6.70703M6.33203 14.125H6.70703M8.95704 8.875H13.832M8.95704 14.125H13.832" stroke="#22084B" stroke-width="1.4" stroke-linecap="round"/>
<path d="M7.08203 3.625C7.08203 3.32663 7.20056 3.04048 7.41154 2.82951C7.62252 2.61853 7.90866 2.5 8.20703 2.5H11.957C12.2554 2.5 12.5416 2.61853 12.7525 2.82951C12.9635 3.04048 13.082 3.32663 13.082 3.625V4.375C13.082 4.67337 12.9635 4.95952 12.7525 5.1705C12.5416 5.38148 12.2554 5.50001 11.957 5.50001H8.20703C7.90866 5.50001 7.62252 5.38148 7.41154 5.1705C7.20056 4.95952 7.08203 4.67337 7.08203 4.375V3.625Z" stroke="#22084B" stroke-width="1.4"/>
</svg>
