<svg width="20" height="20" viewBox="0 0 20 20" fill="none" xmlns="http://www.w3.org/2000/svg">
<path d="M3.33203 4.16732C3.33203 3.9463 3.41983 3.73434 3.57611 3.57806C3.73239 3.42178 3.94435 3.33398 4.16536 3.33398L15.832 3.33398C16.053 3.33398 16.265 3.42178 16.4213 3.57806C16.5776 3.73434 16.6654 3.9463 16.6654 4.16732V5.83398C16.6654 6.055 16.5776 6.26696 16.4213 6.42324C16.265 6.57952 16.053 6.66732 15.832 6.66732L4.16536 6.66732C3.94435 6.66732 3.73239 6.57952 3.57611 6.42324C3.41983 6.26696 3.33203 6.055 3.33203 5.83398L3.33203 4.16732ZM3.33203 10.834C3.33203 10.613 3.41983 10.401 3.57611 10.2447C3.73239 10.0884 3.94435 10.0007 4.16536 10.0007H9.16536C9.38638 10.0007 9.59834 10.0884 9.75462 10.2447C9.9109 10.401 9.9987 10.613 9.9987 10.834L9.9987 15.834C9.9987 16.055 9.9109 16.267 9.75462 16.4232C9.59834 16.5795 9.38638 16.6673 9.16536 16.6673H4.16536C3.94435 16.6673 3.73239 16.5795 3.57611 16.4232C3.41983 16.267 3.33203 16.055 3.33203 15.834L3.33203 10.834ZM13.332 10.834C13.332 10.613 13.4198 10.401 13.5761 10.2447C13.7324 10.0884 13.9444 10.0007 14.1654 10.0007L15.832 10.0007C16.053 10.0007 16.265 10.0884 16.4213 10.2447C16.5776 10.401 16.6654 10.613 16.6654 10.834V15.834C16.6654 16.055 16.5776 16.267 16.4213 16.4232C16.265 16.5795 16.053 16.6673 15.832 16.6673H14.1654C13.9444 16.6673 13.7324 16.5795 13.5761 16.4232C13.4198 16.267 13.332 16.055 13.332 15.834V10.834Z" stroke="#1A1A1A" stroke-width="1.5" stroke-linecap="round" stroke-linejoin="round"/>
</svg>
