<svg width="16" height="16" viewBox="0 0 16 16" fill="none" xmlns="http://www.w3.org/2000/svg">
<g clip-path="url(#clip0_1350_33478)">
<path d="M11.9993 6.66797H8.66602" stroke="#1A1A1A" stroke-width="1.2" stroke-linecap="round"/>
<path d="M1.33301 4.63398C1.33301 4.04532 1.33301 3.75132 1.37967 3.50598C1.47916 2.97921 1.7351 2.49465 2.11411 2.11552C2.49312 1.73639 2.9776 1.4803 3.50434 1.38065C3.75034 1.33398 4.04501 1.33398 4.63301 1.33398C4.89034 1.33398 5.01967 1.33398 5.14367 1.34532C5.6777 1.39547 6.1842 1.6055 6.59701 1.94798C6.69301 2.02732 6.78367 2.11798 6.96634 2.30065L7.33301 2.66732C7.87701 3.21132 8.14901 3.48332 8.47434 3.66398C8.65315 3.76365 8.84285 3.84239 9.03967 3.89865C9.39834 4.00065 9.78301 4.00065 10.5517 4.00065H10.801C12.5557 4.00065 13.4337 4.00065 14.0037 4.51398C14.0566 4.56065 14.1063 4.61043 14.153 4.66332C14.6663 5.23332 14.6663 6.11132 14.6663 7.86598V9.33398C14.6663 11.848 14.6663 13.1053 13.885 13.886C13.1037 14.6666 11.847 14.6673 9.33301 14.6673H6.66634C4.15234 14.6673 2.89501 14.6673 2.11434 13.886C1.33367 13.1046 1.33301 11.848 1.33301 9.33398V4.63398Z" stroke="#1A1A1A" stroke-width="1.2"/>
</g>
<defs>
<clipPath id="clip0_1350_33478">
<rect width="16" height="16" fill="white"/>
</clipPath>
</defs>
</svg>
