<svg width="17" height="16" viewBox="0 0 17 16" fill="none" xmlns="http://www.w3.org/2000/svg">
<path d="M14.6919 9.33268C14.6919 11.8467 14.6919 13.104 13.9106 13.8847C13.1292 14.6653 11.8726 14.666 9.35856 14.666H8.02523C5.51123 14.666 4.25389 14.666 3.47323 13.8847C2.69256 13.1033 2.69189 11.8467 2.69189 9.33268L2.69189 6.66602C2.69189 4.15202 2.69189 2.89468 3.47323 2.11402C4.25456 1.33335 5.51123 1.33268 8.02523 1.33268H9.35856C11.8726 1.33268 13.1299 1.33268 13.9106 2.11402C14.6912 2.89535 14.6919 4.15202 14.6919 6.66602L14.6919 9.33268Z" stroke="#1A1A1A" stroke-width="1.2"/>
<path d="M11.3584 7.99935L6.02507 7.99935M11.3584 10.666L6.02507 10.666M11.3584 5.33268L8.02507 5.33268" stroke="#1A1A1A" stroke-width="1.2" stroke-linecap="round"/>
</svg>
