<svg width="32" height="32" viewBox="0 0 32 32" fill="none" xmlns="http://www.w3.org/2000/svg">
<rect width="32" height="32" rx="16" fill="#F3EDFD"/>
<path d="M10.1485 14.0715C8.49352 13.4098 7.66602 13.079 7.66602 12.6673C7.66602 12.2557 8.49352 11.9257 10.1485 11.2632L12.4885 10.3273C14.1435 9.66482 14.9718 9.33398 15.9993 9.33398C17.0268 9.33398 17.8552 9.66482 19.5102 10.3273L21.8502 11.2632C23.5052 11.9248 24.3327 12.2557 24.3327 12.6673C24.3327 13.079 23.5052 13.409 21.8502 14.0715L19.5102 15.0082C17.8552 15.6698 17.0268 16.0007 15.9993 16.0007C14.9718 16.0007 14.1435 15.6698 12.4885 15.0082L10.1485 14.0715Z" stroke="#22084B" stroke-width="1.2"/>
<path d="M10.8043 14.334L10.1485 14.5965C8.49352 15.2582 7.66602 15.5898 7.66602 16.0007C7.66602 16.4115 8.49352 16.7423 10.1485 17.4048L12.4885 18.3415C14.1435 19.0032 14.9718 19.334 15.9993 19.334C17.0268 19.334 17.8552 19.0032 19.5102 18.3415L21.8502 17.4048C23.5052 16.7432 24.3327 16.4115 24.3327 16.0007C24.3327 15.5898 23.5052 15.259 21.8502 14.5965L21.1943 14.334" stroke="#22084B" stroke-width="1.2"/>
<path d="M10.8043 17.668L10.1485 17.9305C8.49352 18.5921 7.66602 18.9238 7.66602 19.3346C7.66602 19.7455 8.49352 20.0763 10.1485 20.7388L12.4885 21.6755C14.1435 22.3371 14.9718 22.668 15.9993 22.668C17.0268 22.668 17.8552 22.3371 19.5102 21.6746L21.8502 20.7388C23.5052 20.0771 24.3327 19.7463 24.3327 19.3346C24.3327 18.9238 23.5052 18.593 21.8502 17.9305L21.1943 17.668" stroke="#22084B" stroke-width="1.2"/>
</svg>
