<svg width="20" height="20" viewBox="0 0 20 20" fill="none" xmlns="http://www.w3.org/2000/svg">
<path d="M10 16.6664H17.5M13.6467 3.01811C13.9784 2.68637 14.4284 2.5 14.8975 2.5C15.3667 2.5 15.8166 2.68637 16.1483 3.01811C16.4801 3.34985 16.6665 3.79979 16.6665 4.26895C16.6665 4.7381 16.4801 5.18804 16.1483 5.51978L6.14001 15.5289C5.94175 15.7272 5.69669 15.8722 5.42751 15.9506L3.03417 16.6489C2.96247 16.6699 2.88646 16.6711 2.8141 16.6526C2.74174 16.634 2.6757 16.5964 2.62288 16.5436C2.57006 16.4908 2.53241 16.4247 2.51388 16.3524C2.49534 16.28 2.49659 16.204 2.51751 16.1323L3.21584 13.7389C3.29436 13.4701 3.43938 13.2253 3.63751 13.0273L13.6467 3.01811Z" stroke="#22084B" stroke-width="1.4" stroke-linecap="round" stroke-linejoin="round"/>
</svg>
