<svg width="20" height="20" viewBox="0 0 20 20" fill="none" xmlns="http://www.w3.org/2000/svg">
<path d="M8.33337 9.9987C8.33337 10.4407 8.50897 10.8646 8.82153 11.1772C9.13409 11.4898 9.55801 11.6654 10 11.6654C10.4421 11.6654 10.866 11.4898 11.1786 11.1772C11.4911 10.8646 11.6667 10.4407 11.6667 9.9987C11.6667 9.55667 11.4911 9.13275 11.1786 8.82019C10.866 8.50763 10.4421 8.33203 10 8.33203C9.55801 8.33203 9.13409 8.50763 8.82153 8.82019C8.50897 9.13275 8.33337 9.55667 8.33337 9.9987Z" fill="#1A1A1A" stroke="#1A1A1A" stroke-width="1.4" stroke-linecap="round" stroke-linejoin="round"/>
<path d="M17.5 10C15.5 13.3333 13 15 10 15C7 15 4.5 13.3333 2.5 10C4.5 6.66667 7 5 10 5C13 5 15.5 6.66667 17.5 10Z" stroke="#1A1A1A" stroke-width="1.4" stroke-linecap="round" stroke-linejoin="round"/>
</svg>
