<svg width="38" height="38" viewBox="0 0 38 38" fill="none" xmlns="http://www.w3.org/2000/svg">
<rect width="38" height="38" rx="19" fill="white"/>
<path d="M26.8646 18.7184L19.2063 26.3767C18.2681 27.3149 16.9956 27.842 15.6688 27.842C14.342 27.842 13.0695 27.3149 12.1313 26.3767C11.1931 25.4385 10.666 24.166 10.666 22.8392C10.666 21.5124 11.1931 20.2399 12.1313 19.3017L19.7896 11.6434C20.4151 11.0179 21.2634 10.6665 22.148 10.6665C23.0325 10.6665 23.8808 11.0179 24.5063 11.6434C25.1318 12.2688 25.4831 13.1171 25.4831 14.0017C25.4831 14.8862 25.1318 15.7346 24.5063 16.36L16.8396 24.0184C16.6848 24.1732 16.5009 24.296 16.2986 24.3798C16.0963 24.4637 15.8795 24.5068 15.6605 24.5068C15.4415 24.5068 15.2246 24.4637 15.0223 24.3798C14.82 24.296 14.6361 24.1732 14.4813 24.0184C14.3264 23.8635 14.2036 23.6797 14.1198 23.4774C14.036 23.275 13.9929 23.0582 13.9929 22.8392C13.9929 22.6202 14.036 22.4034 14.1198 22.201C14.2036 21.9987 14.3264 21.8149 14.4813 21.66L21.5563 14.5934" stroke="#4D4D4D" stroke-width="1.5" stroke-linecap="round" stroke-linejoin="round"/>
</svg>
