<svg width="38" height="38" viewBox="0 0 38 38" fill="none" xmlns="http://www.w3.org/2000/svg">
<rect width="38" height="38" rx="19" fill="#F3EDFD"/>
<path d="M25.6673 26.5C25.6673 24.1992 22.6823 22.3333 19.0007 22.3333C15.319 22.3333 12.334 24.1992 12.334 26.5M19.0007 19.8333C17.8956 19.8333 16.8358 19.3943 16.0544 18.6129C15.273 17.8315 14.834 16.7717 14.834 15.6667C14.834 14.5616 15.273 13.5018 16.0544 12.7204C16.8358 11.939 17.8956 11.5 19.0007 11.5C20.1057 11.5 21.1655 11.939 21.9469 12.7204C22.7283 13.5018 23.1673 14.5616 23.1673 15.6667C23.1673 16.7717 22.7283 17.8315 21.9469 18.6129C21.1655 19.3943 20.1057 19.8333 19.0007 19.8333Z" stroke="#22084B" stroke-width="1.5" stroke-linecap="round" stroke-linejoin="round"/>
</svg>
