<svg width="34" height="34" viewBox="0 0 34 34" fill="none" xmlns="http://www.w3.org/2000/svg">
<rect width="34" height="34" rx="17" fill="#22084B"/>
<path d="M15.0938 18.4053C14.9346 18.2463 14.7448 18.1212 14.5359 18.0376L7.92752 15.3876C7.84862 15.3559 7.78129 15.3009 7.73457 15.2299C7.68785 15.1589 7.66398 15.0752 7.66615 14.9902C7.66833 14.9053 7.69645 14.823 7.74675 14.7544C7.79704 14.6859 7.8671 14.6344 7.94752 14.6068L23.7809 9.19011C23.8547 9.16344 23.9346 9.15835 24.0112 9.17544C24.0879 9.19252 24.158 9.23108 24.2135 9.28659C24.2691 9.3421 24.3076 9.41228 24.3247 9.4889C24.3418 9.56553 24.3367 9.64544 24.31 9.71928L18.8934 25.5526C18.8658 25.633 18.8143 25.7031 18.7457 25.7534C18.6772 25.8037 18.5949 25.8318 18.5099 25.834C18.4249 25.8362 18.3413 25.8123 18.2702 25.7656C18.1992 25.7188 18.1442 25.6515 18.1125 25.5726L15.4625 18.9626C15.3785 18.7539 15.2531 18.5643 15.0938 18.4053ZM15.0938 18.4053L24.2109 9.29011" stroke="#E9F6FC" stroke-width="1.5" stroke-linecap="round" stroke-linejoin="round"/>
</svg>
