<svg width="29" height="28" viewBox="0 0 29 28" fill="none" xmlns="http://www.w3.org/2000/svg">
<rect x="0.554688" width="28" height="28" rx="14" fill="#F3EDFD"/>
<path d="M17.5314 22C17.2263 22 16.9733 21.747 16.9733 21.4419V20.4774C16.433 20.5049 15.8183 20.5101 15.1128 20.5116V21.4419C15.1128 21.747 14.8598 22 14.5547 22C14.2496 22 13.9965 21.747 13.9965 21.4419V20.5116C13.3762 20.5146 12.7559 20.5032 12.1361 20.4774V21.4419C12.1361 21.747 11.8831 22 11.5779 22C11.2728 22 11.0198 21.747 11.0198 21.4419V20.3702C10.1885 20.2378 9.5798 19.9795 9.07748 19.4772C8.57515 18.9749 8.31692 18.3669 8.18371 17.5349H7.11283C6.80771 17.5349 6.55469 17.2819 6.55469 16.9767C6.55469 16.6716 6.80771 16.4186 7.11283 16.4186H8.07655C8.05103 15.7988 8.03986 15.1785 8.04306 14.5581H7.11283C6.80771 14.5581 6.55469 14.3051 6.55469 14C6.55469 13.6949 6.80771 13.4419 7.11283 13.4419H8.04306C8.04455 12.7356 8.0505 12.1217 8.07655 11.5814H7.11283C6.80771 11.5814 6.55469 11.3284 6.55469 11.0233C6.55469 10.7181 6.80771 10.4651 7.11283 10.4651H8.18371C8.31692 9.63312 8.57515 9.02512 9.07748 8.52279C9.5798 8.02046 10.1885 7.76223 11.0198 7.62977V6.55814C11.0198 6.25302 11.2728 6 11.5779 6C11.8831 6 12.1361 6.25302 12.1361 6.55814V7.5226C12.7559 7.49684 13.3762 7.48542 13.9965 7.48837V6.55814C13.9965 6.25302 14.2496 6 14.5547 6C14.8598 6 15.1128 6.25302 15.1128 6.55814V7.48837C15.8183 7.48986 16.433 7.49581 16.9733 7.5226V6.55814C16.9733 6.25302 17.2263 6 17.5314 6C17.8365 6 18.0896 6.25302 18.0896 6.55814V7.62977C18.9208 7.76223 19.5296 8.02046 20.0319 8.52279C20.5342 9.02512 20.7932 9.63312 20.9257 10.4651H21.9965C22.3017 10.4651 22.5547 10.7181 22.5547 11.0233C22.5547 11.3284 22.3017 11.5814 21.9965 11.5814H21.0328C21.0596 12.1217 21.0648 12.7356 21.0663 13.4419H21.9965C22.3017 13.4419 22.5547 13.6949 22.5547 14C22.5547 14.3051 22.3017 14.5581 21.9965 14.5581H21.0663C21.0695 15.1785 21.0583 15.7988 21.0328 16.4186H21.9965C22.3017 16.4186 22.5547 16.6716 22.5547 16.9767C22.5547 17.2819 22.3017 17.5349 21.9965 17.5349H20.9257C20.7932 18.3669 20.5342 18.9749 20.0319 19.4772C19.5296 19.9795 18.9208 20.2378 18.0896 20.3702V21.4419C18.0896 21.747 17.8365 22 17.5314 22ZM14.5547 19.3953C17.204 19.3953 18.5361 19.3953 19.2431 18.6884C19.95 17.9814 19.95 16.6493 19.95 14C19.95 11.3507 19.95 10.0186 19.2431 9.31163C18.5361 8.60465 17.204 8.60465 14.5547 8.60465C11.9054 8.60465 10.5733 8.60465 9.86632 9.31163C9.15934 10.0186 9.15934 11.3507 9.15934 14C9.15934 16.6493 9.15934 17.9814 9.86632 18.6884C10.5733 19.3953 11.9054 19.3953 14.5547 19.3953ZM13.6483 17.2744C13.7897 17.6614 14.1469 17.907 14.5562 17.907C14.9655 17.907 15.3227 17.6614 15.4641 17.2744L16.0594 15.667C16.0818 15.5926 16.1413 15.5405 16.2157 15.5107L17.8232 14.9153C18.2101 14.774 18.4557 14.4167 18.4557 14.0074C18.4557 13.5981 18.2101 13.2409 17.8232 13.0995L16.2157 12.5042C16.1795 12.4917 16.1467 12.4711 16.1196 12.444C16.0925 12.4169 16.072 12.3841 16.0594 12.3479L15.4641 10.7405C15.3227 10.3535 14.9655 10.1079 14.5562 10.1079C14.1469 10.1079 13.7897 10.3535 13.6483 10.7405L13.0529 12.3479C13.0306 12.4223 12.9711 12.4744 12.8966 12.5042L11.2892 13.0995C10.9022 13.2409 10.6566 13.5981 10.6566 14.0074C10.6566 14.4167 10.9022 14.774 11.2892 14.9153L12.8966 15.5107C12.9711 15.533 13.0232 15.5926 13.0529 15.667L13.6483 17.2744ZM13.2836 14.4614L12.0408 14L13.2836 13.5386C13.6632 13.3972 13.9608 13.0995 14.1022 12.72L14.5636 11.4772L15.025 12.72C15.1664 13.0995 15.4641 13.3972 15.8436 13.5386L17.0864 14L15.8436 14.4614C15.4641 14.6028 15.1664 14.9005 15.025 15.28L14.5636 16.5228L14.1022 15.28C13.9608 14.9005 13.6632 14.6028 13.2836 14.4614Z" fill="#22084B"/>
</svg>
