<svg width="25" height="24" viewBox="0 0 25 24" fill="none" xmlns="http://www.w3.org/2000/svg">
<path d="M18.5508 14.5C18.5177 14.4997 18.4844 14.496 18.4521 14.4893L18.3574 14.459C18.3269 14.4459 18.2977 14.4299 18.2705 14.4111L18.1953 14.3477L12.8857 9.03809L12.5322 9.3916L7.58789 14.335C7.49359 14.426 7.36741 14.4767 7.23633 14.4756C7.13785 14.4747 7.04252 14.4447 6.96191 14.3906L6.88672 14.3291C6.7941 14.2364 6.74137 14.1105 6.74023 13.9795C6.73917 13.8487 6.79017 13.7231 6.88086 13.6289L12.5322 7.97754C12.626 7.88384 12.7532 7.83105 12.8857 7.83105C12.9852 7.83112 13.0816 7.86062 13.1631 7.91504L13.2393 7.97754L18.8955 13.6338L19.2412 13.2881L18.8955 13.6348L18.9023 13.6406L18.9658 13.7158L19.0137 13.8027C19.0268 13.8333 19.0371 13.865 19.0439 13.8975L19.0547 13.9961C19.0549 14.0293 19.0521 14.0623 19.0459 14.0947L19.0176 14.1895C18.9924 14.2509 18.9551 14.3066 18.9082 14.3535C18.8849 14.3769 18.8594 14.3978 18.832 14.416L18.7441 14.4629C18.7135 14.4754 18.6817 14.485 18.6494 14.4912L18.5508 14.5Z" fill="#22084B" stroke="#22084B"/>
</svg>
