<svg width="25" height="24" viewBox="0 0 25 24" fill="none" xmlns="http://www.w3.org/2000/svg">
<path d="M18.6572 9.15527L18.71 9.10254C18.6926 9.11514 18.6757 9.12793 18.6602 9.14258L13.0596 14.7412L13.0537 14.7461L13.0479 14.752L7.45703 9.1582L7.37891 9.09473C7.35078 9.07604 7.32075 9.05983 7.28906 9.04687L7.19141 9.01758C7.15781 9.01098 7.12335 9.00781 7.08887 9.00781C7.02012 9.00783 6.95183 9.02104 6.88867 9.04687L6.79883 9.09473C6.77095 9.11326 6.74521 9.13462 6.72168 9.1582L6.71484 9.16504L6.64941 9.24316C6.59292 9.32708 6.56257 9.42538 6.5625 9.52637C6.5625 9.66115 6.61714 9.79099 6.71484 9.88867L12.6553 15.8291L12.7402 15.8984C12.7705 15.9184 12.8029 15.9353 12.8369 15.9492C12.9056 15.9773 12.98 15.9922 13.0547 15.9922C13.1294 15.9922 13.2038 15.9773 13.2725 15.9492C13.3409 15.9212 13.4027 15.8805 13.4541 15.8291L19.3945 9.88867L19.46 9.81055C19.5166 9.72649 19.5469 9.62755 19.5469 9.52637C19.5468 9.392 19.4927 9.26256 19.3955 9.16504H19.3945L19.3877 9.1582L19.3105 9.09473C19.2824 9.07603 19.2524 9.05985 19.2207 9.04688L19.1221 9.01758C19.0887 9.01108 19.0547 9.00782 19.0205 9.00781C18.9517 9.00781 18.8835 9.02104 18.8203 9.04688L18.7305 9.09473C18.7039 9.11235 18.6798 9.13306 18.6572 9.15527ZM18.6572 9.15527C18.656 9.15648 18.6536 9.15699 18.6523 9.1582L13.0596 14.752L18.6572 9.15527Z" fill="black" stroke="#1A1A1A" stroke-width="0.015625"/>
</svg>
