<svg width="80" height="80" viewBox="0 0 80 80" fill="none" xmlns="http://www.w3.org/2000/svg">
<rect width="80" height="80" rx="40" fill="#F3EDFD"/>
<path d="M50.5253 34.7368H29.4726C25.5969 34.7368 22.4551 37.8787 22.4551 41.7544V52.2807C22.4551 56.1564 25.5969 59.2982 29.4726 59.2982H50.5253C54.4009 59.2982 57.5428 56.1564 57.5428 52.2807V41.7544C57.5428 37.8787 54.4009 34.7368 50.5253 34.7368Z" stroke="#22084B" stroke-width="3.24324" stroke-linecap="round" stroke-linejoin="round"/>
<path d="M39.9971 27.7207C41.9349 27.7207 43.5058 26.1497 43.5058 24.2119C43.5058 22.2741 41.9349 20.7031 39.9971 20.7031C38.0592 20.7031 36.4883 22.2741 36.4883 24.2119C36.4883 26.1497 38.0592 27.7207 39.9971 27.7207Z" stroke="#22084B" stroke-width="3.24324" stroke-linecap="round" stroke-linejoin="round"/>
<path d="M39.9995 27.7222V34.7397M34.7363 48.7748V45.266M45.2626 45.266V48.7748" stroke="#22084B" stroke-width="3.24324" stroke-linecap="round" stroke-linejoin="round"/>
</svg>
