<svg width="25" height="24" viewBox="0 0 25 24" fill="none" xmlns="http://www.w3.org/2000/svg">
<g clip-path="url(#clip0_1765_27865)">
<path d="M7.92773 16C7.37773 16 6.90707 15.8043 6.51573 15.413C6.1244 15.0217 5.9284 14.5507 5.92773 14C5.92707 13.4493 6.12307 12.9787 6.51573 12.588C6.9084 12.1973 7.37907 12.0013 7.92773 12C8.4764 11.9987 8.9474 12.1947 9.34073 12.588C9.73407 12.9813 9.92973 13.452 9.92773 14C9.92573 14.548 9.73007 15.019 9.34073 15.413C8.9514 15.807 8.4804 16.0027 7.92773 16ZM7.92773 20C6.26107 20 4.8444 19.4167 3.67773 18.25C2.51107 17.0833 1.92773 15.6667 1.92773 14C1.92773 12.3333 2.51107 10.9167 3.67773 9.75C4.8444 8.58333 6.26107 8 7.92773 8C9.0444 8 10.0571 8.275 10.9657 8.825C11.8744 9.375 12.5951 10.1 13.1277 11H21.9277L24.9277 14L20.4277 18.5L18.4277 17L16.4277 18.5L14.3027 17H13.1277C12.5944 17.9 11.8737 18.625 10.9657 19.175C10.0577 19.725 9.04507 20 7.92773 20ZM7.92773 18C8.86107 18 9.68207 17.7167 10.3907 17.15C11.0994 16.5833 11.5701 15.8667 11.8027 15H14.9277L16.3777 16.025L18.4277 14.5L20.2027 15.875L22.0777 14L21.0777 13H11.8027C11.5694 12.1333 11.0987 11.4167 10.3907 10.85C9.68273 10.2833 8.86173 10 7.92773 10C6.82773 10 5.88607 10.3917 5.10273 11.175C4.3194 11.9583 3.92773 12.9 3.92773 14C3.92773 15.1 4.3194 16.0417 5.10273 16.825C5.88607 17.6083 6.82773 18 7.92773 18Z" fill="black"/>
</g>
<defs>
<clipPath id="clip0_1765_27865">
<rect width="24" height="24" fill="white" transform="translate(0.927734)"/>
</clipPath>
</defs>
</svg>
