<svg width="88" height="89" viewBox="0 0 88 89" fill="none" xmlns="http://www.w3.org/2000/svg">
<circle cx="44" cy="44.5" r="44" fill="#B82132" fill-opacity="0.12"/>
<path d="M34 62.5C32.9 62.5 31.9587 62.1087 31.176 61.326C30.3933 60.5433 30.0013 59.6013 30 58.5V32.5C29.4333 32.5 28.9587 32.308 28.576 31.924C28.1933 31.54 28.0013 31.0653 28 30.5C27.9987 29.9347 28.1907 29.46 28.576 29.076C28.9613 28.692 29.436 28.5 30 28.5H38C38 27.9333 38.192 27.4587 38.576 27.076C38.96 26.6933 39.4347 26.5013 40 26.5H48C48.5667 26.5 49.042 26.692 49.426 27.076C49.81 27.46 50.0013 27.9347 50 28.5H58C58.5667 28.5 59.042 28.692 59.426 29.076C59.81 29.46 60.0013 29.9347 60 30.5C59.9987 31.0653 59.8067 31.5407 59.424 31.926C59.0413 32.3113 58.5667 32.5027 58 32.5V58.5C58 59.6 57.6087 60.542 56.826 61.326C56.0433 62.11 55.1013 62.5013 54 62.5H34ZM54 32.5H34V58.5H54V32.5ZM40 54.5C40.5667 54.5 41.042 54.308 41.426 53.924C41.81 53.54 42.0013 53.0653 42 52.5V38.5C42 37.9333 41.808 37.4587 41.424 37.076C41.04 36.6933 40.5653 36.5013 40 36.5C39.4347 36.4987 38.96 36.6907 38.576 37.076C38.192 37.4613 38 37.936 38 38.5V52.5C38 53.0667 38.192 53.542 38.576 53.926C38.96 54.31 39.4347 54.5013 40 54.5ZM48 54.5C48.5667 54.5 49.042 54.308 49.426 53.924C49.81 53.54 50.0013 53.0653 50 52.5V38.5C50 37.9333 49.808 37.4587 49.424 37.076C49.04 36.6933 48.5653 36.5013 48 36.5C47.4347 36.4987 46.96 36.6907 46.576 37.076C46.192 37.4613 46 37.936 46 38.5V52.5C46 53.0667 46.192 53.542 46.576 53.926C46.96 54.31 47.4347 54.5013 48 54.5Z" fill="#B82132"/>
</svg>
