<svg width="41" height="40" viewBox="0 0 41 40" fill="none" xmlns="http://www.w3.org/2000/svg">
<rect x="0.927734" width="40" height="40" rx="8" fill="#B82132"/>
<path d="M15.1279 27.7998H26.7275V13.2002H15.1279V27.7998ZM18.9258 16.7998C19.0075 16.8 19.0397 16.8191 19.0752 16.8545C19.1091 16.8883 19.1279 16.9186 19.1279 17V24.002C19.1281 24.0815 19.1099 24.1117 19.0752 24.1465C19.0491 24.1726 19.025 24.1893 18.9805 24.1963L18.9277 24.2002H18.9258C18.8462 24.2004 18.816 24.1822 18.7812 24.1475C18.7464 24.1126 18.7275 24.0814 18.7275 24V17C18.7275 16.921 18.7457 16.8892 18.7822 16.8525C18.8172 16.8175 18.8471 16.7996 18.9258 16.7998ZM22.9258 16.7998C23.0075 16.8 23.0397 16.8191 23.0752 16.8545C23.1091 16.8883 23.1279 16.9186 23.1279 17V24.002C23.1281 24.0815 23.1099 24.1117 23.0752 24.1465C23.0491 24.1726 23.025 24.1893 22.9805 24.1963L22.9277 24.2002H22.9258C22.8463 24.2004 22.816 24.1822 22.7812 24.1475C22.7464 24.1126 22.7275 24.0814 22.7275 24V17C22.7275 16.921 22.7457 16.8892 22.7822 16.8525C22.8172 16.8175 22.8471 16.7996 22.9258 16.7998ZM14.7275 13.2002H13.9277C13.8869 13.2002 13.8589 13.1955 13.8369 13.1865L13.7822 13.1475C13.7557 13.1208 13.7385 13.096 13.7314 13.0508L13.7275 12.998C13.7275 12.9587 13.7324 12.9318 13.7412 12.9102L13.7803 12.8545C13.8169 12.8179 13.8487 12.7998 13.9277 12.7998H18.7275V12C18.7275 11.9592 18.7322 11.9311 18.7412 11.9092L18.7803 11.8545C18.8069 11.8279 18.8318 11.8108 18.877 11.8037L18.9297 11.7998H22.9277C23.0092 11.7998 23.0403 11.8187 23.0752 11.8535C23.1099 11.8883 23.1281 11.9185 23.1279 11.998L23.126 12.7998H27.9277C28.0092 12.7998 28.0403 12.8187 28.0752 12.8535C28.1013 12.8796 28.1174 12.9034 28.124 12.9473L28.1279 12.998C28.1277 13.0798 28.1086 13.1128 28.0723 13.1494C28.0392 13.1827 28.0108 13.2005 27.9316 13.2002L27.1279 13.1963V27C27.1279 27.3364 27.0172 27.6044 26.7744 27.8477C26.5626 28.0598 26.3317 28.1712 26.0518 28.1953L25.9287 28.2002H15.9277C15.5914 28.2002 15.3234 28.09 15.0811 27.8477C14.8689 27.6355 14.7581 27.4031 14.7334 27.1221L14.7275 26.999V13.2002Z" fill="white" stroke="white" stroke-width="1.6"/>
</svg>
