<svg width="21" height="20" viewBox="0 0 21 20" fill="none" xmlns="http://www.w3.org/2000/svg">
<path d="M5.55469 10.0002H13.0547C13.9387 10.0002 14.7866 10.3514 15.4117 10.9765C16.0368 11.6016 16.388 12.4494 16.388 13.3335C16.388 14.2176 16.0368 15.0654 15.4117 15.6905C14.7866 16.3156 13.9387 16.6668 13.0547 16.6668H6.38802C6.16701 16.6668 5.95505 16.579 5.79877 16.4228C5.64249 16.2665 5.55469 16.0545 5.55469 15.8335V4.16683C5.55469 3.94582 5.64249 3.73385 5.79877 3.57757C5.95505 3.42129 6.16701 3.3335 6.38802 3.3335H12.2214C13.1054 3.3335 13.9533 3.68469 14.5784 4.30981C15.2035 4.93493 15.5547 5.78277 15.5547 6.66683C15.5547 7.55088 15.2035 8.39873 14.5784 9.02385C13.9533 9.64897 13.1054 10.0002 12.2214 10.0002" stroke="#1A1A1A" stroke-width="1.4" stroke-linecap="round" stroke-linejoin="round"/>
</svg>
