<svg width="37" height="36" viewBox="0 0 37 36" fill="none" xmlns="http://www.w3.org/2000/svg">
<rect x="0.554688" width="36" height="36" rx="18" fill="#F3EDFD"/>
<mask id="path-2-inside-1_3115_28562" fill="white">
<path d="M25.5859 27L11.5234 27C10.4367 27 9.55469 26.118 9.55469 25.0312L9.55469 10.9687C9.55469 10.4466 9.76211 9.94584 10.1313 9.57663C10.5005 9.20742 11.0013 9 11.5234 9L25.5859 9C26.1081 9 26.6088 9.20742 26.9781 9.57663C27.3473 9.94584 27.5547 10.4466 27.5547 10.9688L27.5547 25.0312C27.5547 26.118 26.6727 27 25.5859 27ZM25.8672 25.0312L25.8672 10.9688C25.8672 10.8135 25.7412 10.6875 25.5859 10.6875L11.5234 10.6875C11.4488 10.6875 11.3773 10.7171 11.3246 10.7699C11.2718 10.8226 11.2422 10.8942 11.2422 10.9687L11.2422 25.0312C11.2422 25.1058 11.2718 25.1774 11.3246 25.2301C11.3773 25.2829 11.4488 25.3125 11.5234 25.3125L25.5859 25.3125C25.6605 25.3125 25.7321 25.2829 25.7848 25.2301C25.8376 25.1774 25.8672 25.1058 25.8672 25.0312ZM14.3359 23.625C14.1122 23.625 13.8976 23.5361 13.7393 23.3779C13.5811 23.2196 13.4922 23.005 13.4922 22.7812L13.4922 14.3437C13.4922 14.12 13.5811 13.9054 13.7393 13.7471C13.8976 13.5889 14.1122 13.5 14.3359 13.5C14.5597 13.5 14.7743 13.5889 14.9326 13.7471C15.0908 13.9054 15.1797 14.12 15.1797 14.3437L15.1797 22.7812C15.1797 23.005 15.0908 23.2196 14.9326 23.3779C14.7743 23.5361 14.5597 23.625 14.3359 23.625ZM23.6172 22.7812C23.6172 23.005 23.5283 23.2196 23.3701 23.3779C23.2118 23.5361 22.9972 23.625 22.7734 23.625C22.5497 23.625 22.335 23.5361 22.1768 23.3779C22.0186 23.2196 21.9297 23.005 21.9297 22.7812L21.9297 16.5938C21.9297 16.37 22.0186 16.1554 22.1768 15.9971C22.335 15.8389 22.5497 15.75 22.7734 15.75C22.9972 15.75 23.2118 15.8389 23.3701 15.9971C23.5283 16.1554 23.6172 16.37 23.6172 16.5938L23.6172 22.7812ZM18.5547 23.625C18.3309 23.625 18.1163 23.5361 17.9581 23.3779C17.7998 23.2196 17.7109 23.005 17.7109 22.7812L17.7109 18.8437C17.7109 18.62 17.7998 18.4054 17.9581 18.2471C18.1163 18.0889 18.3309 18 18.5547 18C18.7785 18 18.9931 18.0889 19.1513 18.2471C19.3095 18.4054 19.3984 18.62 19.3984 18.8437L19.3984 22.7812C19.3984 23.005 19.3095 23.2196 19.1513 23.3779C18.9931 23.5361 18.7785 23.625 18.5547 23.625Z"/>
</mask>
<path d="M25.5859 27L11.5234 27C10.4367 27 9.55469 26.118 9.55469 25.0312L9.55469 10.9687C9.55469 10.4466 9.76211 9.94584 10.1313 9.57663C10.5005 9.20742 11.0013 9 11.5234 9L25.5859 9C26.1081 9 26.6088 9.20742 26.9781 9.57663C27.3473 9.94584 27.5547 10.4466 27.5547 10.9688L27.5547 25.0312C27.5547 26.118 26.6727 27 25.5859 27ZM25.8672 25.0312L25.8672 10.9688C25.8672 10.8135 25.7412 10.6875 25.5859 10.6875L11.5234 10.6875C11.4488 10.6875 11.3773 10.7171 11.3246 10.7699C11.2718 10.8226 11.2422 10.8942 11.2422 10.9687L11.2422 25.0312C11.2422 25.1058 11.2718 25.1774 11.3246 25.2301C11.3773 25.2829 11.4488 25.3125 11.5234 25.3125L25.5859 25.3125C25.6605 25.3125 25.7321 25.2829 25.7848 25.2301C25.8376 25.1774 25.8672 25.1058 25.8672 25.0312ZM14.3359 23.625C14.1122 23.625 13.8976 23.5361 13.7393 23.3779C13.5811 23.2196 13.4922 23.005 13.4922 22.7812L13.4922 14.3437C13.4922 14.12 13.5811 13.9054 13.7393 13.7471C13.8976 13.5889 14.1122 13.5 14.3359 13.5C14.5597 13.5 14.7743 13.5889 14.9326 13.7471C15.0908 13.9054 15.1797 14.12 15.1797 14.3437L15.1797 22.7812C15.1797 23.005 15.0908 23.2196 14.9326 23.3779C14.7743 23.5361 14.5597 23.625 14.3359 23.625ZM23.6172 22.7812C23.6172 23.005 23.5283 23.2196 23.3701 23.3779C23.2118 23.5361 22.9972 23.625 22.7734 23.625C22.5497 23.625 22.335 23.5361 22.1768 23.3779C22.0186 23.2196 21.9297 23.005 21.9297 22.7812L21.9297 16.5938C21.9297 16.37 22.0186 16.1554 22.1768 15.9971C22.335 15.8389 22.5497 15.75 22.7734 15.75C22.9972 15.75 23.2118 15.8389 23.3701 15.9971C23.5283 16.1554 23.6172 16.37 23.6172 16.5938L23.6172 22.7812ZM18.5547 23.625C18.3309 23.625 18.1163 23.5361 17.9581 23.3779C17.7998 23.2196 17.7109 23.005 17.7109 22.7812L17.7109 18.8437C17.7109 18.62 17.7998 18.4054 17.9581 18.2471C18.1163 18.0889 18.3309 18 18.5547 18C18.7785 18 18.9931 18.0889 19.1513 18.2471C19.3095 18.4054 19.3984 18.62 19.3984 18.8437L19.3984 22.7812C19.3984 23.005 19.3095 23.2196 19.1513 23.3779C18.9931 23.5361 18.7785 23.625 18.5547 23.625Z" fill="#22084B"/>
<path d="M9.55469 10.9687H11.869H9.55469ZM11.5234 9V11.3143V9ZM25.5859 9V11.3143V9ZM27.5547 10.9688H29.869H27.5547ZM14.3359 23.625L14.3359 25.9393L14.3359 23.625ZM13.4922 14.3437H11.1779H13.4922ZM15.1797 14.3437L17.494 14.3437L15.1797 14.3437ZM22.7734 23.625V25.9393V23.625ZM21.9297 16.5938L19.6154 16.5937L21.9297 16.5938ZM18.5547 23.625V25.9393V23.625ZM18.5547 18V15.6857V18ZM19.3984 18.8437L21.7127 18.8438L19.3984 18.8437ZM25.5859 27V24.6857L11.5234 24.6857V27V29.3143L25.5859 29.3143V27ZM11.5234 27V24.6857C11.7148 24.6857 11.869 24.8399 11.869 25.0312H9.55469H7.2404C7.2404 27.3961 9.15854 29.3143 11.5234 29.3143V27ZM9.55469 25.0312H11.869L11.869 10.9687H9.55469H7.2404L7.2404 25.0312H9.55469ZM9.55469 10.9687H11.869C11.869 11.0604 11.8326 11.1483 11.7678 11.2131L10.1313 9.57663L8.49487 7.94019C7.69165 8.74341 7.2404 9.83282 7.2404 10.9687H9.55469ZM10.1313 9.57663L11.7678 11.2131C11.703 11.2779 11.6151 11.3143 11.5234 11.3143V9V6.68571C10.3875 6.68571 9.2981 7.13696 8.49487 7.94019L10.1313 9.57663ZM11.5234 9V11.3143L25.5859 11.3143V9V6.68571L11.5234 6.68571V9ZM25.5859 9V11.3143C25.4943 11.3143 25.4064 11.2779 25.3416 11.2131L26.9781 9.57663L28.6145 7.94019C27.8113 7.13696 26.7219 6.68571 25.5859 6.68571V9ZM26.9781 9.57663L25.3416 11.2131C25.2768 11.1483 25.2404 11.0604 25.2404 10.9688H27.5547H29.869C29.869 9.83282 29.4177 8.74341 28.6145 7.94019L26.9781 9.57663ZM27.5547 10.9688H25.2404L25.2404 25.0312H27.5547H29.869L29.869 10.9688H27.5547ZM27.5547 25.0312H25.2404C25.2404 24.8399 25.3945 24.6857 25.5859 24.6857V27V29.3143C27.9508 29.3143 29.869 27.3961 29.869 25.0312H27.5547ZM25.8672 25.0312H28.1815L28.1815 10.9688H25.8672H23.5529L23.5529 25.0312H25.8672ZM25.8672 10.9688H28.1815C28.1815 9.53535 27.0193 8.37321 25.5859 8.37321V10.6875L25.5859 13.0018C24.463 13.0018 23.5529 12.0916 23.5529 10.9688H25.8672ZM25.5859 10.6875V8.37321L11.5234 8.37321V10.6875L11.5234 13.0018L25.5859 13.0018L25.5859 10.6875ZM11.5234 10.6875V8.37321C10.8351 8.37321 10.1749 8.64667 9.68812 9.13343L11.3246 10.7699L12.961 12.4063C12.5797 12.7876 12.0626 13.0018 11.5234 13.0018L11.5234 10.6875ZM11.3246 10.7699L9.68812 9.13343C9.20135 9.62019 8.9279 10.2804 8.9279 10.9687H11.2422L13.5565 10.9687C13.5565 11.5079 13.3423 12.0251 12.961 12.4063L11.3246 10.7699ZM11.2422 10.9687H8.9279L8.9279 25.0312H11.2422L13.5565 25.0312L13.5565 10.9687L11.2422 10.9687ZM11.2422 25.0312H8.9279C8.9279 25.7196 9.20136 26.3798 9.68812 26.8666L11.3246 25.2301L12.961 23.5937C13.3423 23.9749 13.5565 24.4921 13.5565 25.0312L11.2422 25.0312ZM11.3246 25.2301L9.68812 26.8666C10.1749 27.3533 10.8351 27.6268 11.5234 27.6268V25.3125V22.9982C12.0626 22.9982 12.5797 23.2124 12.961 23.5937L11.3246 25.2301ZM11.5234 25.3125V27.6268L25.5859 27.6268V25.3125V22.9982L11.5234 22.9982V25.3125ZM25.5859 25.3125V27.6268C26.2743 27.6268 26.9345 27.3533 27.4213 26.8666L25.7848 25.2301L24.1484 23.5937C24.5296 23.2124 25.0467 22.9982 25.5859 22.9982V25.3125ZM25.7848 25.2301L27.4213 26.8666C27.908 26.3798 28.1815 25.7196 28.1815 25.0312H25.8672H23.5529C23.5529 24.4921 23.7671 23.9749 24.1484 23.5937L25.7848 25.2301ZM14.3359 23.625V21.3107C14.7259 21.3107 15.1 21.4656 15.3758 21.7414L13.7393 23.3779L12.1029 25.0143C12.6951 25.6066 13.4984 25.9393 14.3359 25.9393L14.3359 23.625ZM13.7393 23.3779L15.3758 21.7414C15.6515 22.0172 15.8065 22.3912 15.8065 22.7812L13.4922 22.7812H11.1779C11.1779 23.6188 11.5106 24.4221 12.1029 25.0143L13.7393 23.3779ZM13.4922 22.7812L15.8065 22.7812L15.8065 14.3437L13.4922 14.3437H11.1779L11.1779 22.7812H13.4922ZM13.4922 14.3437L15.8065 14.3437C15.8065 14.7338 15.6515 15.1078 15.3758 15.3836L13.7393 13.7471L12.1029 12.1107C11.5106 12.7029 11.1779 13.5062 11.1779 14.3437H13.4922ZM13.7393 13.7471L15.3758 15.3836C15.1 15.6594 14.726 15.8143 14.3359 15.8143L14.3359 13.5V11.1857C13.4984 11.1857 12.6951 11.5184 12.1029 12.1107L13.7393 13.7471ZM14.3359 13.5L14.3359 15.8143C13.9459 15.8143 13.5719 15.6594 13.2961 15.3836L14.9326 13.7471L16.569 12.1107C15.9768 11.5184 15.1735 11.1857 14.3359 11.1857V13.5ZM14.9326 13.7471L13.2961 15.3836C13.0203 15.1078 12.8654 14.7338 12.8654 14.3437H15.1797L17.494 14.3437C17.494 13.5062 17.1612 12.7029 16.569 12.1107L14.9326 13.7471ZM15.1797 14.3437H12.8654L12.8654 22.7812L15.1797 22.7812H17.494L17.494 14.3437L15.1797 14.3437ZM15.1797 22.7812L12.8654 22.7812C12.8654 22.3912 13.0203 22.0172 13.2961 21.7414L14.9326 23.3779L16.569 25.0143C17.1613 24.4221 17.494 23.6188 17.494 22.7812H15.1797ZM14.9326 23.3779L13.2961 21.7414C13.5719 21.4656 13.9459 21.3107 14.3359 21.3107V23.625L14.3359 25.9393C15.1735 25.9393 15.9768 25.6066 16.569 25.0143L14.9326 23.3779ZM23.6172 22.7812L21.3029 22.7812C21.3029 22.3912 21.4578 22.0172 21.7336 21.7414L23.3701 23.3779L25.0065 25.0143C25.5988 24.4221 25.9315 23.6188 25.9315 22.7812H23.6172ZM23.3701 23.3779L21.7336 21.7414C22.0094 21.4656 22.3834 21.3107 22.7734 21.3107V23.625V25.9393C23.611 25.9393 24.4143 25.6066 25.0065 25.0143L23.3701 23.3779ZM22.7734 23.625V21.3107C23.1634 21.3107 23.5375 21.4656 23.8133 21.7414L22.1768 23.3779L20.5404 25.0143C21.1326 25.6066 21.9359 25.9393 22.7734 25.9393V23.625ZM22.1768 23.3779L23.8133 21.7414C24.089 22.0172 24.244 22.3912 24.244 22.7812H21.9297L19.6154 22.7812C19.6154 23.6188 19.9481 24.4221 20.5404 25.0143L22.1768 23.3779ZM21.9297 22.7812H24.244L24.244 16.5938H21.9297L19.6154 16.5937L19.6154 22.7812L21.9297 22.7812ZM21.9297 16.5938H24.244C24.244 16.9838 24.089 17.3578 23.8133 17.6336L22.1768 15.9971L20.5404 14.3607C19.9481 14.9529 19.6154 15.7562 19.6154 16.5937L21.9297 16.5938ZM22.1768 15.9971L23.8133 17.6336C23.5375 17.9094 23.1635 18.0643 22.7734 18.0643V15.75L22.7734 13.4357C21.9359 13.4357 21.1326 13.7684 20.5404 14.3607L22.1768 15.9971ZM22.7734 15.75V18.0643C22.3834 18.0643 22.0094 17.9094 21.7336 17.6336L23.3701 15.9971L25.0065 14.3607C24.4143 13.7684 23.611 13.4357 22.7734 13.4357L22.7734 15.75ZM23.3701 15.9971L21.7336 17.6336C21.4578 17.3578 21.3029 16.9838 21.3029 16.5938H23.6172H25.9315C25.9315 15.7562 25.5988 14.9529 25.0065 14.3607L23.3701 15.9971ZM23.6172 16.5938H21.3029L21.3029 22.7812L23.6172 22.7812H25.9315L25.9315 16.5938H23.6172ZM18.5547 23.625V21.3107C18.9447 21.3107 19.3187 21.4656 19.5945 21.7414L17.9581 23.3779L16.3216 25.0143C16.9139 25.6066 17.7171 25.9393 18.5547 25.9393V23.625ZM17.9581 23.3779L19.5945 21.7414C19.8703 22.0172 20.0252 22.3912 20.0252 22.7812H17.7109H15.3967C15.3967 23.6188 15.7294 24.4221 16.3216 25.0143L17.9581 23.3779ZM17.7109 22.7812H20.0252L20.0252 18.8437H17.7109L15.3967 18.8437L15.3967 22.7812H17.7109ZM17.7109 18.8437H20.0252C20.0252 19.2338 19.8703 19.6078 19.5945 19.8836L17.9581 18.2471L16.3216 16.6107C15.7294 17.2029 15.3967 18.0062 15.3967 18.8437L17.7109 18.8437ZM17.9581 18.2471L19.5945 19.8836C19.3187 20.1594 18.9447 20.3143 18.5547 20.3143L18.5547 18V15.6857C17.7171 15.6857 16.9139 16.0184 16.3216 16.6107L17.9581 18.2471ZM18.5547 18L18.5547 20.3143C18.1647 20.3143 17.7906 20.1594 17.5149 19.8836L19.1513 18.2471L20.7878 16.6107C20.1955 16.0184 19.3922 15.6857 18.5547 15.6857V18ZM19.1513 18.2471L17.5149 19.8836C17.2391 19.6078 17.0842 19.2338 17.0842 18.8437H19.3984L21.7127 18.8438C21.7127 18.0062 21.38 17.2029 20.7878 16.6107L19.1513 18.2471ZM19.3984 18.8437H17.0842L17.0842 22.7812H19.3984L21.7127 22.7812L21.7127 18.8438L19.3984 18.8437ZM19.3984 22.7812H17.0842C17.0842 22.3912 17.2391 22.0172 17.5149 21.7414L19.1513 23.3779L20.7878 25.0143C21.38 24.4221 21.7127 23.6188 21.7127 22.7812L19.3984 22.7812ZM19.1513 23.3779L17.5149 21.7414C17.7906 21.4656 18.1647 21.3107 18.5547 21.3107V23.625V25.9393C19.3922 25.9393 20.1955 25.6066 20.7878 25.0143L19.1513 23.3779Z" fill="#22084B" mask="url(#path-2-inside-1_3115_28562)"/>
</svg>
