<svg width="37" height="36" viewBox="0 0 37 36" fill="none" xmlns="http://www.w3.org/2000/svg">
<rect x="0.0371094" width="36" height="36" rx="18" fill="#F3EDFD"/>
<path d="M25.2679 16.7046V25.3654C25.2679 25.9315 25.043 26.4745 24.6427 26.8748C24.2423 27.2751 23.6994 27.5 23.1333 27.5H13.1717C12.6056 27.5 12.0626 27.2751 11.6623 26.8748C11.262 26.4745 11.0371 25.9315 11.0371 25.3654V11.1346C11.0371 10.5685 11.262 10.0255 11.6623 9.62521C12.0626 9.2249 12.6056 9 13.1717 9H17.5633C17.9405 9.00006 18.3024 9.14994 18.5692 9.41669L24.8512 15.6987C25.1179 15.9655 25.2678 16.3273 25.2679 16.7046Z" stroke="#22084B" stroke-width="1.5" stroke-linejoin="round"/>
<path d="M18.1534 9.35596V14.6925C18.1534 15.0699 18.3033 15.4319 18.5702 15.6988C18.8371 15.9656 19.199 16.1156 19.5765 16.1156H24.913M14.5957 19.6733H21.7111M14.5957 23.231H21.7111" stroke="#22084B" stroke-width="1.5" stroke-linecap="round" stroke-linejoin="round"/>
</svg>
