<svg width="37" height="36" viewBox="0 0 37 36" fill="none" xmlns="http://www.w3.org/2000/svg">
<rect x="0.517578" width="36" height="36" rx="18" fill="#F3EDFD"/>
<path d="M22.6676 10.8711C24.7004 10.8823 25.8014 10.973 26.5192 11.6908C27.3407 12.5123 27.3407 13.8338 27.3407 16.4769V22.0847C27.3407 24.7287 27.3407 26.0502 26.5192 26.8718C25.6986 27.6924 24.3761 27.6924 21.733 27.6924H16.1253C13.4822 27.6924 12.1597 27.6924 11.3391 26.8718C10.5176 26.0493 10.5176 24.7287 10.5176 22.0847V16.4769C10.5176 13.8338 10.5176 12.5123 11.3391 11.6908C12.0569 10.973 13.1579 10.8823 15.1907 10.8711" stroke="#22084B" stroke-width="1.5"/>
<path d="M17.527 20.2155H23.6021M14.2559 20.2155H14.7232M14.2559 16.9443H14.7232M14.2559 23.4867H14.7232M17.527 16.9443H23.6021M17.527 23.4867H23.6021" stroke="#22084B" stroke-width="1.5" stroke-linecap="round"/>
<path d="M15.1914 10.4019C15.1914 10.0301 15.3391 9.67353 15.602 9.41062C15.8649 9.1477 16.2215 9 16.5933 9H21.2664C21.6382 9 21.9948 9.1477 22.2577 9.41062C22.5207 9.67353 22.6684 10.0301 22.6684 10.4019V11.3365C22.6684 11.7084 22.5207 12.0649 22.2577 12.3279C21.9948 12.5908 21.6382 12.7385 21.2664 12.7385H16.5933C16.2215 12.7385 15.8649 12.5908 15.602 12.3279C15.3391 12.0649 15.1914 11.7084 15.1914 11.3365V10.4019Z" stroke="#22084B" stroke-width="1.5"/>
</svg>
