<svg width="21" height="20" viewBox="0 0 21 20" fill="none" xmlns="http://www.w3.org/2000/svg">
<path d="M17.9961 11.6668C17.9961 14.8093 17.9961 16.381 17.0194 17.3568C16.0428 18.3327 14.4719 18.3335 11.3294 18.3335H9.66276C6.52026 18.3335 4.94859 18.3335 3.97276 17.3568C2.99693 16.3802 2.99609 14.8093 2.99609 11.6668L2.99609 8.3335C2.99609 5.191 2.99609 3.61933 3.97276 2.6435C4.94943 1.66766 6.52026 1.66683 9.66276 1.66683H11.3294C14.4719 1.66683 16.0436 1.66683 17.0194 2.6435C17.9953 3.62016 17.9961 5.191 17.9961 8.3335V11.6668Z" stroke="#1A1A1A" stroke-width="1.5"/>
<path d="M13.8301 10.0002L7.16341 10.0002M13.8301 13.3335L7.16341 13.3335M13.8301 6.66683L9.66341 6.66683" stroke="#1A1A1A" stroke-width="1.5" stroke-linecap="round"/>
</svg>
