<svg width="20" height="20" viewBox="0 0 20 20" fill="none" xmlns="http://www.w3.org/2000/svg">
<path d="M14.6708 6.4207C14.0582 5.80613 13.3302 5.31872 12.5286 4.9865C11.727 4.65428 10.8676 4.4838 9.99992 4.48487C8.24757 4.48509 6.56706 5.18131 5.32796 6.4204C4.08886 7.6595 3.39264 9.34002 3.39242 11.0924C3.39264 12.8455 4.08859 14.5269 5.32745 15.7673C6.56631 17.0077 8.24681 17.7058 9.99992 17.7082C11.7532 17.7058 13.4338 17.0076 14.6727 15.767C15.9116 14.5264 16.6074 12.8448 16.6074 11.0915" stroke="#1A1A1A" stroke-width="1.5" stroke-miterlimit="10" stroke-linecap="round"/>
<path d="M14.0667 2.2915L14.8584 5.5065C14.9287 5.79148 14.883 6.0927 14.7315 6.34406C14.5799 6.59543 14.3349 6.77642 14.0501 6.84734L10.8259 7.63734" stroke="#1A1A1A" stroke-width="1.5" stroke-linecap="round" stroke-linejoin="round"/>
</svg>
