<svg width="39" height="39" viewBox="0 0 39 39" fill="none" xmlns="http://www.w3.org/2000/svg">
<rect x="0.927734" y="0.5" width="37.5448" height="37.069" rx="18.5345" stroke="#343434" stroke-opacity="0.25"/>
<path d="M15.123 20.5503C15.123 19.7827 15.1758 19.0327 15.2812 18.3003C15.3926 17.5679 15.5771 16.8823 15.835 16.2437C16.0986 15.605 16.459 15.0454 16.916 14.5649C17.373 14.0786 17.9443 13.6978 18.6299 13.4224C19.3154 13.147 20.1416 13.0093 21.1084 13.0093C21.3662 13.0093 21.6504 13.021 21.9609 13.0444C22.2773 13.0679 22.5381 13.1089 22.7432 13.1675V14.6528C22.5205 14.5825 22.2715 14.5298 21.9961 14.4946C21.7207 14.4595 21.4453 14.4419 21.1699 14.4419C20.0859 14.4419 19.2363 14.6646 18.6211 15.1099C18.0059 15.5493 17.5664 16.1499 17.3027 16.9116C17.0391 17.6675 16.8867 18.5229 16.8457 19.478H16.9424C17.1182 19.1909 17.3438 18.9302 17.6191 18.6958C17.8945 18.4614 18.2256 18.2769 18.6123 18.1421C19.0049 18.0015 19.4619 17.9312 19.9834 17.9312C20.7334 17.9312 21.3867 18.0864 21.9434 18.397C22.5 18.7017 22.9307 19.147 23.2354 19.7329C23.54 20.3188 23.6924 21.0308 23.6924 21.8687C23.6924 22.7593 23.5254 23.5298 23.1914 24.1802C22.8574 24.8306 22.3799 25.3315 21.7588 25.6831C21.1436 26.0347 20.4082 26.2104 19.5527 26.2104C18.9199 26.2104 18.334 26.0933 17.7949 25.8589C17.2559 25.6187 16.7871 25.2642 16.3887 24.7954C15.9902 24.3208 15.6797 23.7319 15.457 23.0288C15.2344 22.3198 15.123 21.4937 15.123 20.5503ZM19.5264 24.7427C20.2588 24.7427 20.8447 24.5083 21.2842 24.0396C21.7295 23.5649 21.9521 22.8442 21.9521 21.8774C21.9521 21.0864 21.7559 20.4624 21.3633 20.0054C20.9707 19.5425 20.3789 19.311 19.5879 19.311C19.0488 19.311 18.5771 19.4253 18.1729 19.6538C17.7744 19.8823 17.4639 20.1694 17.2412 20.5151C17.0244 20.855 16.916 21.2036 16.916 21.561C16.916 21.9302 16.9688 22.3022 17.0742 22.6772C17.1797 23.0464 17.3408 23.3892 17.5576 23.7056C17.7744 24.0161 18.0469 24.2681 18.375 24.4614C18.7031 24.6489 19.0869 24.7427 19.5264 24.7427Z" fill="#1A1A1A"/>
</svg>
