<svg width="47" height="46" viewBox="0 0 47 46" fill="none" xmlns="http://www.w3.org/2000/svg">
<rect x="0.574286" y="0.396552" width="45.2069" height="45.2069" rx="22.6034" fill="white"/>
<rect x="0.574286" y="0.396552" width="45.2069" height="45.2069" rx="22.6034" stroke="#22084B" stroke-width="0.793103"/>
<rect x="4.14331" y="3.96533" width="38.069" height="38.069" rx="19.0345" fill="#22084B"/>
<path d="M27.1787 30H18.4688V28.4355L21.7822 25.1045C22.7607 24.1025 23.4082 23.3936 23.7246 22.9775C24.0469 22.5557 24.2812 22.1602 24.4277 21.791C24.5742 21.4219 24.6475 21.0264 24.6475 20.6045C24.6475 20.0244 24.4717 19.5674 24.1201 19.2334C23.7744 18.8994 23.2939 18.7324 22.6787 18.7324C22.1865 18.7324 21.709 18.8232 21.2461 19.0049C20.7891 19.1865 20.2588 19.5146 19.6553 19.9893L18.5391 18.627C19.2539 18.0234 19.9482 17.5957 20.6221 17.3438C21.2959 17.0918 22.0137 16.9658 22.7754 16.9658C23.9707 16.9658 24.9287 17.2793 25.6494 17.9062C26.3701 18.5273 26.7305 19.3652 26.7305 20.4199C26.7305 21 26.625 21.5508 26.4141 22.0723C26.209 22.5938 25.8896 23.1328 25.4561 23.6895C25.0283 24.2402 24.3135 24.9873 23.3115 25.9307L21.0791 28.0928V28.1807H27.1787V30Z" fill="white"/>
</svg>
