<svg width="40" height="39" viewBox="0 0 40 39" fill="none" xmlns="http://www.w3.org/2000/svg">
<rect x="1.10815" y="0.5" width="37.5448" height="37.069" rx="18.5345" stroke="#343434" stroke-opacity="0.25"/>
<path d="M24.3386 23.1343H22.5105V26.0347H20.7791V23.1343H14.7498V21.7368L20.7439 13.1323H22.5105V21.6138H24.3386V23.1343ZM20.7791 21.6138V17.9224C20.7791 17.6294 20.782 17.3511 20.7878 17.0874C20.7937 16.8179 20.8025 16.563 20.8142 16.3228C20.8259 16.0825 20.8376 15.8599 20.8494 15.6548C20.8611 15.4438 20.8699 15.2534 20.8757 15.0835H20.8054C20.6941 15.3179 20.5681 15.561 20.4275 15.813C20.2927 16.0649 20.1492 16.2993 19.9968 16.5161L16.4373 21.6138H20.7791Z" fill="#1A1A1A"/>
</svg>
