<svg width="39" height="39" viewBox="0 0 39 39" fill="none" xmlns="http://www.w3.org/2000/svg">
<rect x="0.927734" y="0.5" width="37.069" height="37.069" rx="18.5345" stroke="#343434" stroke-opacity="0.25"/>
<path d="M22.8918 16.147C22.8918 16.7271 22.7776 17.231 22.5491 17.6587C22.3206 18.0806 22.0042 18.4263 21.5999 18.6958C21.1956 18.9653 20.7268 19.1558 20.1936 19.2671V19.3286C21.2131 19.4575 21.9807 19.7827 22.4963 20.3042C23.0178 20.8257 23.2786 21.5142 23.2786 22.3696C23.2786 23.1138 23.1028 23.7759 22.7512 24.356C22.3997 24.936 21.8577 25.3901 21.1252 25.7183C20.3987 26.0464 19.4641 26.2104 18.3215 26.2104C17.636 26.2104 17.0002 26.1548 16.4143 26.0435C15.8284 25.9321 15.2717 25.7534 14.7444 25.5073V23.8989C15.2776 24.1685 15.8547 24.3794 16.4758 24.5317C17.0969 24.6782 17.6946 24.7515 18.2688 24.7515C19.3879 24.7515 20.1907 24.5347 20.677 24.1011C21.1692 23.6675 21.4153 23.0698 21.4153 22.3081C21.4153 21.8042 21.2834 21.394 21.0198 21.0776C20.7561 20.7554 20.3635 20.5181 19.842 20.3657C19.3264 20.2134 18.6819 20.1372 17.9084 20.1372H16.7043V18.6782H17.926C18.6467 18.6782 19.2385 18.5845 19.7014 18.397C20.1702 18.2036 20.5188 17.9341 20.7473 17.5884C20.9758 17.2427 21.0901 16.8384 21.0901 16.3755C21.0901 15.772 20.8909 15.3062 20.4924 14.978C20.0999 14.644 19.5432 14.4771 18.8225 14.4771C18.3772 14.4771 17.97 14.5269 17.6008 14.6265C17.2375 14.7202 16.8977 14.8462 16.5813 15.0044C16.2708 15.1626 15.969 15.3413 15.676 15.5405L14.8059 14.3188C15.2805 13.9556 15.8547 13.645 16.5286 13.3872C17.2083 13.1294 17.9846 13.0005 18.8577 13.0005C20.176 13.0005 21.178 13.2905 21.8635 13.8706C22.5491 14.4507 22.8918 15.2095 22.8918 16.147Z" fill="#1A1A1A"/>
</svg>
