<svg width="47" height="46" viewBox="0 0 47 46" fill="none" xmlns="http://www.w3.org/2000/svg">
<rect x="0.574286" y="0.396552" width="45.2069" height="45.2069" rx="22.6034" fill="white"/>
<rect x="0.574286" y="0.396552" width="45.2069" height="45.2069" rx="22.6034" stroke="#22084B" stroke-width="0.793103"/>
<rect x="4.14331" y="3.96582" width="38.069" height="38.069" rx="19.0345" fill="#22084B"/>
<path d="M26.6953 20.1035C26.6953 20.918 26.458 21.5977 25.9834 22.1426C25.5088 22.6816 24.8408 23.0449 23.9795 23.2324V23.3027C25.0107 23.4316 25.7842 23.7539 26.2998 24.2695C26.8154 24.7793 27.0732 25.459 27.0732 26.3086C27.0732 27.5449 26.6367 28.5 25.7637 29.1738C24.8906 29.8418 23.6484 30.1758 22.0371 30.1758C20.6133 30.1758 19.4121 29.9443 18.4336 29.4814V27.6445C18.9785 27.9141 19.5557 28.1221 20.165 28.2686C20.7744 28.415 21.3604 28.4883 21.9229 28.4883C22.9189 28.4883 23.6631 28.3037 24.1553 27.9346C24.6475 27.5654 24.8936 26.9941 24.8936 26.2207C24.8936 25.5352 24.6211 25.0312 24.0762 24.709C23.5312 24.3867 22.6758 24.2256 21.5098 24.2256H20.3936V22.5469H21.5273C23.5781 22.5469 24.6035 21.8379 24.6035 20.4199C24.6035 19.8691 24.4248 19.4443 24.0674 19.1455C23.71 18.8467 23.1826 18.6973 22.4854 18.6973C21.999 18.6973 21.5303 18.7676 21.0791 18.9082C20.6279 19.043 20.0947 19.3096 19.4795 19.708L18.4688 18.2666C19.6465 17.3994 21.0146 16.9658 22.5732 16.9658C23.8682 16.9658 24.8789 17.2441 25.6055 17.8008C26.332 18.3574 26.6953 19.125 26.6953 20.1035Z" fill="white"/>
</svg>
