<svg width="47" height="46" viewBox="0 0 47 46" fill="none" xmlns="http://www.w3.org/2000/svg">
<rect x="1.07429" y="0.396552" width="45.2069" height="45.2069" rx="22.6034" fill="white"/>
<rect x="1.07429" y="0.396552" width="45.2069" height="45.2069" rx="22.6034" stroke="#22084B" stroke-width="0.793103"/>
<rect x="4.64331" y="3.96484" width="38.069" height="38.069" rx="19.0345" fill="#22084B"/>
<path d="M23.3281 21.9756C24.623 21.9756 25.6484 22.3184 26.4043 23.0039C27.1602 23.6895 27.5381 24.624 27.5381 25.8076C27.5381 27.1787 27.1074 28.251 26.2461 29.0244C25.3906 29.792 24.1719 30.1758 22.5898 30.1758C21.1543 30.1758 20.0264 29.9443 19.2061 29.4814V27.6094C19.6807 27.8789 20.2256 28.0869 20.8408 28.2334C21.4561 28.3799 22.0273 28.4531 22.5547 28.4531C23.4863 28.4531 24.1953 28.2451 24.6816 27.8291C25.168 27.4131 25.4111 26.8037 25.4111 26.001C25.4111 24.4658 24.4326 23.6982 22.4756 23.6982C22.2002 23.6982 21.8604 23.7275 21.4561 23.7861C21.0518 23.8389 20.6973 23.9004 20.3926 23.9707L19.4697 23.4258L19.9619 17.1504H26.6416V18.9873H21.7812L21.4912 22.1689C21.6963 22.1338 21.9453 22.0928 22.2383 22.0459C22.5371 21.999 22.9004 21.9756 23.3281 21.9756Z" fill="white"/>
</svg>
