<svg width="39" height="39" viewBox="0 0 39 39" fill="none" xmlns="http://www.w3.org/2000/svg">
<rect x="0.927734" y="0.5" width="37.069" height="37.069" rx="18.5345" stroke="#343434" stroke-opacity="0.25"/>
<path d="M23.3665 26.0347H14.8059V24.646L18.1897 21.2095C18.8342 20.5591 19.3674 19.9907 19.7893 19.5044C20.217 19.0122 20.5393 18.5376 20.7561 18.0806C20.9729 17.6177 21.0813 17.1138 21.0813 16.5688C21.0813 15.9009 20.885 15.3911 20.4924 15.0396C20.0999 14.688 19.5784 14.5122 18.928 14.5122C18.342 14.5122 17.8118 14.6206 17.3372 14.8374C16.8684 15.0483 16.3821 15.353 15.8782 15.7515L14.929 14.5737C15.2747 14.2808 15.6497 14.0171 16.054 13.7827C16.4583 13.5425 16.9006 13.3521 17.3811 13.2114C17.8616 13.0708 18.3948 13.0005 18.9807 13.0005C19.7834 13.0005 20.4749 13.1411 21.0549 13.4224C21.6409 13.7036 22.092 14.1021 22.4084 14.6177C22.7249 15.1333 22.8831 15.7368 22.8831 16.4282C22.8831 17.1138 22.7454 17.7495 22.47 18.3354C22.2004 18.9155 21.8167 19.4927 21.3186 20.0669C20.8206 20.6411 20.2317 21.2534 19.552 21.9038L17.0471 24.3823V24.4614H23.3665V26.0347Z" fill="#1A1A1A"/>
</svg>
