<svg width="47" height="46" viewBox="0 0 47 46" fill="none" xmlns="http://www.w3.org/2000/svg">
<rect x="1.07429" y="0.396552" width="45.2069" height="45.2069" rx="22.6034" fill="white"/>
<rect x="1.07429" y="0.396552" width="45.2069" height="45.2069" rx="22.6034" stroke="#22084B" stroke-width="0.793103"/>
<rect x="4.64331" y="3.96484" width="38.069" height="38.069" rx="19.0345" fill="#22084B"/>
<path d="M19.0039 24.5244C19.0039 19.4971 21.0518 16.9834 25.1475 16.9834C25.792 16.9834 26.3369 17.0332 26.7822 17.1328V18.8555C26.3369 18.7266 25.8213 18.6621 25.2354 18.6621C23.8584 18.6621 22.8242 19.0312 22.1328 19.7695C21.4414 20.5078 21.0664 21.6914 21.0078 23.3203H21.1133C21.3887 22.8457 21.7754 22.4795 22.2734 22.2217C22.7715 21.958 23.3574 21.8262 24.0312 21.8262C25.1973 21.8262 26.1055 22.1836 26.7559 22.8984C27.4062 23.6133 27.7314 24.583 27.7314 25.8076C27.7314 27.1553 27.3535 28.2217 26.5977 29.0068C25.8477 29.7861 24.8223 30.1758 23.5215 30.1758C22.6016 30.1758 21.8018 29.9561 21.1221 29.5166C20.4424 29.0713 19.918 28.4268 19.5488 27.583C19.1855 26.7334 19.0039 25.7139 19.0039 24.5244ZM23.4863 28.4707C24.1953 28.4707 24.7402 28.2422 25.1211 27.7852C25.5078 27.3281 25.7012 26.6748 25.7012 25.8252C25.7012 25.0869 25.5195 24.5068 25.1562 24.085C24.7988 23.6631 24.2598 23.4521 23.5391 23.4521C23.0938 23.4521 22.6836 23.5488 22.3086 23.7422C21.9336 23.9297 21.6377 24.1904 21.4209 24.5244C21.2041 24.8525 21.0957 25.1895 21.0957 25.5352C21.0957 26.3613 21.3184 27.0586 21.7637 27.627C22.2148 28.1895 22.7891 28.4707 23.4863 28.4707Z" fill="white"/>
</svg>
