<svg width="40" height="39" viewBox="0 0 40 39" fill="none" xmlns="http://www.w3.org/2000/svg">
<rect x="1.25269" y="0.5" width="37.5448" height="37.069" rx="18.5345" stroke="#343434" stroke-opacity="0.25"/>
<path d="M19.5876 18.0894C20.4373 18.0894 21.1785 18.2388 21.8113 18.5376C22.45 18.8306 22.9451 19.2612 23.2966 19.8296C23.6541 20.3979 23.8328 21.0894 23.8328 21.9038C23.8328 22.7944 23.6423 23.562 23.2615 24.2065C22.8806 24.8511 22.3269 25.3462 21.6003 25.6919C20.8738 26.0376 19.9949 26.2104 18.9636 26.2104C18.2957 26.2104 17.6716 26.1519 17.0916 26.0347C16.5115 25.9175 16.0193 25.7417 15.615 25.5073V23.8813C16.0486 24.1333 16.5701 24.3384 17.1794 24.4966C17.7947 24.6489 18.3865 24.7251 18.9548 24.7251C19.5759 24.7251 20.115 24.6284 20.572 24.4351C21.0349 24.2417 21.3923 23.9487 21.6443 23.5562C21.8962 23.1636 22.0222 22.6655 22.0222 22.062C22.0222 21.2651 21.7732 20.6499 21.2751 20.2163C20.7771 19.7827 19.9949 19.5659 18.9285 19.5659C18.571 19.5659 18.1843 19.5981 17.7683 19.6626C17.3523 19.7212 17.0095 19.7827 16.74 19.8472L15.9138 19.3462L16.406 13.1851H22.9451V14.7583H17.9353L17.6365 18.3003C17.8533 18.2534 18.1228 18.2065 18.4451 18.1597C18.7673 18.1128 19.1482 18.0894 19.5876 18.0894Z" fill="#1A1A1A"/>
</svg>
