<svg width="20" height="20" viewBox="0 0 20 20" fill="none" xmlns="http://www.w3.org/2000/svg">
<path d="M14.1569 12.8656C14.2046 12.9086 14.2607 12.9421 14.322 12.9644C14.3834 12.9867 14.4487 12.9972 14.5143 12.9954C14.5799 12.9937 14.6445 12.9796 14.7044 12.9541C14.7643 12.9285 14.8184 12.892 14.8635 12.8466C14.9085 12.8012 14.9438 12.7478 14.9672 12.6894C14.9906 12.631 15.0017 12.5688 14.9998 12.5063C14.9979 12.4438 14.9832 12.3823 14.9564 12.3253C14.9295 12.2683 14.8912 12.2168 14.8435 12.1739L10.3461 8.13004C10.2533 8.04653 10.1305 8 10.0028 8C9.87513 8 9.75229 8.04653 9.65951 8.13004L5.16165 12.1739C5.1129 12.2165 5.07353 12.268 5.04583 12.3252C5.01814 12.3825 5.00267 12.4444 5.00031 12.5074C4.99796 12.5703 5.00878 12.6331 5.03214 12.6921C5.0555 12.7511 5.09093 12.8051 5.13638 12.8509C5.18184 12.8967 5.2364 12.9335 5.2969 12.9591C5.3574 12.9846 5.42264 12.9985 5.48883 12.9999C5.55501 13.0013 5.62082 12.9901 5.68244 12.9671C5.74405 12.944 5.80024 12.9095 5.84775 12.8656L10.0028 9.13006L14.1569 12.8656Z" fill="#1A1A1A"/>
</svg>
