<svg width="24" height="25" viewBox="0 0 24 25" fill="none" xmlns="http://www.w3.org/2000/svg">
<rect y="0.957031" width="24" height="24" rx="12" fill="#F3EDFD"/>
<path fill-rule="evenodd" clip-rule="evenodd" d="M11.3342 6.52118C11.3342 6.34463 11.4043 6.1753 11.5292 6.05045C11.654 5.92561 11.8233 5.85547 11.9999 5.85547C12.1764 5.85547 12.3458 5.92561 12.4706 6.05045C12.5955 6.1753 12.6656 6.34463 12.6656 6.52118V7.63071C12.6656 10.2048 14.7515 12.2907 17.3256 12.2907H18.4351C18.6117 12.2907 18.781 12.3609 18.9059 12.4857C19.0307 12.6105 19.1008 12.7799 19.1008 12.9564C19.1008 13.133 19.0307 13.3023 18.9059 13.4272C18.781 13.552 18.6117 13.6221 18.4351 13.6221H17.3256C16.0897 13.6221 14.9044 14.1131 14.0305 14.987C13.1566 15.861 12.6656 17.0462 12.6656 18.2822V19.3917C12.6656 19.5682 12.5955 19.7376 12.4706 19.8624C12.3458 19.9873 12.1764 20.0574 11.9999 20.0574C11.8233 20.0574 11.654 19.9873 11.5292 19.8624C11.4043 19.7376 11.3342 19.5682 11.3342 19.3917V18.2822C11.3342 15.7081 9.24826 13.6221 6.67417 13.6221H5.56464C5.38808 13.6221 5.21876 13.552 5.09391 13.4272C4.96906 13.3023 4.89893 13.133 4.89893 12.9564C4.89893 12.7799 4.96906 12.6105 5.09391 12.4857C5.21876 12.3609 5.38808 12.2907 5.56464 12.2907H6.67417C9.24826 12.2907 11.3342 10.2048 11.3342 7.63071V6.52118ZM9.42135 12.9564C10.5262 13.5295 11.4268 14.4302 11.9999 15.535C12.573 14.4302 13.4736 13.5295 14.5784 12.9564C13.4736 12.3833 12.573 11.4827 11.9999 10.3779C11.4268 11.4827 10.5262 12.3833 9.42135 12.9564Z" fill="#22084B"/>
</svg>
