<svg width="25" height="25" viewBox="0 0 25 25" fill="none" xmlns="http://www.w3.org/2000/svg">
<rect x="0.5" y="0.957031" width="24" height="24" rx="12" fill="#F3EDFD"/>
<path d="M17.5721 11.9257V18.0995C17.5721 18.503 17.4118 18.8901 17.1264 19.1754C16.841 19.4608 16.454 19.6211 16.0505 19.6211H8.94949C8.54593 19.6211 8.15889 19.4608 7.87353 19.1754C7.58817 18.8901 7.42786 18.503 7.42786 18.0995V7.95523C7.42786 7.55167 7.58817 7.16463 7.87353 6.87927C8.15889 6.59391 8.54593 6.43359 8.94949 6.43359H12.0799C12.3489 6.43363 12.6068 6.54048 12.797 6.73063L17.2751 11.2087C17.4652 11.3989 17.572 11.6568 17.5721 11.9257Z" stroke="#22084B" stroke-width="1.01442" stroke-linejoin="round"/>
<path d="M12.4999 6.6875V10.4916C12.4999 10.7606 12.6068 11.0187 12.797 11.2089C12.9873 11.3991 13.2453 11.506 13.5143 11.506H17.3184M9.96387 14.0421H15.036M9.96387 16.5781H15.036" stroke="#22084B" stroke-width="1.01442" stroke-linecap="round" stroke-linejoin="round"/>
</svg>
