<svg width="24" height="25" viewBox="0 0 24 25" fill="none" xmlns="http://www.w3.org/2000/svg">
<rect y="0.957031" width="24" height="24" rx="12" fill="#F3EDFD"/>
<path d="M17.3024 11.33C17.6784 11.3301 18.0469 11.4326 18.3655 11.6258C18.6841 11.8189 18.94 12.095 19.1039 12.4222C19.2677 12.7495 19.3329 13.1147 19.2919 13.4761C19.2509 13.8375 19.1055 14.1804 18.8722 14.4656C18.6389 14.7508 18.3273 14.9667 17.9729 15.0886C17.6186 15.2104 17.2359 15.2333 16.8687 15.1547C16.5016 15.076 16.1647 14.8989 15.8968 14.6438C15.6289 14.3886 15.4408 14.0656 15.354 13.7119H13.5061C13.4595 14.0007 13.3458 14.2756 13.1736 14.5159C13.0014 14.7562 12.7752 14.9557 12.5119 15.0994C12.2486 15.2432 11.955 15.3274 11.6533 15.3458C11.3515 15.3643 11.0493 15.3164 10.7693 15.2059L9.8115 16.844C10.1872 17.149 10.4339 17.5768 10.5049 18.0461C10.5758 18.5154 10.466 18.9935 10.1963 19.3897C9.92664 19.7859 9.51583 20.0725 9.04191 20.1952C8.56799 20.3179 8.06396 20.2681 7.62553 20.0553C7.1871 19.8424 6.84479 19.4813 6.66361 19.0406C6.48242 18.5998 6.47498 18.1101 6.64269 17.6644C6.81039 17.2187 7.14158 16.848 7.57335 16.6228C8.00512 16.3976 8.50742 16.3334 8.98486 16.4426L10.0148 14.6819C9.69878 14.3302 9.52506 13.8799 9.52569 13.4141C9.52569 12.8741 9.75421 12.3858 10.1232 12.0351L9.13578 10.3452C8.83553 10.4378 8.51691 10.4606 8.2058 10.4119C7.8947 10.3631 7.59988 10.2441 7.3453 10.0645C7.09072 9.88484 6.88356 9.64971 6.74065 9.37816C6.59774 9.10661 6.52311 8.8063 6.52282 8.50163C6.52282 8.1826 6.60441 7.86851 6.76033 7.58733C6.91626 7.30615 7.14167 7.06659 7.41652 6.88998C7.69136 6.71337 8.00711 6.60519 8.33567 6.57506C8.66422 6.54493 8.99538 6.59378 9.29968 6.71728C9.60397 6.84078 9.87197 7.03509 10.0798 7.28291C10.2876 7.53074 10.4289 7.82439 10.4909 8.13773C10.553 8.45107 10.534 8.77438 10.4355 9.07889C10.3371 9.3834 10.1623 9.65966 9.92669 9.88309L10.9141 11.5718C11.4191 11.4145 11.9681 11.4575 12.4404 11.6913C12.9127 11.9251 13.2696 12.3306 13.4328 12.8187H15.354C15.458 12.3948 15.707 12.0172 16.0605 11.747C16.4141 11.4769 16.8517 11.3299 17.3024 11.33ZM11.5276 12.3721C11.3839 12.3687 11.241 12.3932 11.1072 12.444C10.9735 12.4948 10.8516 12.571 10.7487 12.668C10.6458 12.7651 10.5641 12.881 10.5082 13.009C10.4524 13.1371 10.4236 13.2746 10.4236 13.4135C10.4235 13.5525 10.4522 13.69 10.508 13.8181C10.5638 13.9461 10.6454 14.0621 10.7482 14.1592C10.8511 14.2563 10.9729 14.3326 11.1066 14.3834C11.2404 14.4343 11.3833 14.4589 11.527 14.4556C11.8083 14.4492 12.0759 14.3366 12.2726 14.142C12.4693 13.9474 12.5794 13.6862 12.5795 13.4141C12.5796 13.1421 12.4696 12.8808 12.273 12.6861C12.0765 12.4914 11.8089 12.3787 11.5276 12.3721ZM8.52473 7.45958C8.23884 7.45958 7.96466 7.56937 7.7625 7.76479C7.56035 7.96021 7.44678 8.22526 7.44678 8.50163C7.44678 8.778 7.56035 9.04305 7.7625 9.23847C7.96466 9.43389 8.23884 9.54368 8.52473 9.54368C8.81062 9.54368 9.0848 9.43389 9.28696 9.23847C9.48911 9.04305 9.60268 8.778 9.60268 8.50163C9.60268 8.22526 9.48911 7.96021 9.28696 7.76479C9.0848 7.56937 8.81062 7.45958 8.52473 7.45958ZM16.2244 13.2653C16.2244 13.5416 16.338 13.8067 16.5401 14.0021C16.7423 14.1975 17.0165 14.3073 17.3024 14.3073C17.5882 14.3073 17.8624 14.1975 18.0646 14.0021C18.2667 13.8067 18.3803 13.5416 18.3803 13.2653C18.3803 12.9889 18.2667 12.7239 18.0646 12.5284C17.8624 12.333 17.5882 12.2232 17.3024 12.2232C17.0165 12.2232 16.7423 12.333 16.5401 12.5284C16.338 12.7239 16.2244 12.9889 16.2244 13.2653ZM7.44678 18.3267C7.44686 18.6031 7.56054 18.8682 7.76281 19.0636C7.96508 19.259 8.23937 19.3688 8.52535 19.3687C8.81132 19.3686 9.08555 19.2587 9.2877 19.0632C9.48986 18.8677 9.60338 18.6025 9.6033 18.3261C9.60326 18.1892 9.57533 18.0536 9.52111 17.9272C9.46688 17.8007 9.38742 17.6859 9.28727 17.5891C9.18711 17.4923 9.06822 17.4156 8.93739 17.3632C8.80655 17.3109 8.66633 17.284 8.52473 17.284C8.38313 17.284 8.24293 17.311 8.11212 17.3635C7.98132 17.4159 7.86247 17.4927 7.76237 17.5895C7.66228 17.6863 7.58289 17.8013 7.52874 17.9277C7.47459 18.0542 7.44674 18.1898 7.44678 18.3267Z" fill="#22084B"/>
</svg>
