<svg width="24" height="25" viewBox="0 0 24 25" fill="none" xmlns="http://www.w3.org/2000/svg">
<rect y="0.957031" width="24" height="24" rx="12" fill="#F3EDFD"/>
<path d="M10.3838 11.5208C10.714 11.5208 11.041 11.4558 11.346 11.3294C11.6511 11.2031 11.9283 11.0179 12.1617 10.7844C12.3952 10.5509 12.5804 10.2738 12.7068 9.9687C12.8331 9.66365 12.8982 9.3367 12.8982 9.00651C12.8982 8.67633 12.8331 8.34937 12.7068 8.04432C12.5804 7.73927 12.3952 7.46209 12.1617 7.22862C11.9283 6.99514 11.6511 6.80994 11.346 6.68358C11.041 6.55722 10.714 6.49219 10.3838 6.49219C9.71699 6.49219 9.07746 6.75709 8.60594 7.22862C8.13441 7.70014 7.86951 8.33967 7.86951 9.00651C7.86951 9.67335 8.13441 10.3129 8.60594 10.7844C9.07746 11.2559 9.71699 11.5208 10.3838 11.5208Z" stroke="#22084B" stroke-width="1.2" stroke-linejoin="round"/>
<path d="M16.8491 15.1129V18.7048M16.8491 15.1129L18.2859 16.5497M16.8491 15.1129L15.4123 16.5497M13.2572 14.3945H10.3119C8.70269 14.3945 7.8981 14.3945 7.28317 14.7077C6.74251 14.9832 6.30294 15.4228 6.02745 15.9635C5.71423 16.5784 5.71423 17.383 5.71423 18.9922V19.4232H13.2572" stroke="#22084B" stroke-width="1.2" stroke-linecap="round" stroke-linejoin="round"/>
</svg>
