<svg width="23" height="22" viewBox="0 0 23 22" fill="none" xmlns="http://www.w3.org/2000/svg">
<rect x="0.5" width="22" height="22" rx="11" fill="#F3EDFD"/>
<path d="M8.50025 14.1562H9.62475C9.81379 14.1562 9.97033 14.094 10.0944 13.9694C10.2184 13.8448 10.2807 13.6882 10.2812 13.4997V12.3752C10.2812 12.1867 10.219 12.0302 10.0944 11.9056C9.96979 11.781 9.81325 11.7187 9.62475 11.7187H8.50025C8.31175 11.7187 8.15521 11.781 8.03062 11.9056C7.90604 12.0302 7.84375 12.1867 7.84375 12.3752V13.4997C7.84375 13.6882 7.90604 13.8448 8.03062 13.9694C8.15521 14.094 8.31175 14.1562 8.50025 14.1562ZM13.3752 14.1562H14.4997C14.6888 14.1562 14.8453 14.094 14.9694 13.9694C15.0934 13.8448 15.1557 13.6882 15.1562 13.4997V12.3752C15.1562 12.1862 15.094 12.0297 14.9694 11.9056C14.8448 11.7816 14.6882 11.7193 14.4997 11.7187H13.3752C13.1867 11.7187 13.0302 11.781 12.9056 11.9056C12.781 12.0302 12.7187 12.1867 12.7187 12.3752V13.4997C12.7187 13.6882 12.781 13.8448 12.9056 13.9694C13.0302 14.094 13.1867 14.1562 13.3752 14.1562ZM8.50025 9.28125H9.62475C9.81325 9.28125 9.96979 9.21896 10.0944 9.09437C10.219 8.96979 10.2812 8.81325 10.2812 8.62475V7.50025C10.2812 7.31121 10.219 7.15467 10.0944 7.03062C9.96979 6.90658 9.81325 6.84429 9.62475 6.84375H8.50025C8.31175 6.84375 8.15521 6.90604 8.03062 7.03062C7.90604 7.15521 7.84375 7.31175 7.84375 7.50025V8.62475C7.84375 8.81379 7.90604 8.97033 8.03062 9.09437C8.15521 9.21842 8.31175 9.28071 8.50025 9.28125ZM13.3752 9.28125H14.4997C14.6888 9.28125 14.8453 9.21896 14.9694 9.09437C15.0934 8.96979 15.1557 8.81325 15.1562 8.62475V7.50025C15.1562 7.31175 15.094 7.15521 14.9694 7.03062C14.8448 6.90604 14.6882 6.84375 14.4997 6.84375H13.3752C13.1867 6.84375 13.0302 6.90604 12.9056 7.03062C12.781 7.15521 12.7187 7.31175 12.7187 7.50025V8.62475C12.7187 8.81379 12.781 8.97033 12.9056 9.09437C13.0302 9.21842 13.1867 9.28071 13.3752 9.28125ZM6.313 17C5.93871 17 5.62644 16.8749 5.37619 16.6246C5.12594 16.3744 5.00054 16.0618 5 15.687V5.313C5 4.93871 5.1254 4.62644 5.37619 4.37619C5.62698 4.12594 5.93925 4.00054 6.313 4H16.6878C17.0616 4 17.3738 4.1254 17.6246 4.37619C17.8754 4.62698 18.0005 4.93925 18 5.313V15.6878C18 16.0616 17.8749 16.3738 17.6246 16.6246C17.3744 16.8754 17.0618 17.0005 16.687 17H6.313ZM6.313 16.1875H16.6878C16.8124 16.1875 16.927 16.1355 17.0315 16.0315C17.136 15.9275 17.188 15.8127 17.1875 15.687V5.313C17.1875 5.18787 17.1355 5.07304 17.0315 4.9685C16.9275 4.86396 16.8127 4.81196 16.687 4.8125H6.313C6.18787 4.8125 6.07304 4.8645 5.9685 4.9685C5.86396 5.0725 5.81196 5.18733 5.8125 5.313V15.6878C5.8125 15.8124 5.8645 15.927 5.9685 16.0315C6.0725 16.136 6.18706 16.188 6.31219 16.1875" fill="#22084B"/>
</svg>
