<svg width="87" height="88" viewBox="0 0 87 88" fill="none" xmlns="http://www.w3.org/2000/svg">
<rect x="1" y="1.5" width="85" height="85" rx="42.5" fill="#EEF4F6"/>
<rect x="1" y="1.5" width="85" height="85" rx="42.5" stroke="white" stroke-width="2"/>
<path d="M43.4999 51.1248V20.25M43.4999 20.25L50.6249 28.5624M43.4999 20.25L36.375 28.5624" stroke="#22084B" stroke-width="3" stroke-linecap="round" stroke-linejoin="round"/>
<path d="M33.9999 67.7528H52.9997C59.7162 67.7528 63.0768 67.7528 65.162 65.6676C67.2496 63.5776 67.2496 60.2218 67.2496 53.5029V51.128C67.2496 44.4115 67.2496 41.0533 65.162 38.9657C63.338 37.1417 60.5403 36.9113 55.3747 36.8828M31.6249 36.8828C26.4593 36.9113 23.6616 37.1417 21.8376 38.9657C19.75 41.0533 19.75 44.4115 19.75 51.128V53.5029C19.75 60.2218 19.75 63.58 21.8376 65.6676C22.5501 66.3801 23.4098 66.848 24.5 67.1567" stroke="#22084B" stroke-width="3" stroke-linecap="round"/>
</svg>
