<svg width="32" height="32" viewBox="0 0 32 32" fill="none" xmlns="http://www.w3.org/2000/svg">
<rect width="32" height="32" rx="16" fill="#F3EDFD"/>
<path d="M8.5 14.3346C8.5 11.1921 8.5 9.62047 9.47667 8.64464C10.4533 7.6688 12.0242 7.66797 15.1667 7.66797H16.8333C19.9758 7.66797 21.5475 7.66797 22.5233 8.64464C23.4992 9.6213 23.5 11.1921 23.5 14.3346V17.668C23.5 20.8105 23.5 22.3821 22.5233 23.358C21.5467 24.3338 19.9758 24.3346 16.8333 24.3346H15.1667C12.0242 24.3346 10.4525 24.3346 9.47667 23.358C8.50083 22.3813 8.5 20.8105 8.5 17.668V14.3346Z" stroke="#22084B" stroke-width="1.4"/>
<path d="M12.6667 16.0013H19.3334M12.6667 12.668H19.3334M12.6667 19.3346H16.8334" stroke="#22084B" stroke-width="1.4" stroke-linecap="round"/>
</svg>
