<svg width="23" height="22" viewBox="0 0 23 22" fill="none" xmlns="http://www.w3.org/2000/svg">
<rect x="0.5" width="22" height="22" rx="11" fill="#F3EDFD"/>
<path d="M6.25 9.83464C6.25 7.63489 6.25 6.53472 6.93367 5.85164C7.61733 5.16855 8.71692 5.16797 10.9167 5.16797H12.0833C14.2831 5.16797 15.3832 5.16797 16.0663 5.85164C16.7494 6.5353 16.75 7.63489 16.75 9.83464V12.168C16.75 14.3677 16.75 15.4679 16.0663 16.151C15.3827 16.8341 14.2831 16.8346 12.0833 16.8346H10.9167C8.71692 16.8346 7.61675 16.8346 6.93367 16.151C6.25058 15.4673 6.25 14.3677 6.25 12.168V9.83464Z" stroke="#22084B"/>
<path d="M9.16663 11.0013H13.8333M9.16663 8.66797H13.8333M9.16663 13.3346H12.0833" stroke="#22084B" stroke-linecap="round"/>
</svg>
