<svg width="24" height="25" viewBox="0 0 24 25" fill="none" xmlns="http://www.w3.org/2000/svg">
<rect y="0.257812" width="24" height="24" rx="12" fill="#F3EDFD"/>
<path d="M17.3024 10.6308C17.6784 10.6309 18.0469 10.7334 18.3655 10.9266C18.6841 11.1197 18.94 11.3957 19.1039 11.723C19.2677 12.0502 19.3329 12.4155 19.2919 12.7769C19.2509 13.1383 19.1055 13.4812 18.8722 13.7664C18.6389 14.0516 18.3273 14.2675 17.9729 14.3893C17.6186 14.5112 17.2359 14.5341 16.8687 14.4554C16.5016 14.3768 16.1647 14.1997 15.8968 13.9445C15.6289 13.6894 15.4408 13.3664 15.354 13.0126H13.5061C13.4595 13.3015 13.3458 13.5763 13.1736 13.8166C13.0014 14.057 12.7752 14.2565 12.5119 14.4002C12.2486 14.5439 11.955 14.6282 11.6533 14.6466C11.3515 14.6651 11.0493 14.6172 10.7693 14.5066L9.8115 16.1447C10.1872 16.4498 10.4339 16.8775 10.5049 17.3468C10.5758 17.8161 10.466 18.2943 10.1963 18.6905C9.92664 19.0867 9.51583 19.3733 9.04191 19.496C8.56799 19.6187 8.06396 19.5689 7.62553 19.356C7.1871 19.1432 6.84479 18.7821 6.66361 18.3413C6.48242 17.9006 6.47498 17.4109 6.64269 16.9651C6.81039 16.5194 7.14158 16.1488 7.57335 15.9236C8.00512 15.6983 8.50742 15.6342 8.98486 15.7434L10.0148 13.9826C9.69878 13.631 9.52506 13.1807 9.52569 12.7149C9.52569 12.1748 9.75421 11.6866 10.1232 11.3358L9.13578 9.64594C8.83553 9.73857 8.51691 9.76143 8.2058 9.71265C7.8947 9.66388 7.59988 9.54485 7.3453 9.36524C7.09072 9.18562 6.88356 8.95049 6.74065 8.67894C6.59774 8.40739 6.52311 8.10708 6.52282 7.80241C6.52282 7.48338 6.60441 7.16929 6.76033 6.88811C6.91626 6.60693 7.14167 6.36737 7.41652 6.19076C7.69136 6.01415 8.00711 5.90597 8.33567 5.87584C8.66422 5.84571 8.99538 5.89457 9.29968 6.01806C9.60397 6.14156 9.87197 6.33587 10.0798 6.58369C10.2876 6.83152 10.4289 7.12517 10.4909 7.43851C10.553 7.75185 10.534 8.07517 10.4355 8.37968C10.3371 8.68419 10.1623 8.96045 9.92669 9.18387L10.9141 10.8726C11.4191 10.7153 11.9681 10.7583 12.4404 10.9921C12.9127 11.2259 13.2696 11.6314 13.4328 12.1195H15.354C15.458 11.6955 15.707 11.318 16.0605 11.0478C16.4141 10.7776 16.8517 10.6307 17.3024 10.6308ZM11.5276 11.6729C11.3839 11.6695 11.241 11.694 11.1072 11.7448C10.9735 11.7956 10.8516 11.8718 10.7487 11.9688C10.6458 12.0659 10.5641 12.1818 10.5082 12.3098C10.4524 12.4378 10.4236 12.5754 10.4236 12.7143C10.4235 12.8533 10.4522 12.9908 10.508 13.1189C10.5638 13.2469 10.6454 13.3629 10.7482 13.46C10.8511 13.5571 10.9729 13.6333 11.1066 13.6842C11.2404 13.7351 11.3833 13.7597 11.527 13.7564C11.8083 13.7499 12.0759 13.6374 12.2726 13.4428C12.4693 13.2482 12.5794 12.987 12.5795 12.7149C12.5796 12.4429 12.4696 12.1816 12.273 11.9868C12.0765 11.7921 11.8089 11.6795 11.5276 11.6729ZM8.52473 6.76036C8.23884 6.76036 7.96466 6.87015 7.7625 7.06557C7.56035 7.26099 7.44678 7.52604 7.44678 7.80241C7.44678 8.07878 7.56035 8.34383 7.7625 8.53925C7.96466 8.73467 8.23884 8.84446 8.52473 8.84446C8.81062 8.84446 9.0848 8.73467 9.28696 8.53925C9.48911 8.34383 9.60268 8.07878 9.60268 7.80241C9.60268 7.52604 9.48911 7.26099 9.28696 7.06557C9.0848 6.87015 8.81062 6.76036 8.52473 6.76036ZM16.2244 12.5661C16.2244 12.8424 16.338 13.1075 16.5401 13.3029C16.7423 13.4983 17.0165 13.6081 17.3024 13.6081C17.5882 13.6081 17.8624 13.4983 18.0646 13.3029C18.2667 13.1075 18.3803 12.8424 18.3803 12.5661C18.3803 12.2897 18.2667 12.0246 18.0646 11.8292C17.8624 11.6338 17.5882 11.524 17.3024 11.524C17.0165 11.524 16.7423 11.6338 16.5401 11.8292C16.338 12.0246 16.2244 12.2897 16.2244 12.5661ZM7.44678 17.6274C7.44686 17.9039 7.56054 18.169 7.76281 18.3644C7.96508 18.5598 8.23937 18.6696 8.52535 18.6695C8.81132 18.6694 9.08555 18.5595 9.2877 18.364C9.48986 18.1684 9.60338 17.9033 9.6033 17.6268C9.60326 17.49 9.57533 17.3544 9.52111 17.228C9.46688 17.1015 9.38742 16.9866 9.28727 16.8899C9.18711 16.7931 9.06822 16.7164 8.93739 16.664C8.80655 16.6117 8.66633 16.5848 8.52473 16.5848C8.38313 16.5848 8.24293 16.6118 8.11212 16.6642C7.98132 16.7167 7.86247 16.7935 7.76237 16.8903C7.66228 16.9871 7.58289 17.102 7.52874 17.2285C7.47459 17.355 7.44674 17.4906 7.44678 17.6274Z" fill="#22084B"/>
</svg>
