<svg width="20" height="20" viewBox="0 0 20 20" fill="none" xmlns="http://www.w3.org/2000/svg">
<g clip-path="url(#clip0_1360_33589)">
<path d="M8.45714 3.67027H7.47571C7.23437 3.67126 6.99894 3.745 6.80016 3.88186C6.60138 4.01871 6.44848 4.21232 6.36142 4.43741L5.84714 5.76599L4.07571 6.77027L2.66428 6.55599C2.42919 6.52436 2.19 6.56312 1.97692 6.66737C1.76385 6.77162 1.58645 6.93668 1.46714 7.1417L0.988566 7.98027C0.866536 8.18896 0.810383 8.42964 0.827462 8.67079C0.844541 8.91193 0.934056 9.14229 1.08428 9.3317L1.98142 10.446V12.456L1.10857 13.5703C0.958342 13.7597 0.868827 13.99 0.851748 14.2312C0.834669 14.4723 0.890822 14.713 1.01285 14.9217L1.49142 15.7588C1.61054 15.9641 1.78785 16.1295 2.00094 16.234C2.21403 16.3385 2.45333 16.3775 2.68857 16.346L4.1 16.1317L5.84714 17.136L6.36142 18.4646C6.4487 18.6894 6.6017 18.8827 6.80047 19.0193C6.99923 19.1559 7.23454 19.2294 7.47571 19.2303H8.48142C8.72235 19.2291 8.95735 19.1554 9.15583 19.0189C9.35431 18.8823 9.50709 18.6892 9.59428 18.4646L10.1086 17.136L11.8557 16.1303L13.2686 16.346C13.5037 16.3776 13.7429 16.3389 13.9559 16.2346C14.169 16.1304 14.3464 15.9653 14.4657 15.7603L14.9443 14.9217C15.0666 14.7129 15.123 14.4719 15.1059 14.2305C15.0888 13.989 14.9991 13.7584 14.8486 13.5688L13.95 12.456V11.1603M5.57285 11.4503C5.56505 11.7695 5.6212 12.0871 5.73798 12.3843C5.85476 12.6816 6.02982 12.9524 6.25286 13.181C6.47589 13.4095 6.7424 13.5911 7.03668 13.7151C7.33096 13.8392 7.64708 13.903 7.96642 13.903C8.28577 13.903 8.60188 13.8392 8.89617 13.7151C9.19045 13.5911 9.45696 13.4095 9.67999 13.181C9.90303 12.9524 10.0781 12.6816 10.1949 12.3843C10.3117 12.0871 10.3678 11.7695 10.36 11.4503C10.3447 10.8256 10.0859 10.2316 9.63864 9.79518C9.19142 9.35876 8.5913 9.11447 7.96642 9.11447C7.34155 9.11447 6.74143 9.35876 6.29421 9.79518C5.84699 10.2316 5.58811 10.8256 5.57285 11.4503ZM11.5714 5.05884C11.1343 4.98313 11.1343 4.35313 11.5714 4.27741C12.3489 4.14236 13.0685 3.77875 13.6384 3.23298C14.2084 2.68721 14.6028 1.98402 14.7714 1.21313L14.7971 1.0917C14.8929 0.658843 15.51 0.655986 15.6086 1.08884L15.6414 1.22884C15.8157 1.99601 16.2131 2.69444 16.7835 3.23618C17.354 3.77791 18.072 4.13871 18.8471 4.27313C19.2886 4.35027 19.2886 4.98313 18.8471 5.05884C18.072 5.19326 17.354 5.55406 16.7835 6.09579C16.2131 6.63753 15.8157 7.33597 15.6414 8.10313L15.6086 8.24456C15.51 8.67741 14.8929 8.67313 14.7971 8.24027L14.7714 8.12027C14.6028 7.35003 14.2086 6.64744 13.6393 6.10198C13.0699 5.55652 12.351 5.19289 11.5743 5.05741L11.5714 5.05884Z" stroke="#1A1A1A" stroke-width="1.3" stroke-linecap="round" stroke-linejoin="round"/>
</g>
<defs>
<clipPath id="clip0_1360_33589">
<rect width="20" height="20" fill="white"/>
</clipPath>
</defs>
</svg>
