<svg width="24" height="24" viewBox="0 0 24 24" fill="none" xmlns="http://www.w3.org/2000/svg">
<rect width="24" height="24" rx="12" fill="#F3EDFD"/>
<path d="M18 17C17.911 17 17.8265 17.015 17.7445 17.037L17.2165 16.5095C17.3925 16.212 17.5 15.8695 17.5 15.5C17.5 15.1305 17.3925 14.788 17.2165 14.4905L17.744 13.963C17.8265 13.9845 17.911 14 18 14C18.1978 14 18.3911 13.9414 18.5556 13.8315C18.72 13.7216 18.8482 13.5654 18.9239 13.3827C18.9996 13.2 19.0194 12.9989 18.9808 12.8049C18.9422 12.6109 18.847 12.4327 18.7071 12.2929C18.5673 12.153 18.3891 12.0578 18.1951 12.0192C18.0011 11.9806 17.8 12.0004 17.6173 12.0761C17.4346 12.1518 17.2784 12.28 17.1685 12.4444C17.0586 12.6089 17 12.8022 17 13C17 13.089 17.015 13.1735 17.037 13.256L16.5095 13.7835C16.212 13.6075 15.8695 13.5 15.5 13.5C15.1305 13.5 14.788 13.6075 14.4905 13.7835L13.963 13.256C13.9845 13.1735 14 13.089 14 13C14 12.8022 13.9414 12.6089 13.8315 12.4444C13.7216 12.28 13.5654 12.1518 13.3827 12.0761C13.2 12.0004 12.9989 11.9806 12.8049 12.0192C12.6109 12.0578 12.4327 12.153 12.2929 12.2929C12.153 12.4327 12.0578 12.6109 12.0192 12.8049C11.9806 12.9989 12.0004 13.2 12.0761 13.3827C12.1518 13.5654 12.28 13.7216 12.4444 13.8315C12.6089 13.9414 12.8022 14 13 14C13.089 14 13.1735 13.985 13.256 13.963L13.7835 14.4905C13.6075 14.788 13.5 15.1305 13.5 15.5C13.5 15.8695 13.6075 16.212 13.7835 16.5095L13.256 17.037C13.1726 17.0136 13.0866 17.0012 13 17C12.8022 17 12.6089 17.0586 12.4444 17.1685C12.28 17.2784 12.1518 17.4346 12.0761 17.6173C12.0004 17.8 11.9806 18.0011 12.0192 18.1951C12.0578 18.3891 12.153 18.5673 12.2929 18.7071C12.4327 18.847 12.6109 18.9422 12.8049 18.9808C12.9989 19.0194 13.2 18.9996 13.3827 18.9239C13.5654 18.8482 13.7216 18.72 13.8315 18.5556C13.9414 18.3911 14 18.1978 14 18C14 17.911 13.985 17.8265 13.963 17.744L14.4905 17.2165C14.788 17.3925 15.1305 17.5 15.5 17.5C15.8695 17.5 16.212 17.3925 16.5095 17.2165L17.037 17.744C17.0136 17.8274 17.0012 17.9134 17 18C17 18.1978 17.0586 18.3911 17.1685 18.5556C17.2784 18.72 17.4346 18.8482 17.6173 18.9239C17.8 18.9996 18.0011 19.0194 18.1951 18.9808C18.3891 18.9422 18.5673 18.847 18.7071 18.7071C18.847 18.5673 18.9422 18.3891 18.9808 18.1951C19.0194 18.0011 18.9996 17.8 18.9239 17.6173C18.8482 17.4346 18.72 17.2784 18.5556 17.1685C18.3911 17.0586 18.1978 17 18 17ZM14.5 15.5C14.5 14.949 14.9485 14.5 15.5 14.5C16.0515 14.5 16.5 14.949 16.5 15.5C16.5 16.051 16.0515 16.5 15.5 16.5C14.9485 16.5 14.5 16.0515 14.5 15.5Z" fill="#22084B"/>
<path d="M15 10C15.5523 10 16 9.55228 16 9C16 8.44772 15.5523 8 15 8C14.4477 8 14 8.44772 14 9C14 9.55228 14.4477 10 15 10Z" fill="#22084B"/>
<path d="M14.5 5C12.0185 5 10 7.0185 10 9.5C10 9.8895 10.0495 10.2735 10.147 10.6455L5 15.793V19H8.207L11.707 15.5L10.3535 14.1465L9.6465 14.8535L10.293 15.5L9.498 16.295L8.8545 15.6475L8.1455 16.3525L8.7905 17.002L7.7935 18H6V16.207L10.856 11.351L11.284 10.9175L11.1845 10.625C11.0066 10.0982 10.9567 9.53667 11.0387 8.98676C11.1208 8.43685 11.3326 7.91436 11.6565 7.46248C11.9804 7.01059 12.4073 6.64228 12.9017 6.38798C13.3961 6.13368 13.944 6.00069 14.5 6C16.43 6 18.0005 7.57 18.0005 9.5H19.0005C19.0005 7.0185 16.9815 5 14.5 5Z" fill="#22084B"/>
</svg>
