<svg width="20" height="20" viewBox="0 0 20 20" fill="none" xmlns="http://www.w3.org/2000/svg">
<path d="M19.8169 12.0581L17.9419 10.1831C17.8247 10.066 17.6657 10.0001 17.5 10.0001C17.3343 10.0001 17.1753 10.066 17.0581 10.1831L11.25 15.9913V18.75H14.0087L19.8169 12.9419C19.934 12.8247 19.9999 12.6657 19.9999 12.5C19.9999 12.3343 19.934 12.1753 19.8169 12.0581ZM13.4913 17.5H12.5V16.5087L15.625 13.3837L16.6163 14.375L13.4913 17.5ZM17.5 13.4913L16.5087 12.5L17.5 11.5087L18.4913 12.5L17.5 13.4913ZM10 13.75C7.8975 13.75 6.25 12.1025 6.25 10C6.25 7.8975 7.8975 6.25 10 6.25C12.1025 6.25 13.75 7.8975 13.75 10C13.75 12.1025 12.1025 13.75 10 13.75ZM10 7.5C8.575 7.5 7.5 8.575 7.5 10C7.5 11.425 8.575 12.5 10 12.5C11.425 12.5 12.5 11.425 12.5 10C12.5 8.575 11.425 7.5 10 7.5Z" fill="#22084B"/>
<path d="M17.2168 7.5L18.2999 6.875L16.8399 4.3475C16.6954 4.0973 16.4687 3.9049 16.1983 3.80303C15.9279 3.70116 15.6305 3.69611 15.3568 3.78875L13.8356 4.30313C13.5735 4.12655 13.2995 3.96826 13.0156 3.82938L12.7012 2.25438C12.6444 1.97102 12.4912 1.71609 12.2676 1.53297C12.0441 1.34985 11.7639 1.24986 11.4749 1.25H8.52495C8.23587 1.24989 7.95568 1.34997 7.7321 1.53321C7.50852 1.71645 7.35536 1.97153 7.2987 2.255L6.98432 3.82938C6.69682 3.96938 6.41807 4.1225 6.15495 4.3L4.64245 3.78875C4.36875 3.69611 4.07141 3.70116 3.80101 3.80303C3.53061 3.9049 3.30386 4.0973 3.15932 4.3475L1.68432 6.9025C1.5399 7.15275 1.48663 7.4453 1.53358 7.7304C1.58053 8.01549 1.72479 8.27552 1.94182 8.46625L3.1487 9.52687C3.13807 9.68437 3.12495 9.84062 3.12495 10C3.12495 10.1613 3.13078 10.3208 3.14245 10.4788L1.94245 11.5338C1.72531 11.7244 1.58093 11.9844 1.53387 12.2695C1.48681 12.5546 1.53997 12.8472 1.68432 13.0975L3.15932 15.6525C3.30388 15.9028 3.53074 16.0953 3.80128 16.1972C4.07181 16.2991 4.36929 16.304 4.64307 16.2113L6.16432 15.6969C6.42557 15.8731 6.6989 16.031 6.98432 16.1706L7.2987 17.745C7.35536 18.0285 7.50852 18.2835 7.7321 18.4668C7.95568 18.65 8.23587 18.7501 8.52495 18.75H9.99995V17.5H8.52495L8.0812 15.2812C7.46736 15.0532 6.89753 14.7208 6.39682 14.2987L4.24245 15.0275L2.76745 12.4725L4.47057 10.9756C4.35371 10.3293 4.35223 9.66744 4.4662 9.02062L2.76682 7.52688L4.24245 4.9725L6.38432 5.6975C6.88835 5.27451 7.46268 4.94324 8.0812 4.71875L8.52495 2.5H11.4756L11.9193 4.71875C12.5332 4.94684 13.103 5.27923 13.6037 5.70125L15.7581 4.9725L17.2168 7.5Z" fill="#22084B"/>
</svg>
