<svg width="32" height="32" viewBox="0 0 32 32" fill="none" xmlns="http://www.w3.org/2000/svg">
<rect width="32" height="32" rx="16" fill="#F3EDFD"/>
<g clip-path="url(#clip0_1362_37885)">
<path d="M10.2857 12.5714C10.2857 12.2683 10.4061 11.9776 10.6204 11.7633C10.8348 11.549 11.1255 11.4286 11.4286 11.4286H20.5714C20.8745 11.4286 21.1652 11.549 21.3796 11.7633C21.5939 11.9776 21.7143 12.2683 21.7143 12.5714V14.8571C21.7143 15.1602 21.5939 15.4509 21.3796 15.6653C21.1652 15.8796 20.8745 16 20.5714 16H11.4286C11.1255 16 10.8348 15.8796 10.6204 15.6653C10.4061 15.4509 10.2857 15.1602 10.2857 14.8571V12.5714ZM20.5714 12.5714H11.4286V14.8571H20.5714V12.5714ZM18.2857 17.1429C17.9826 17.1429 17.6919 17.2633 17.4776 17.4776C17.2633 17.6919 17.1429 17.9826 17.1429 18.2857V19.4286C17.1429 19.7317 17.2633 20.0224 17.4776 20.2367C17.6919 20.451 17.9826 20.5714 18.2857 20.5714H20.5714C20.8745 20.5714 21.1652 20.451 21.3796 20.2367C21.5939 20.0224 21.7143 19.7317 21.7143 19.4286V18.2857C21.7143 17.9826 21.5939 17.6919 21.3796 17.4776C21.1652 17.2633 20.8745 17.1429 20.5714 17.1429H18.2857ZM18.2857 18.2857H20.5714V19.4286H18.2857V18.2857ZM10.2857 17.7143C10.2857 17.5627 10.3459 17.4174 10.4531 17.3102C10.5602 17.2031 10.7056 17.1429 10.8571 17.1429H15.4286C15.5801 17.1429 15.7255 17.2031 15.8326 17.3102C15.9398 17.4174 16 17.5627 16 17.7143C16 17.8658 15.9398 18.0112 15.8326 18.1183C15.7255 18.2255 15.5801 18.2857 15.4286 18.2857H10.8571C10.7056 18.2857 10.5602 18.2255 10.4531 18.1183C10.3459 18.0112 10.2857 17.8658 10.2857 17.7143ZM10.8571 19.4286C10.7056 19.4286 10.5602 19.4888 10.4531 19.5959C10.3459 19.7031 10.2857 19.8484 10.2857 20C10.2857 20.1516 10.3459 20.2969 10.4531 20.4041C10.5602 20.5112 10.7056 20.5714 10.8571 20.5714H15.4286C15.5801 20.5714 15.7255 20.5112 15.8326 20.4041C15.9398 20.2969 16 20.1516 16 20C16 19.8484 15.9398 19.7031 15.8326 19.5959C15.7255 19.4888 15.5801 19.4286 15.4286 19.4286H10.8571ZM8 11.4286C8 10.5193 8.36122 9.64719 9.00421 9.00421C9.64719 8.36122 10.5193 8 11.4286 8H20.5714C21.4807 8 22.3528 8.36122 22.9958 9.00421C23.6388 9.64719 24 10.5193 24 11.4286V20.5714C24 21.4807 23.6388 22.3528 22.9958 22.9958C22.3528 23.6388 21.4807 24 20.5714 24H11.4286C10.5193 24 9.64719 23.6388 9.00421 22.9958C8.36122 22.3528 8 21.4807 8 20.5714V11.4286ZM11.4286 9.14286C10.8224 9.14286 10.241 9.38367 9.81233 9.81233C9.38367 10.241 9.14286 10.8224 9.14286 11.4286V20.5714C9.14286 21.1776 9.38367 21.759 9.81233 22.1877C10.241 22.6163 10.8224 22.8571 11.4286 22.8571H20.5714C21.1776 22.8571 21.759 22.6163 22.1877 22.1877C22.6163 21.759 22.8571 21.1776 22.8571 20.5714V11.4286C22.8571 10.8224 22.6163 10.241 22.1877 9.81233C21.759 9.38367 21.1776 9.14286 20.5714 9.14286H11.4286Z" fill="#22084B"/>
</g>
<defs>
<clipPath id="clip0_1362_37885">
<rect width="16" height="16" fill="white" transform="translate(8 8)"/>
</clipPath>
</defs>
</svg>
