<svg width="32" height="32" viewBox="0 0 32 32" fill="none" xmlns="http://www.w3.org/2000/svg">
<rect width="32" height="32" rx="16" fill="#F3EDFD"/>
<g clip-path="url(#clip0_1360_37642)">
<path d="M18.5 11.5005C19.0304 11.5005 19.5391 11.7112 19.9142 12.0862C20.2893 12.4613 20.5 12.97 20.5 13.5005M22.5 13.5005C22.5001 14.0839 22.3726 14.6602 22.1263 15.1891C21.8801 15.7181 21.5212 16.1867 21.0747 16.5622C20.6282 16.9378 20.105 17.2111 19.5417 17.363C18.9785 17.515 18.3888 17.5418 17.814 17.4418C17.4387 17.3771 17.0413 17.4591 16.772 17.7285L15 19.5005H13.5V21.0005H12V22.5005H9.5V20.6218C9.5 20.2238 9.658 19.8418 9.93933 19.5611L14.272 15.2285C14.5413 14.9591 14.6233 14.5618 14.5587 14.1865C14.4641 13.6406 14.484 13.081 14.6171 12.5432C14.7501 12.0054 14.9935 11.5011 15.3317 11.0623C15.6698 10.6234 16.0955 10.2597 16.5816 9.99395C17.0678 9.72825 17.6038 9.56643 18.1557 9.51875C18.7077 9.47107 19.2636 9.53857 19.7881 9.71697C20.3126 9.89537 20.7943 10.1808 21.2027 10.5551C21.6111 10.9295 21.9373 11.3845 22.1606 11.8916C22.384 12.3986 22.4995 12.9464 22.5 13.5005Z" stroke="#22084B" stroke-width="1.2" stroke-linecap="round" stroke-linejoin="round"/>
</g>
<defs>
<clipPath id="clip0_1360_37642">
<rect width="16" height="16" fill="white" transform="translate(8 8)"/>
</clipPath>
</defs>
</svg>
