<svg width="32" height="32" viewBox="0 0 32 32" fill="none" xmlns="http://www.w3.org/2000/svg">
<rect width="32" height="32" rx="16" fill="#F3EDFD"/>
<path d="M10 21V11.25M23 11.25V21" stroke="#22084B" stroke-width="1.5" stroke-linecap="round"/>
<path d="M23 16.125C23 17.9206 20.0896 19.375 16.5 19.375C12.9104 19.375 10 17.9206 10 16.125M23 21C23 22.7956 20.0896 24.25 16.5 24.25C12.9104 24.25 10 22.7956 10 21M16.5 14.5C20.0896 14.5 23 13.0456 23 11.25C23 9.45437 20.0896 8 16.5 8C12.9104 8 10 9.45437 10 11.25C10 13.0456 12.9104 14.5 16.5 14.5Z" stroke="#22084B" stroke-width="1.5"/>
</svg>
