<svg width="24" height="24" viewBox="0 0 24 24" fill="none" xmlns="http://www.w3.org/2000/svg">
<rect width="24" height="24" rx="12" fill="#F3EDFD"/>
<path d="M19.8534 4.85456C19.9473 4.76068 20 4.63336 20 4.50059C20 4.36783 19.9473 4.2405 19.8534 4.14662C19.7595 4.05274 19.6322 4 19.4994 4C19.3666 4 19.2393 4.05274 19.1454 4.14662L16.4776 6.81541C15.7013 6.21132 14.7311 5.91158 13.7493 5.97253C12.7675 6.03348 11.8417 6.45092 11.1461 7.14638L10.8461 7.44636C10.7076 7.58472 10.5978 7.74902 10.5228 7.92985C10.4479 8.11069 10.4093 8.30452 10.4093 8.50028C10.4093 8.69603 10.4479 8.88986 10.5228 9.0707C10.5978 9.25153 10.7076 9.41583 10.8461 9.55419L14.4458 13.1539C14.7252 13.4333 15.1041 13.5902 15.4992 13.5902C15.8943 13.5902 16.2732 13.4333 16.5526 13.1539L16.8526 12.8539C17.5482 12.1584 17.9659 11.2327 18.027 10.2509C18.0881 9.26913 17.7885 8.29882 17.1846 7.52235L19.8534 4.85456ZM15.8457 12.446C15.8002 12.4915 15.7462 12.5276 15.6867 12.5522C15.6273 12.5768 15.5636 12.5895 15.4992 12.5895C15.4349 12.5895 15.3712 12.5768 15.3117 12.5522C15.2523 12.5276 15.1982 12.4915 15.1528 12.446L11.553 8.84625C11.4614 8.7544 11.41 8.62999 11.41 8.50028C11.41 8.37057 11.4614 8.24615 11.553 8.1543L11.853 7.85433C12.4263 7.30573 13.1916 7.00342 13.9851 7.01211C14.7785 7.0208 15.537 7.33981 16.0982 7.90083C16.6593 8.46185 16.9785 9.22028 16.9874 10.0137C16.9963 10.8072 16.6941 11.5726 16.1457 12.146L15.8457 12.446ZM9.55419 10.8461C9.27479 10.5667 8.89587 10.4098 8.50078 10.4098C8.10568 10.4098 7.72676 10.5667 7.44736 10.8461L7.14738 11.1461C6.45177 11.8416 6.03415 12.7673 5.97302 13.7491C5.91189 14.7309 6.21145 15.7012 6.81541 16.4776L4.14662 19.1454C4.05274 19.2393 4 19.3666 4 19.4994C4 19.6322 4.05274 19.7595 4.14662 19.8534C4.2405 19.9473 4.36783 20 4.50059 20C4.63336 20 4.76068 19.9473 4.85456 19.8534L7.52235 17.1846C8.29882 17.7885 9.26913 18.0881 10.2509 18.027C11.2327 17.9659 12.1584 17.5482 12.8539 16.8526L13.1539 16.5526C13.4333 16.2732 13.5902 15.8943 13.5902 15.4992C13.5902 15.1041 13.4333 14.7252 13.1539 14.4458L9.55419 10.8461ZM8.1543 11.554C8.1998 11.5085 8.25382 11.4724 8.31326 11.4478C8.37271 11.4232 8.43643 11.4105 8.50078 11.4105C8.56512 11.4105 8.62884 11.4232 8.68829 11.4478C8.74774 11.4724 8.80175 11.5085 8.84725 11.554L12.447 15.1538C12.5386 15.2456 12.59 15.37 12.59 15.4997C12.59 15.6294 12.5386 15.7538 12.447 15.8457L12.147 16.1457C11.8652 16.4275 11.5306 16.6511 11.1624 16.8037C10.7942 16.9563 10.3996 17.0348 10.001 17.0349C9.60245 17.0349 9.20778 16.9564 8.83953 16.804C8.47129 16.6515 8.13669 16.428 7.85483 16.1462C7.57297 15.8644 7.34937 15.5298 7.1968 15.1616C7.04424 14.7934 6.96569 14.3988 6.96564 14.0002C6.96555 13.1953 7.28522 12.4233 7.85433 11.854L8.1543 11.554Z" fill="#22084B"/>
</svg>
