<svg width="40" height="40" viewBox="0 0 40 40" fill="none" xmlns="http://www.w3.org/2000/svg">
<rect width="40" height="40" rx="8" fill="#22084B"/>
<g clip-path="url(#clip0_1363_39108)">
<path d="M24.5 18.5H20.75" stroke="white" stroke-width="1.2" stroke-linecap="round"/>
<path d="M12.5 16.2125C12.5 15.5502 12.5 15.2195 12.5525 14.9435C12.6644 14.3509 12.9524 13.8057 13.3787 13.3792C13.8051 12.9527 14.3502 12.6646 14.9427 12.5525C15.2195 12.5 15.551 12.5 16.2125 12.5C16.502 12.5 16.6475 12.5 16.787 12.5127C17.3878 12.5692 17.9576 12.8055 18.422 13.1907C18.53 13.28 18.632 13.382 18.8375 13.5875L19.25 14C19.862 14.612 20.168 14.918 20.534 15.1212C20.7352 15.2334 20.9486 15.322 21.17 15.3852C21.5735 15.5 22.0062 15.5 22.871 15.5H23.1515C25.1255 15.5 26.1132 15.5 26.7545 16.0775C26.814 16.13 26.87 16.186 26.9225 16.2455C27.5 16.8867 27.5 17.8745 27.5 19.8485V21.5C27.5 24.3282 27.5 25.7427 26.621 26.621C25.742 27.4992 24.3282 27.5 21.5 27.5H18.5C15.6717 27.5 14.2572 27.5 13.379 26.621C12.5007 25.742 12.5 24.3282 12.5 21.5V16.2125Z" stroke="white" stroke-width="1.2"/>
</g>
<defs>
<clipPath id="clip0_1363_39108">
<rect width="18" height="18" fill="white" transform="translate(11 11)"/>
</clipPath>
</defs>
</svg>
