<svg width="32" height="32" viewBox="0 0 32 32" fill="none" xmlns="http://www.w3.org/2000/svg">
<rect width="32" height="32" rx="16" fill="#F3EDFD"/>
<g clip-path="url(#clip0_1362_37742)">
<path d="M20.4969 14.6641H17.1636" stroke="#22084B" stroke-width="1.2" stroke-linecap="round"/>
<path d="M9.8302 12.632C9.8302 12.0434 9.8302 11.7494 9.87687 11.504C9.97635 10.9773 10.2323 10.4927 10.6113 10.1136C10.9903 9.73444 11.4748 9.47835 12.0015 9.3787C12.2475 9.33203 12.5422 9.33203 13.1302 9.33203C13.3875 9.33203 13.5169 9.33203 13.6409 9.34336C14.1749 9.39352 14.6814 9.60355 15.0942 9.94603C15.1902 10.0254 15.2809 10.116 15.4635 10.2987L15.8302 10.6654C16.3742 11.2094 16.6462 11.4814 16.9715 11.662C17.1503 11.7617 17.34 11.8404 17.5369 11.8967C17.8955 11.9987 18.2802 11.9987 19.0489 11.9987H19.2982C21.0529 11.9987 21.9309 11.9987 22.5009 12.512C22.5538 12.5587 22.6035 12.6085 22.6502 12.6614C23.1635 13.2314 23.1635 14.1094 23.1635 15.864V17.332C23.1635 19.846 23.1635 21.1034 22.3822 21.884C21.6009 22.6647 20.3442 22.6654 17.8302 22.6654H15.1635C12.6495 22.6654 11.3922 22.6654 10.6115 21.884C9.83087 21.1027 9.8302 19.846 9.8302 17.332V12.632Z" stroke="#22084B" stroke-width="1.2"/>
</g>
<defs>
<clipPath id="clip0_1362_37742">
<rect width="16" height="16" fill="white" transform="matrix(-1 0 0 -1 24 24)"/>
</clipPath>
</defs>
</svg>
