<svg width="32" height="32" viewBox="0 0 32 32" fill="none" xmlns="http://www.w3.org/2000/svg">
<rect width="32" height="32" rx="16" fill="#F3EDFD"/>
<g clip-path="url(#clip0_1613_48953)">
<path d="M9 12.2711C9 11.6688 9.23927 11.0911 9.66518 10.6652C10.0911 10.2393 10.6688 10 11.2711 10H20.3554C20.9577 10 21.5354 10.2393 21.9613 10.6652C22.3872 11.0911 22.6265 11.6688 22.6265 12.2711V19.8413C22.6265 20.4437 22.3872 21.0213 21.9613 21.4472C21.5354 21.8731 20.9577 22.1124 20.3554 22.1124H11.2711C10.6688 22.1124 10.0911 21.8731 9.66518 21.4472C9.23927 21.0213 9 20.4437 9 19.8413V12.2711Z" stroke="#22084B" stroke-width="1.2" stroke-linecap="round" stroke-linejoin="round"/>
<path d="M18.0842 13.0312H19.5982M18.0842 16.0594H19.5982M12.028 19.0875H19.5982M12.028 14.5453C12.028 14.9469 12.1875 15.332 12.4714 15.6159C12.7553 15.8998 13.1405 16.0594 13.542 16.0594C13.9436 16.0594 14.3287 15.8998 14.6126 15.6159C14.8965 15.332 15.0561 14.9469 15.0561 14.5453C15.0561 14.1438 14.8965 13.7586 14.6126 13.4747C14.3287 13.1908 13.9436 13.0312 13.542 13.0312C13.1405 13.0312 12.7553 13.1908 12.4714 13.4747C12.1875 13.7586 12.028 14.1438 12.028 14.5453Z" stroke="#22084B" stroke-width="1.2" stroke-linecap="round" stroke-linejoin="round"/>
</g>
<defs>
<clipPath id="clip0_1613_48953">
<rect width="16" height="16" fill="white" transform="matrix(-1 0 0 -1 24 24)"/>
</clipPath>
</defs>
</svg>
