<svg width="20" height="20" viewBox="0 0 20 20" fill="none" xmlns="http://www.w3.org/2000/svg">
<g clip-path="url(#clip0_1360_33585)">
<path d="M17.1366 12.3334C16.631 13.8941 15.6276 15.246 14.2802 16.182C12.9328 17.1179 11.3156 17.5862 9.67654 17.515C8.03749 17.4439 6.46697 16.8373 5.20565 15.7882C3.94433 14.7391 3.0618 13.3054 2.69329 11.7067L4.11162 11.4267L1.41162 8.63339L-0.00170898 12.2451L1.49329 11.9517C1.91052 13.8284 2.93419 15.5154 4.40611 16.7521C5.87803 17.9888 7.71627 18.7063 9.63676 18.7937C11.5573 18.8811 13.4531 18.3337 15.0313 17.2359C16.6095 16.138 17.7823 14.551 18.3683 12.7201L17.1366 12.3334ZM18.53 8.10005C18.1125 6.22346 17.0887 4.53658 15.6166 3.30008C14.1446 2.06357 12.3063 1.34627 10.3858 1.25902C8.46537 1.17177 6.56961 1.71942 4.99152 2.81736C3.41342 3.91529 2.24084 5.50238 1.65496 7.33339L2.84329 7.72005C3.34872 6.15928 4.35196 4.80728 5.69929 3.87124C7.04662 2.93519 8.6637 2.46674 10.3027 2.53766C11.9418 2.60859 13.5123 3.21498 14.7738 4.26391C16.0352 5.31284 16.9179 6.74645 17.2866 8.34505L15.8683 8.62672L18.5683 11.4134L19.9983 7.80672L18.53 8.10005Z" fill="#1A1A1A"/>
<path d="M15.0701 13.5517C15.1281 13.6108 15.1739 13.6807 15.2048 13.7575C15.2358 13.8343 15.2513 13.9164 15.2506 13.9992C15.2498 14.082 15.2327 14.1639 15.2003 14.2401C15.1679 14.3163 15.1208 14.3853 15.0617 14.4433C15.0026 14.5013 14.9327 14.5471 14.8559 14.5781C14.7791 14.6091 14.697 14.6246 14.6142 14.6238C14.5314 14.6231 14.4495 14.606 14.3733 14.5736C14.2971 14.5412 14.2281 14.4941 14.1701 14.435L11.9117 12.135C11.7967 12.0168 11.7323 11.8583 11.7323 11.6933C11.7323 11.5284 11.7967 11.3699 11.9117 11.2517C12.3518 10.8043 12.6234 10.2183 12.6804 9.59334C12.7373 8.96837 12.5762 8.34296 12.2243 7.82334C11.8724 7.30373 11.3515 6.92197 10.75 6.74292C10.1485 6.56387 9.50362 6.59858 8.92484 6.84115C8.34606 7.08372 7.8691 7.51919 7.57502 8.07357C7.28093 8.62795 7.18784 9.26705 7.31157 9.88229C7.4353 10.4975 7.76821 11.051 8.25375 11.4485C8.73929 11.8461 9.3475 12.0634 9.97506 12.0633C10.1424 12.0633 10.3028 12.1298 10.4211 12.2481C10.5394 12.3664 10.6059 12.5269 10.6059 12.6942C10.6059 12.8615 10.5394 13.0219 10.4211 13.1402C10.3028 13.2585 10.1424 13.325 9.97506 13.325C9.08367 13.3246 8.21829 13.0246 7.51792 12.4732C6.81754 11.9218 6.32284 11.151 6.11326 10.2846C5.90368 9.41818 5.9914 8.50648 6.36233 7.69593C6.73325 6.88538 7.36585 6.22303 8.15851 5.81528C8.95116 5.40752 9.85787 5.27802 10.733 5.44759C11.6081 5.61715 12.4008 6.07594 12.9838 6.75025C13.5668 7.42455 13.9062 8.27525 13.9476 9.16568C13.9889 10.0561 13.7297 10.9346 13.2117 11.66L15.0701 13.5517Z" fill="#1A1A1A"/>
</g>
<defs>
<clipPath id="clip0_1360_33585">
<rect width="20" height="20" fill="white"/>
</clipPath>
</defs>
</svg>
