<svg width="32" height="32" viewBox="0 0 32 32" fill="none" xmlns="http://www.w3.org/2000/svg">
<rect width="32" height="32" rx="16" fill="#F3EDFD"/>
<g clip-path="url(#clip0_1366_71988)">
<path d="M23.1366 18.3334C22.631 19.8941 21.6276 21.246 20.2802 22.182C18.9328 23.1179 17.3156 23.5862 15.6765 23.515C14.0375 23.4439 12.467 22.8373 11.2056 21.7882C9.94433 20.7391 9.0618 19.3054 8.69329 17.7067L10.1116 17.4267L7.41162 14.6334L5.99829 18.2451L7.49329 17.9517C7.91052 19.8284 8.93419 21.5154 10.4061 22.7521C11.878 23.9888 13.7163 24.7063 15.6368 24.7937C17.5573 24.8811 19.4531 24.3337 21.0313 23.2359C22.6095 22.138 23.7823 20.551 24.3683 18.7201L23.1366 18.3334ZM24.53 14.1001C24.1125 12.2235 23.0887 10.5366 21.6166 9.30008C20.1446 8.06357 18.3063 7.34627 16.3858 7.25902C14.4654 7.17177 12.5696 7.71942 10.9915 8.81736C9.41342 9.91529 8.24084 11.5024 7.65496 13.3334L8.84329 13.7201C9.34872 12.1593 10.352 10.8073 11.6993 9.87124C13.0466 8.93519 14.6637 8.46674 16.3027 8.53766C17.9418 8.60859 19.5123 9.21498 20.7738 10.2639C22.0352 11.3128 22.9179 12.7465 23.2866 14.3451L21.8683 14.6267L24.5683 17.4134L25.9983 13.8067L24.53 14.1001Z" fill="#22084B"/>
<path d="M21.0701 19.5517C21.1281 19.6108 21.1739 19.6807 21.2048 19.7575C21.2358 19.8343 21.2513 19.9164 21.2506 19.9992C21.2498 20.082 21.2327 20.1639 21.2003 20.2401C21.1679 20.3163 21.1208 20.3853 21.0617 20.4433C21.0026 20.5013 20.9327 20.5471 20.8559 20.5781C20.7791 20.6091 20.697 20.6246 20.6142 20.6238C20.5314 20.6231 20.4495 20.606 20.3733 20.5736C20.2971 20.5412 20.2281 20.4941 20.1701 20.435L17.9117 18.135C17.7967 18.0168 17.7323 17.8583 17.7323 17.6933C17.7323 17.5284 17.7967 17.3699 17.9117 17.2517C18.3518 16.8043 18.6234 16.2183 18.6804 15.5933C18.7373 14.9684 18.5762 14.343 18.2243 13.8233C17.8724 13.3037 17.3515 12.922 16.75 12.7429C16.1485 12.5639 15.5036 12.5986 14.9248 12.8412C14.3461 13.0837 13.8691 13.5192 13.575 14.0736C13.2809 14.628 13.1878 15.2671 13.3116 15.8823C13.4353 16.4975 13.7682 17.051 14.2538 17.4485C14.7393 17.8461 15.3475 18.0634 15.9751 18.0633C16.1424 18.0633 16.3028 18.1298 16.4211 18.2481C16.5394 18.3664 16.6059 18.5269 16.6059 18.6942C16.6059 18.8615 16.5394 19.0219 16.4211 19.1402C16.3028 19.2585 16.1424 19.325 15.9751 19.325C15.0837 19.3246 14.2183 19.0246 13.5179 18.4732C12.8175 17.9218 12.3228 17.151 12.1133 16.2846C11.9037 15.4182 11.9914 14.5065 12.3623 13.6959C12.7332 12.8854 13.3658 12.223 14.1585 11.8153C14.9512 11.4075 15.8579 11.278 16.733 11.4476C17.6081 11.6172 18.4008 12.0759 18.9838 12.7502C19.5668 13.4246 19.9062 14.2752 19.9476 15.1657C19.9889 16.0561 19.7297 16.9346 19.2117 17.66L21.0701 19.5517Z" fill="#22084B"/>
</g>
<defs>
<clipPath id="clip0_1366_71988">
<rect width="20" height="20" fill="white" transform="translate(6 6)"/>
</clipPath>
</defs>
</svg>
