<svg width="20" height="20" viewBox="0 0 20 20" fill="none" xmlns="http://www.w3.org/2000/svg">
<path d="M14.5101 16.6338C14.4318 16.6679 14.3485 16.6886 14.2572 16.6963L14.1673 16.7002H5.83333C5.70676 16.7002 5.59539 16.6784 5.49251 16.6338H14.5101ZM8.33138 7.4668L8.35677 7.46875L8.36458 7.47656C8.36519 7.48036 8.36653 7.48785 8.36653 7.5V13.335C8.36656 13.3464 8.36515 13.3537 8.36458 13.3574C8.36375 13.3583 8.3629 13.3601 8.36165 13.3613C8.35971 13.3633 8.35787 13.3643 8.35677 13.3652L8.33333 13.3662H8.33138C8.32071 13.3662 8.31376 13.3658 8.30989 13.3652L8.3011 13.3564C8.30048 13.3524 8.30013 13.3446 8.30013 13.333V7.5L8.30208 7.47656L8.30696 7.47168C8.30883 7.4698 8.30975 7.46778 8.31087 7.4668H8.33138ZM11.6644 7.4668L11.6898 7.46875L11.6956 7.47363C11.6968 7.47479 11.6978 7.47573 11.6986 7.47656C11.6992 7.48039 11.6995 7.48796 11.6995 7.5V13.335C11.6996 13.3463 11.6991 13.3537 11.6986 13.3574L11.6956 13.3613C11.6935 13.3635 11.6909 13.3642 11.6898 13.3652L11.6663 13.3662H11.6644C11.6536 13.3662 11.6467 13.3658 11.6429 13.3652L11.6341 13.3564C11.6335 13.3524 11.6331 13.3445 11.6331 13.333V7.5L11.6351 7.47656L11.64 7.47168C11.6417 7.4699 11.6428 7.46776 11.6439 7.4668H11.6644ZM4.96712 4.2002H4.16634C4.15409 4.20018 4.14656 4.19885 4.1429 4.19824L4.13411 4.18945L4.13313 4.16504C4.13311 4.15353 4.13356 4.14606 4.13411 4.14258L4.13802 4.13965C4.1405 4.13719 4.14264 4.1358 4.14388 4.13477V4.13379H8.30013V3.33301C8.30014 3.32088 8.30049 3.31327 8.3011 3.30957L8.30501 3.30664C8.30718 3.30448 8.30869 3.30277 8.30989 3.30176L8.33528 3.2998H11.6663C11.6779 3.2998 11.6857 3.30016 11.6898 3.30078L11.6956 3.30566C11.6968 3.3068 11.6978 3.30775 11.6986 3.30859L11.6995 3.33105L11.6986 4.13379H15.8568L15.8646 4.1416L15.8665 4.16504C15.8665 4.17865 15.8652 4.18693 15.8646 4.19043V4.19141C15.8635 4.19268 15.8613 4.19465 15.8587 4.19727L15.8568 4.19824C15.8528 4.19872 15.8465 4.20023 15.8372 4.2002L15.0335 4.19629V15.833C15.0335 15.9593 15.0116 16.0709 14.9671 16.1738V4.2002H5.03352V16.1738C4.9997 16.0957 4.97791 16.0129 4.97005 15.9219L4.96712 15.832V4.2002Z" fill="#B82132" stroke="#B82132" stroke-width="1.6"/>
</svg>
