<svg width="20" height="20" viewBox="0 0 20 20" fill="none" xmlns="http://www.w3.org/2000/svg">
<path d="M11 14.5C11 14.8978 10.842 15.2794 10.5607 15.5607C10.2794 15.842 9.89782 16 9.5 16C9.10218 16 8.72064 15.842 8.43934 15.5607C8.15804 15.2794 8 14.8978 8 14.5C8 14.1022 8.15804 13.7206 8.43934 13.4393C8.72064 13.158 9.10218 13 9.5 13C9.89782 13 10.2794 13.158 10.5607 13.4393C10.842 13.7206 11 14.1022 11 14.5ZM11 9.5C11 9.89782 10.842 10.2794 10.5607 10.5607C10.2794 10.842 9.89782 11 9.5 11C9.10218 11 8.72064 10.842 8.43934 10.5607C8.15804 10.2794 8 9.89782 8 9.5C8 9.10218 8.15804 8.72064 8.43934 8.43934C8.72064 8.15804 9.10218 8 9.5 8C9.89782 8 10.2794 8.15804 10.5607 8.43934C10.842 8.72064 11 9.10218 11 9.5ZM11 4.5C11 4.89782 10.842 5.27936 10.5607 5.56066C10.2794 5.84196 9.89782 6 9.5 6C9.10218 6 8.72064 5.84196 8.43934 5.56066C8.15804 5.27936 8 4.89782 8 4.5C8 4.10218 8.15804 3.72064 8.43934 3.43934C8.72064 3.15804 9.10218 3 9.5 3C9.89782 3 10.2794 3.15804 10.5607 3.43934C10.842 3.72064 11 4.10218 11 4.5Z" fill="#1A1A1A"/>
</svg>
