<svg width="24" height="24" viewBox="0 0 24 24" fill="none" xmlns="http://www.w3.org/2000/svg">
<rect width="24" height="24" rx="12" fill="#F3EDFD"/>
<path d="M6 13.4007C6 11.7039 6 10.8549 6.5274 10.3282C7.0542 9.80078 7.9032 9.80078 9.6 9.80078H14.4C16.0968 9.80078 16.9458 9.80078 17.4726 10.3282C18 10.8549 18 11.7039 18 13.4007C18 15.0974 18 15.9464 17.4726 16.4732C16.9458 17.0005 16.0968 17.0005 14.4 17.0005H9.6C7.9032 17.0005 7.0542 17.0005 6.5274 16.4732C6 15.9464 6 15.0974 6 13.4007Z" stroke="#22084B" stroke-width="1.1"/>
<path d="M8.40015 9.79984V8.59988C8.40015 7.64513 8.77943 6.72949 9.45456 6.05438C10.1297 5.37927 11.0454 5 12.0001 5C12.9549 5 13.8706 5.37927 14.5457 6.05438C15.2209 6.72949 15.6001 7.64513 15.6001 8.59988V9.79984" stroke="#22084B" stroke-width="1.1" stroke-linecap="round"/>
<path d="M9.59998 13.4023H9.60538M11.9946 13.4023H12M14.3946 13.4023H14.4" stroke="#22084B" stroke-width="1.1" stroke-linecap="round" stroke-linejoin="round"/>
</svg>
