<svg width="32" height="32" viewBox="0 0 32 32" fill="none" xmlns="http://www.w3.org/2000/svg">
<rect width="32" height="32" rx="16" fill="#F3EDFD"/>
<g clip-path="url(#clip0_1362_37895)">
<path d="M12.1417 14.4485H14.4485V12.1417L11.7572 9.45043C12.6181 9.03927 13.5854 8.90511 14.5257 9.06645C15.466 9.22778 16.3332 9.67667 17.0078 10.3513C17.6824 11.0259 18.1313 11.8931 18.2927 12.8334C18.454 13.7737 18.3198 14.741 17.9087 15.6019L22.5222 20.2155C22.8281 20.5214 23 20.9362 23 21.3689C23 21.8015 22.8281 22.2163 22.5222 22.5222C22.2163 22.8281 21.8015 23 21.3689 23C20.9362 23 20.5214 22.8281 20.2155 22.5222L15.6019 17.9087C14.741 18.3198 13.7737 18.454 12.8334 18.2927C11.8931 18.1313 11.0259 17.6824 10.3513 17.0078C9.67667 16.3332 9.22778 15.466 9.06645 14.5257C8.90511 13.5854 9.03927 12.6181 9.45043 11.7572L12.1417 14.4485Z" stroke="#22084B" stroke-width="1.2" stroke-linecap="round" stroke-linejoin="round"/>
</g>
<defs>
<clipPath id="clip0_1362_37895">
<rect width="16" height="16" fill="white" transform="translate(8 8)"/>
</clipPath>
</defs>
</svg>
