<svg width="32" height="32" viewBox="0 0 32 32" fill="none" xmlns="http://www.w3.org/2000/svg">
<rect width="32" height="32" rx="16" fill="#F3EDFD"/>
<path d="M14.47 17.9528H9.57579C9.42327 17.9534 9.27718 18.0143 9.16933 18.1221C9.06148 18.2299 9.00062 18.376 9 18.5285V23.4243C9 23.7428 9.2584 24 9.57579 24H14.4724C14.7909 24 15.0481 23.7416 15.0481 23.4243V18.5285C15.0475 18.376 14.9867 18.2299 14.8788 18.1221C14.771 18.0143 14.6249 17.9534 14.4724 17.9528H14.47ZM23.4242 17.9528H18.5276C18.3751 17.9534 18.229 18.0143 18.1212 18.1221C18.0133 18.2299 17.9525 18.376 17.9519 18.5285V23.4243C17.9519 23.7428 18.2091 24 18.5276 24H23.4242C23.7428 24 24 23.7416 24 23.4243V18.5285C23.9994 18.376 23.9385 18.2299 23.8307 18.1221C23.7228 18.0143 23.5767 17.9534 23.4242 17.9528ZM14.47 9.00118H9.57579C9.42327 9.0018 9.27718 9.06265 9.16933 9.17048C9.06148 9.27831 9.00062 9.42438 9 9.57688V14.4727C9 14.7912 9.2584 15.0484 9.57579 15.0484H14.4724C14.7909 15.0484 15.0481 14.79 15.0481 14.4727V9.5757C15.0475 9.4232 14.9867 9.27713 14.8788 9.1693C14.771 9.06147 14.6249 9.00062 14.4724 9L14.47 9.00118ZM17.8516 12.4707C17.4964 12.4094 17.4964 11.9009 17.8516 11.8384C18.4796 11.7292 19.0609 11.4354 19.5213 10.9946C19.9817 10.5539 20.3004 9.98595 20.4367 9.36335L20.458 9.26543C20.5346 8.91506 21.0337 8.91152 21.114 9.2619L21.1399 9.37633C21.2814 9.99626 21.6029 10.5606 22.0641 10.9984C22.5253 11.4362 23.1056 11.7281 23.7322 11.8372C24.0885 11.8985 24.0885 12.4105 23.7322 12.4731C23.1056 12.5822 22.5253 12.874 22.0641 13.3119C21.6029 13.7497 21.2814 14.314 21.1399 14.9339L21.114 15.0472C21.0337 15.3976 20.5358 15.3952 20.458 15.0448L20.4367 14.9469C20.3006 14.3241 19.982 13.7559 19.5216 13.3149C19.0611 12.8739 18.4797 12.58 17.8516 12.4707Z" stroke="#22084B" stroke-width="1.2" stroke-linecap="round" stroke-linejoin="round"/>
</svg>
