<svg width="20" height="20" viewBox="0 0 20 20" fill="none" xmlns="http://www.w3.org/2000/svg">
<path d="M5.83333 8.0963V9.16797M5.83333 8.0963C5.38036 8.09948 4.93338 7.9927 4.53075 7.78514C4.12812 7.57759 3.78185 7.27544 3.52167 6.90464M5.83333 8.0963C6.28631 8.09948 6.73328 7.99187 7.13592 7.78431C7.53855 7.57675 7.88482 7.27461 8.145 6.9038M5.83333 2.7388C6.7975 2.7388 7.64667 3.21214 8.145 3.93047M3.52167 3.93214C3.78185 3.56133 4.12812 3.25918 4.53075 3.05163C4.93338 2.84407 5.38036 2.73729 5.83333 2.74047V1.66797M3.52167 3.93214L2.5 3.2763M3.52167 3.93214C3.21804 4.36813 3.05528 4.88667 3.05528 5.41797C3.05528 5.94927 3.21804 6.46781 3.52167 6.9038M9.16667 3.27547L8.145 3.93214C8.44862 4.36813 8.61139 4.88584 8.61139 5.41714C8.61139 5.94843 8.44862 6.46698 8.145 6.90297L9.16667 7.55964M2.5 7.55964L3.52167 6.90297" stroke="#1A1A1A" stroke-width="1.4" stroke-linecap="round" stroke-linejoin="round"/>
<path d="M10.8334 1.66797H11.0609C13.7775 1.66797 15.1375 1.66797 16.0809 2.33297C16.3509 2.52297 16.5909 2.74964 16.7934 3.0038C17.5 3.89214 17.5 5.17047 17.5 7.7288V9.84964C17.5 12.3188 17.5 13.5538 17.1092 14.5396C16.4809 16.1255 15.1525 17.3755 13.4675 17.9671C12.42 18.3346 11.1092 18.3346 8.48421 18.3346C6.98587 18.3346 6.23587 18.3346 5.63754 18.1246C4.67504 17.7863 3.91587 17.0721 3.55671 16.1663C3.33337 15.603 3.33337 14.8971 3.33337 13.4863V10.8346" stroke="#1A1A1A" stroke-width="1.4" stroke-linecap="round" stroke-linejoin="round"/>
<path d="M17.5 10C17.5 10.7366 17.2073 11.4431 16.6864 11.964C16.1656 12.4849 15.4591 12.7775 14.7225 12.7775C14.1675 12.7775 13.5133 12.6808 12.9741 12.825C12.7386 12.8883 12.5239 13.0124 12.3515 13.1849C12.1791 13.3573 12.055 13.572 11.9916 13.8075C11.8475 14.3467 11.9441 15.0008 11.9441 15.5558C11.9441 15.9206 11.8723 16.2818 11.7327 16.6187C11.5931 16.9557 11.3885 17.2619 11.1306 17.5198C10.8727 17.7777 10.5665 17.9823 10.2295 18.1219C9.89255 18.2615 9.53137 18.3333 9.16663 18.3333" stroke="#1A1A1A" stroke-width="1.4" stroke-linecap="round" stroke-linejoin="round"/>
</svg>
