<svg width="16" height="15" viewBox="0 0 16 15" fill="none" xmlns="http://www.w3.org/2000/svg">
<path d="M13.1923 0H2.80769C2.19586 0.000668097 1.60928 0.244014 1.17665 0.676645C0.744014 1.10928 0.500668 1.69586 0.5 2.30769V12.6923C0.500668 13.3041 0.744014 13.8907 1.17665 14.3234C1.60928 14.756 2.19586 14.9993 2.80769 15H13.1923C13.8041 14.9993 14.3907 14.756 14.8234 14.3234C15.256 13.8907 15.4993 13.3041 15.5 12.6923V2.30769C15.4993 1.69586 15.256 1.10928 14.8234 0.676645C14.3907 0.244014 13.8041 0.000668097 13.1923 0ZM11.9032 4.98642L7.05709 10.7556C7.00393 10.819 6.93779 10.8701 6.86313 10.9056C6.78848 10.9412 6.70706 10.9602 6.6244 10.9615H6.61466C6.5338 10.9615 6.45385 10.9445 6.37999 10.9116C6.30613 10.8786 6.24002 10.8306 6.18594 10.7704L4.10901 8.46274C4.05627 8.4068 4.01524 8.34087 3.98833 8.26884C3.96143 8.19681 3.94919 8.12013 3.95235 8.04331C3.9555 7.96648 3.97398 7.89106 4.00669 7.82148C4.03941 7.7519 4.08571 7.68956 4.14286 7.63813C4.20002 7.58669 4.26688 7.5472 4.33951 7.52198C4.41214 7.49675 4.48909 7.4863 4.56582 7.49124C4.64255 7.49617 4.71752 7.5164 4.78632 7.55072C4.85512 7.58504 4.91637 7.63277 4.96647 7.69111L6.59952 9.50553L11.0198 4.24435C11.119 4.12972 11.2593 4.0587 11.4104 4.04666C11.5614 4.03463 11.7112 4.08253 11.8273 4.18001C11.9433 4.2775 12.0163 4.41674 12.0306 4.56764C12.0448 4.71853 11.999 4.86897 11.9032 4.98642Z" fill="#22084B"/>
</svg>
