<svg width="33" height="32" viewBox="0 0 33 32" fill="none" xmlns="http://www.w3.org/2000/svg">
<rect x="0.845703" width="32" height="32" rx="16" fill="#F3EDFD"/>
<path d="M9.3457 14.3332C9.3457 11.1907 9.3457 9.619 10.3224 8.64317C11.299 7.66734 12.8699 7.6665 16.0124 7.6665H17.679C20.8215 7.6665 22.3932 7.6665 23.369 8.64317C24.3449 9.61984 24.3457 11.1907 24.3457 14.3332V17.6665C24.3457 20.809 24.3457 22.3807 23.369 23.3565C22.3924 24.3323 20.8215 24.3332 17.679 24.3332H16.0124C12.8699 24.3332 11.2982 24.3332 10.3224 23.3565C9.34654 22.3798 9.3457 20.809 9.3457 17.6665V14.3332Z" stroke="#22084B" stroke-width="1.4"/>
<path d="M13.5117 15.9998H20.1784M13.5117 12.6665H20.1784M13.5117 19.3332H17.6784" stroke="#22084B" stroke-width="1.4" stroke-linecap="round"/>
</svg>
