<svg width="33" height="32" viewBox="0 0 33 32" fill="none" xmlns="http://www.w3.org/2000/svg">
<rect x="0.845703" width="32" height="32" rx="16" fill="#F3EDFD"/>
<path d="M11.8457 23.5V21.8333C11.8457 20.9493 12.1969 20.1014 12.822 19.4763C13.4471 18.8512 14.295 18.5 15.179 18.5H18.0957M13.5124 11.8333C13.5124 12.7174 13.8636 13.5652 14.4887 14.1904C15.1138 14.8155 15.9616 15.1667 16.8457 15.1667C17.7298 15.1667 18.5776 14.8155 19.2027 14.1904C19.8278 13.5652 20.179 12.7174 20.179 11.8333C20.179 10.9493 19.8278 10.1014 19.2027 9.47631C18.5776 8.85119 17.7298 8.5 16.8457 8.5C15.9616 8.5 15.1138 8.85119 14.4887 9.47631C13.8636 10.1014 13.5124 10.9493 13.5124 11.8333ZM22.1957 19.0083C22.3582 18.8458 22.5511 18.7169 22.7635 18.629C22.9758 18.541 23.2034 18.4957 23.4332 18.4957C23.663 18.4957 23.8906 18.541 24.1029 18.629C24.3153 18.7169 24.5082 18.8458 24.6707 19.0083C24.8332 19.1708 24.9621 19.3638 25.0501 19.5761C25.138 19.7884 25.1833 20.016 25.1833 20.2458C25.1833 20.4757 25.138 20.7032 25.0501 20.9156C24.9621 21.1279 24.8332 21.3208 24.6707 21.4833L21.8457 24.3333H19.3457V21.8333L22.1957 19.0083Z" stroke="#22084B" stroke-width="1.6" stroke-linecap="round" stroke-linejoin="round"/>
</svg>
