<svg width="33" height="32" viewBox="0 0 33 32" fill="none" xmlns="http://www.w3.org/2000/svg">
<rect x="0.845703" width="32" height="32" rx="16" fill="#F3EDFD"/>
<path d="M15.2092 9.99433L13.4417 8.22641C13.2855 8.07018 13.0735 7.98242 12.8526 7.98242C12.6316 7.98242 12.4197 8.07018 12.2634 8.22641L9.90631 10.5835C9.82889 10.6609 9.76748 10.7528 9.72558 10.8539C9.68368 10.955 9.66211 11.0634 9.66211 11.1729C9.66211 11.2823 9.68368 11.3907 9.72558 11.4918C9.76748 11.593 9.82889 11.6849 9.90631 11.7622L11.6742 13.5297M18.9005 21.5893L20.668 23.3572C20.7454 23.4347 20.8372 23.4961 20.9384 23.538C21.0395 23.5799 21.1479 23.6014 21.2573 23.6014C21.3668 23.6014 21.4752 23.5799 21.5763 23.538C21.6775 23.4961 21.7693 23.4347 21.8467 23.3572L24.2038 21.0002C24.36 20.8439 24.4478 20.632 24.4478 20.411C24.4478 20.19 24.36 19.9781 24.2038 19.8218L22.4359 18.0539" stroke="#22084B" stroke-width="1.6" stroke-linecap="round" stroke-linejoin="round"/>
<path d="M24.2119 10.9912L21.8549 8.63418C21.5294 8.30874 21.0018 8.30874 20.6764 8.63418L9.48051 19.83C9.15508 20.1555 9.15508 20.6831 9.48051 21.0085L11.8375 23.3656C12.163 23.691 12.6906 23.691 13.016 23.3656L24.2119 12.1697C24.5373 11.8443 24.5373 11.3166 24.2119 10.9912Z" stroke="#22084B" stroke-width="1.4" stroke-linecap="round" stroke-linejoin="round"/>
<path d="M16.8447 15.8672C16.9183 15.8672 16.9783 15.9265 16.9785 16C16.9785 16.0736 16.9184 16.1338 16.8447 16.1338C16.7712 16.1336 16.7119 16.0735 16.7119 16C16.7121 15.9266 16.7713 15.8674 16.8447 15.8672Z" fill="black" stroke="#22084B" stroke-width="1.4"/>
<path d="M15.179 18.5002C15.6393 18.5002 16.0124 18.1271 16.0124 17.6668C16.0124 17.2066 15.6393 16.8335 15.179 16.8335C14.7188 16.8335 14.3457 17.2066 14.3457 17.6668C14.3457 18.1271 14.7188 18.5002 15.179 18.5002Z" fill="black"/>
<path d="M18.513 15.1667C18.9733 15.1667 19.3464 14.7936 19.3464 14.3333C19.3464 13.8731 18.9733 13.5 18.513 13.5C18.0528 13.5 17.6797 13.8731 17.6797 14.3333C17.6797 14.7936 18.0528 15.1667 18.513 15.1667Z" fill="black"/>
</svg>
