<svg width="32" height="32" viewBox="0 0 32 32" fill="none" xmlns="http://www.w3.org/2000/svg">
<rect width="32" height="32" rx="16" fill="#F3EDFD"/>
<mask id="path-2-inside-1_3115_22850" fill="white">
<path fill-rule="evenodd" clip-rule="evenodd" d="M23.9413 15.0328C24.1626 16.8491 23.7545 18.6864 22.7851 20.2383C21.8157 21.7901 20.3436 22.9628 18.6142 23.5608C16.8849 24.1587 15.0028 24.1458 13.2818 23.5241C11.5608 22.9025 10.105 21.7097 9.15702 20.1447C9.05385 19.9745 9.02249 19.7704 9.06984 19.5771C9.1172 19.3839 9.23938 19.2174 9.40952 19.1142C9.57966 19.011 9.78382 18.9797 9.97708 19.027C10.1703 19.0744 10.3369 19.1965 10.44 19.3667C10.9507 20.2099 11.6464 20.9259 12.4747 21.4605C13.3029 21.9952 14.2419 22.3344 15.2206 22.4527C16.1992 22.5709 17.192 22.4649 18.1237 22.1429C19.0554 21.8208 19.9017 21.2911 20.5984 20.5938C21.2952 19.8964 21.8242 19.0497 22.1454 18.1178C22.4667 17.1858 22.5717 16.193 22.4526 15.2145C22.3335 14.2359 21.9934 13.2973 21.458 12.4696C20.9226 11.6419 20.2059 10.9468 19.3622 10.4369C19.1919 10.334 19.0695 10.1677 19.0219 9.97455C18.9742 9.78139 19.0053 9.57722 19.1082 9.40696C19.2111 9.2367 19.3774 9.11428 19.5706 9.06665C19.7638 9.01902 19.9679 9.05007 20.1382 9.15297C21.1765 9.78054 22.0584 10.636 22.7173 11.6547C23.3762 12.6734 23.7947 13.8285 23.9413 15.0328ZM17.0002 8.99997C17.0002 9.26518 16.8948 9.51953 16.7073 9.70706C16.5197 9.89459 16.2654 9.99994 16.0001 9.99994C15.7349 9.99994 15.4806 9.89459 15.293 9.70706C15.1055 9.51953 15.0001 9.26518 15.0001 8.99997C15.0001 8.73476 15.1055 8.48042 15.293 8.29288C15.4806 8.10535 15.7349 8 16.0001 8C16.2654 8 16.5197 8.10535 16.7073 8.29288C16.8948 8.48042 17.0002 8.73476 17.0002 8.99997ZM10.804 12.9999C10.8707 12.8861 10.9143 12.7603 10.9321 12.6296C10.95 12.4989 10.9419 12.366 10.9081 12.2385C10.8744 12.111 10.8158 11.9915 10.7357 11.8867C10.6556 11.782 10.5556 11.6941 10.4414 11.6281C10.3272 11.5622 10.201 11.5195 10.0702 11.5025C9.93946 11.4855 9.80661 11.4945 9.67934 11.5291C9.55206 11.5636 9.43288 11.623 9.32865 11.7038C9.22442 11.7846 9.1372 11.8852 9.07202 11.9999C8.9415 12.2294 8.90708 12.5013 8.97627 12.7561C9.04546 13.011 9.21264 13.2281 9.44133 13.3601C9.67002 13.4922 9.94166 13.5284 10.197 13.4609C10.4523 13.3934 10.6705 13.2277 10.804 12.9999ZM9.00002 14.9998C9.26524 14.9998 9.5196 15.1052 9.70714 15.2927C9.89468 15.4802 10 15.7346 10 15.9998C10 16.265 9.89468 16.5193 9.70714 16.7069C9.5196 16.8944 9.26524 16.9997 9.00002 16.9997C8.7348 16.9997 8.48044 16.8944 8.2929 16.7069C8.10536 16.5193 8 16.265 8 15.9998C8 15.7346 8.10536 15.4802 8.2929 15.2927C8.48044 15.1052 8.7348 14.9998 9.00002 14.9998ZM13.0001 10.8039C13.1147 10.7387 13.2154 10.6515 13.2962 10.5473C13.377 10.4431 13.4363 10.3239 13.4709 10.1966C13.5055 10.0694 13.5145 9.93651 13.4975 9.80574C13.4805 9.67496 13.4378 9.54884 13.3719 9.43463C13.3059 9.32042 13.218 9.22039 13.1133 9.14028C13.0085 9.06018 12.8889 9.00158 12.7614 8.96787C12.6339 8.93417 12.501 8.92601 12.3703 8.94388C12.2397 8.96174 12.1138 9.00527 12.0001 9.07197C11.7723 9.20552 11.6065 9.42375 11.539 9.67903C11.4715 9.93432 11.5077 10.2059 11.6398 10.4346C11.7718 10.6633 11.989 10.8305 12.2438 10.8997C12.4987 10.9689 12.7705 10.9344 13.0001 10.8039Z"/>
</mask>
<path fill-rule="evenodd" clip-rule="evenodd" d="M23.9413 15.0328C24.1626 16.8491 23.7545 18.6864 22.7851 20.2383C21.8157 21.7901 20.3436 22.9628 18.6142 23.5608C16.8849 24.1587 15.0028 24.1458 13.2818 23.5241C11.5608 22.9025 10.105 21.7097 9.15702 20.1447C9.05385 19.9745 9.02249 19.7704 9.06984 19.5771C9.1172 19.3839 9.23938 19.2174 9.40952 19.1142C9.57966 19.011 9.78382 18.9797 9.97708 19.027C10.1703 19.0744 10.3369 19.1965 10.44 19.3667C10.9507 20.2099 11.6464 20.9259 12.4747 21.4605C13.3029 21.9952 14.2419 22.3344 15.2206 22.4527C16.1992 22.5709 17.192 22.4649 18.1237 22.1429C19.0554 21.8208 19.9017 21.2911 20.5984 20.5938C21.2952 19.8964 21.8242 19.0497 22.1454 18.1178C22.4667 17.1858 22.5717 16.193 22.4526 15.2145C22.3335 14.2359 21.9934 13.2973 21.458 12.4696C20.9226 11.6419 20.2059 10.9468 19.3622 10.4369C19.1919 10.334 19.0695 10.1677 19.0219 9.97455C18.9742 9.78139 19.0053 9.57722 19.1082 9.40696C19.2111 9.2367 19.3774 9.11428 19.5706 9.06665C19.7638 9.01902 19.9679 9.05007 20.1382 9.15297C21.1765 9.78054 22.0584 10.636 22.7173 11.6547C23.3762 12.6734 23.7947 13.8285 23.9413 15.0328ZM17.0002 8.99997C17.0002 9.26518 16.8948 9.51953 16.7073 9.70706C16.5197 9.89459 16.2654 9.99994 16.0001 9.99994C15.7349 9.99994 15.4806 9.89459 15.293 9.70706C15.1055 9.51953 15.0001 9.26518 15.0001 8.99997C15.0001 8.73476 15.1055 8.48042 15.293 8.29288C15.4806 8.10535 15.7349 8 16.0001 8C16.2654 8 16.5197 8.10535 16.7073 8.29288C16.8948 8.48042 17.0002 8.73476 17.0002 8.99997ZM10.804 12.9999C10.8707 12.8861 10.9143 12.7603 10.9321 12.6296C10.95 12.4989 10.9419 12.366 10.9081 12.2385C10.8744 12.111 10.8158 11.9915 10.7357 11.8867C10.6556 11.782 10.5556 11.6941 10.4414 11.6281C10.3272 11.5622 10.201 11.5195 10.0702 11.5025C9.93946 11.4855 9.80661 11.4945 9.67934 11.5291C9.55206 11.5636 9.43288 11.623 9.32865 11.7038C9.22442 11.7846 9.1372 11.8852 9.07202 11.9999C8.9415 12.2294 8.90708 12.5013 8.97627 12.7561C9.04546 13.011 9.21264 13.2281 9.44133 13.3601C9.67002 13.4922 9.94166 13.5284 10.197 13.4609C10.4523 13.3934 10.6705 13.2277 10.804 12.9999ZM9.00002 14.9998C9.26524 14.9998 9.5196 15.1052 9.70714 15.2927C9.89468 15.4802 10 15.7346 10 15.9998C10 16.265 9.89468 16.5193 9.70714 16.7069C9.5196 16.8944 9.26524 16.9997 9.00002 16.9997C8.7348 16.9997 8.48044 16.8944 8.2929 16.7069C8.10536 16.5193 8 16.265 8 15.9998C8 15.7346 8.10536 15.4802 8.2929 15.2927C8.48044 15.1052 8.7348 14.9998 9.00002 14.9998ZM13.0001 10.8039C13.1147 10.7387 13.2154 10.6515 13.2962 10.5473C13.377 10.4431 13.4363 10.3239 13.4709 10.1966C13.5055 10.0694 13.5145 9.93651 13.4975 9.80574C13.4805 9.67496 13.4378 9.54884 13.3719 9.43463C13.3059 9.32042 13.218 9.22039 13.1133 9.14028C13.0085 9.06018 12.8889 9.00158 12.7614 8.96787C12.6339 8.93417 12.501 8.92601 12.3703 8.94388C12.2397 8.96174 12.1138 9.00527 12.0001 9.07197C11.7723 9.20552 11.6065 9.42375 11.539 9.67903C11.4715 9.93432 11.5077 10.2059 11.6398 10.4346C11.7718 10.6633 11.989 10.8305 12.2438 10.8997C12.4987 10.9689 12.7705 10.9344 13.0001 10.8039Z" fill="#22084B" stroke="#22084B" stroke-width="3.2" mask="url(#path-2-inside-1_3115_22850)"/>
</svg>
