<svg width="33" height="32" viewBox="0 0 33 32" fill="none" xmlns="http://www.w3.org/2000/svg">
<rect x="0.845703" width="32" height="32" rx="16" fill="#F3EDFD"/>
<path d="M15.3157 17.9528H10.4215C10.269 17.9534 10.1229 18.0143 10.015 18.1221C9.90719 18.2299 9.84632 18.376 9.8457 18.5285V23.4243C9.8457 23.7428 10.1041 24 10.4215 24H15.3181C15.6366 24 15.8938 23.7416 15.8938 23.4243V18.5285C15.8932 18.376 15.8324 18.2299 15.7245 18.1221C15.6167 18.0143 15.4706 17.9534 15.3181 17.9528H15.3157ZM24.2699 17.9528H19.3734C19.2208 17.9534 19.0747 18.0143 18.9669 18.1221C18.859 18.2299 18.7982 18.376 18.7976 18.5285V23.4243C18.7976 23.7428 19.0548 24 19.3734 24H24.2699C24.5885 24 24.8457 23.7416 24.8457 23.4243V18.5285C24.8451 18.376 24.7842 18.2299 24.6764 18.1221C24.5685 18.0143 24.4224 17.9534 24.2699 17.9528ZM15.3157 9.00118H10.4215C10.269 9.0018 10.1229 9.06265 10.015 9.17048C9.90719 9.27831 9.84632 9.42438 9.8457 9.57688V14.4727C9.8457 14.7912 10.1041 15.0484 10.4215 15.0484H15.3181C15.6366 15.0484 15.8938 14.79 15.8938 14.4727V9.5757C15.8932 9.4232 15.8324 9.27713 15.7245 9.1693C15.6167 9.06147 15.4706 9.00062 15.3181 9L15.3157 9.00118ZM18.6973 12.4707C18.3421 12.4094 18.3421 11.9009 18.6973 11.8384C19.3253 11.7292 19.9066 11.4354 20.367 10.9946C20.8274 10.5539 21.1461 9.98595 21.2824 9.36335L21.3037 9.26543C21.3804 8.91506 21.8794 8.91152 21.9597 9.2619L21.9856 9.37633C22.1271 9.99626 22.4486 10.5606 22.9098 10.9984C23.371 11.4362 23.9513 11.7281 24.5779 11.8372C24.9342 11.8985 24.9342 12.4105 24.5779 12.4731C23.9513 12.5822 23.371 12.874 22.9098 13.3119C22.4486 13.7497 22.1271 14.314 21.9856 14.9339L21.9597 15.0472C21.8794 15.3976 21.3815 15.3952 21.3037 15.0448L21.2824 14.9469C21.1463 14.3241 20.8277 13.7559 20.3673 13.3149C19.9068 12.8739 19.3255 12.58 18.6973 12.4707Z" stroke="#22084B" stroke-width="1.2" stroke-linecap="round" stroke-linejoin="round"/>
</svg>
