<svg width="32" height="32" viewBox="0 0 32 32" fill="none" xmlns="http://www.w3.org/2000/svg">
<rect width="32" height="32" rx="16" fill="#F3EDFD"/>
<path fill-rule="evenodd" clip-rule="evenodd" d="M17.0002 7C21.9707 7 26.0002 11.0294 26.0002 16C26.0002 20.9706 21.9707 25 17.0002 25C14.5592 25 12.3452 24.0283 10.7239 22.4505L12.1187 21.0171C13.3797 22.2442 15.1017 23 17.0002 23C20.8661 23 24.0002 19.866 24.0002 16C24.0002 12.134 20.8661 9 17.0002 9C13.1342 9 10.0002 12.134 10.0002 16C10.0002 16.1895 10.0077 16.3772 10.0225 16.5629L12.0002 14.5858L13.4144 16L9.00015 20.4142L4.58594 16L6.00015 14.5858L8.02019 16.6054C8.0069 16.4053 8.00015 16.2035 8.00015 16C8.00015 11.0294 12.0296 7 17.0002 7ZM15.4527 12.9591L17.0096 17.1101L18.5665 12.9591H20.7026L18.0776 19.9591H15.9416L13.3166 12.9591H15.4527Z" fill="#22084B"/>
</svg>
