<svg width="33" height="32" viewBox="0 0 33 32" fill="none" xmlns="http://www.w3.org/2000/svg">
<rect x="0.845703" width="32" height="32" rx="16" fill="#F3EDFD"/>
<path d="M10.9942 14.071C9.33922 13.4093 8.51172 13.0785 8.51172 12.6668C8.51172 12.2552 9.33922 11.9252 10.9942 11.2627L13.3342 10.3268C14.9892 9.66433 15.8176 9.3335 16.8451 9.3335C17.8726 9.3335 18.7009 9.66433 20.3559 10.3268L22.6959 11.2627C24.3509 11.9243 25.1784 12.2552 25.1784 12.6668C25.1784 13.0785 24.3509 13.4085 22.6959 14.071L20.3559 15.0077C18.7009 15.6693 17.8726 16.0002 16.8451 16.0002C15.8176 16.0002 14.9892 15.6693 13.3342 15.0077L10.9942 14.071Z" stroke="#22084B" stroke-width="1.2"/>
<path d="M11.6501 14.3335L10.9942 14.596C9.33922 15.2577 8.51172 15.5893 8.51172 16.0002C8.51172 16.411 9.33922 16.7418 10.9942 17.4043L13.3342 18.341C14.9892 19.0027 15.8176 19.3335 16.8451 19.3335C17.8726 19.3335 18.7009 19.0027 20.3559 18.341L22.6959 17.4043C24.3509 16.7427 25.1784 16.411 25.1784 16.0002C25.1784 15.5893 24.3509 15.2585 22.6959 14.596L22.0401 14.3335" stroke="#22084B" stroke-width="1.2"/>
<path d="M11.6501 17.667L10.9942 17.9295C9.33922 18.5912 8.51172 18.9228 8.51172 19.3337C8.51172 19.7445 9.33922 20.0753 10.9942 20.7378L13.3342 21.6745C14.9892 22.3362 15.8176 22.667 16.8451 22.667C17.8726 22.667 18.7009 22.3362 20.3559 21.6737L22.6959 20.7378C24.3509 20.0762 25.1784 19.7453 25.1784 19.3337C25.1784 18.9228 24.3509 18.592 22.6959 17.9295L22.0401 17.667" stroke="#22084B" stroke-width="1.2"/>
</svg>
